SplineFontDB: 1.0
FontName: OpenKana
FullName: OpenKana
FamilyName: OpenKana
Weight: Book
Copyright: 
Version: 1.0
ItalicAngle: 0
UnderlinePosition: -102
UnderlineWidth: 25
Ascent: 1638
Descent: 410
NeedsXUIDChange: 1
FSType: 0
PfmFamily: 17
TTFWeight: 400
TTFWidth: 5
Panose: 2 1 6 9 0 1 1 1 1 1
LineGap: 204
VLineGap: 0
OS2TypoAscent: 820
OS2TypoDescent: -204
OS2WinAscent: 820
OS2WinDescent: 204
TableOrder: GSUB 1
	<3,0>
LangName: 1041 "" "" "" "" "" "" "" "" 
Encoding: compacted
OldEncoding: wansung
UnicodeInterp: japanese
DisplaySize: -24
AntiAlias: 1
FitToEm: 1
WinInfo: 288 16 19
TeXData: 1 10485760 0 346030 173015 115343 456704 1048576 115343 783286 444596 497025 792723 393216 433062 380633 303038 157286 324010 404750 52429 2506097 1059062 262144
BeginChars: 8932 8932
StartChar: .notdef
Encoding: 0 -1 0
OldEncoding: 0
Width: 1024
VWidth: 1024
Flags: HW
Fore
2 2 m 0
EndSplineSet
EndChar
StartChar: uni2003
Encoding: 95 8195 96
OldEncoding: 33088
Width: 2048
VWidth: 1024
Flags: HW
Fore
2 2 m 0
EndSplineSet
EndChar
StartChar: uni3001
Encoding: 96 12289 97
OldEncoding: 33089
Width: 2048
VWidth: 1024
Flags: HW
Fore
200 248 m 1
 282.667 204 362 157.333 438 108 c 1
 520.667 46.6667 591.333 -14.6667 650 -76 c 1
 671.333 -108 682.667 -135.333 684 -158 c 1
 678 -170 l 1
 644.667 -182 607.333 -176.667 566 -154 c 1
 527.333 -118 490 -75.3333 454 -26 c 1
 408.667 31.3333 360 89.3333 308 148 c 1
 200 248 l 1
EndSplineSet
EndChar
StartChar: uni3002
Encoding: 97 12290 98
OldEncoding: 33090
Width: 2048
VWidth: 1024
Flags: HW
Fore
352 262 m 1
 400 259.333 443.333 246 482 222 c 1
 519.333 187.333 543.333 154 554 122 c 0
 564.667 84.6667 566.667 44.6667 560 2 c 1
 550.667 -30 541.333 -50.6667 532 -60 c 1
 512 -90.6667 485.333 -115.333 452 -134 c 1
 417.333 -147.333 390 -154.667 370 -156 c 1
 307.333 -150.667 250.667 -124.667 200 -78 c 1
 174.667 -35.3333 160.667 12 158 64 c 1
 163.333 105.333 178.667 146.667 204 188 c 1
 233.333 217.333 256.667 235.333 274 242 c 0
 302 252.667 328 259.333 352 262 c 1
356 212 m 1
 318.667 206.667 282 189.333 246 160 c 1
 223.333 126.667 212 102 212 86 c 0
 210.667 38 218 -3.33333 234 -38 c 1
 259.333 -68.6667 290.667 -90 328 -102 c 1
 366 -106 l 1
 416.667 -96.6667 458 -73.3333 490 -36 c 1
 502 -6.66667 509.333 19.3333 512 42 c 0
 513.333 74 506.667 105.333 492 136 c 1
 470.667 166.667 454 184 442 188 c 0
 415.333 200 386.667 208 356 212 c 1
EndSplineSet
EndChar
StartChar: uniFF0C
Encoding: 98 65292 99
OldEncoding: 33091
Width: 2048
VWidth: 1024
Flags: HW
Fore
496 370 m 1
 512 368.667 532 360.667 556 346 c 1
 589.333 311.333 610.667 271.333 620 226 c 1
 622.667 178 622 127.333 618 74 c 1
 607.333 35.3333 583.333 -4 546 -44 c 0
 512.667 -77.3333 488 -98.6667 472 -108 c 1
 448 -104 l 1
 444 -88 452.667 -68 474 -44 c 1
 512.667 5.33333 536 47.3333 544 82 c 1
 537.333 106 513.333 138.667 472 180 c 1
 446.667 220 432 257.333 428 292 c 1
 429.333 318.667 440.667 341.333 462 360 c 1
 496 370 l 1
EndSplineSet
EndChar
StartChar: uniFF0E
Encoding: 99 65294 100
OldEncoding: 33092
Width: 2048
VWidth: 1024
Flags: HW
Fore
440 242 m 1
 484 239.333 527.333 216.667 570 174 c 1
 594 122 598.667 76.6667 584 38 c 1
 566.667 4.66667 540 -22.6667 504 -44 c 1
 480 -53.3333 463.333 -58 454 -58 c 0
 431.333 -58 402 -49.3333 366 -32 c 1
 328.667 4 306 37.3333 298 68 c 1
 296.667 88 299.333 112.667 306 142 c 1
 323.333 172.667 349.333 200.667 384 226 c 1
 413.333 235.333 432 240.667 440 242 c 1
EndSplineSet
EndChar
StartChar: uni30FB
Encoding: 100 12539 101
OldEncoding: 33093
Width: 2048
VWidth: 1024
Flags: HW
Fore
990 792 m 1
 1034 789.333 1077.33 766.667 1120 724 c 1
 1144 672 1148.67 626.667 1134 588 c 1
 1116.67 554.667 1090 527.333 1054 506 c 1
 1030 496.667 1013.33 492 1004 492 c 0
 981.333 492 952 500.667 916 518 c 1
 878.667 554 856 587.333 848 618 c 1
 846.667 638 849.333 662.667 856 692 c 1
 873.333 722.667 899.333 750.667 934 776 c 1
 963.333 785.333 982 790.667 990 792 c 1
EndSplineSet
EndChar
StartChar: uniFF1A
Encoding: 101 65306 102
OldEncoding: 33094
Width: 2048
VWidth: 1024
Flags: HW
Fore
990 1292 m 1
 1034 1289.33 1077.33 1266.67 1120 1224 c 1
 1144 1172 1148.67 1126.67 1134 1088 c 1
 1116.67 1054.67 1090 1027.33 1054 1006 c 1
 1030 996.667 1013.33 992 1004 992 c 0
 981.333 992 952 1000.67 916 1018 c 1
 878.667 1054 856 1087.33 848 1118 c 1
 846.667 1138 849.333 1162.67 856 1192 c 1
 873.333 1222.67 899.333 1250.67 934 1276 c 1
 963.333 1285.33 982 1290.67 990 1292 c 1
990 292 m 1
 1034 289.333 1077.33 266.667 1120 224 c 1
 1144 172 1148.67 126.667 1134 88 c 1
 1116.67 54.6667 1090 27.3333 1054 6 c 1
 1030 -3.33333 1013.33 -8 1004 -8 c 0
 981.333 -8 952 0.666667 916 18 c 1
 878.667 54 856 87.3333 848 118 c 1
 846.667 138 849.333 162.667 856 192 c 1
 873.333 222.667 899.333 250.667 934 276 c 1
 963.333 285.333 982 290.667 990 292 c 1
EndSplineSet
EndChar
StartChar: uniFF1B
Encoding: 102 65307 103
OldEncoding: 33095
Width: 2048
VWidth: 1024
Flags: HW
Fore
990 1292 m 1
 1034 1289.33 1077.33 1266.67 1120 1224 c 1
 1144 1172 1148.67 1126.67 1134 1088 c 1
 1116.67 1054.67 1090 1027.33 1054 1006 c 1
 1030 996.667 1013.33 992 1004 992 c 0
 981.333 992 952 1000.67 916 1018 c 1
 878.667 1054 856 1087.33 848 1118 c 1
 846.667 1138 849.333 1162.67 856 1192 c 1
 873.333 1222.67 899.333 1250.67 934 1276 c 1
 963.333 1285.33 982 1290.67 990 1292 c 1
966 370 m 1
 982 368.667 1002 360.667 1026 346 c 1
 1059.33 311.333 1080.67 271.333 1090 226 c 1
 1092.67 178 1092 127.333 1088 74 c 1
 1077.33 35.3333 1053.33 -4 1016 -44 c 0
 982.667 -77.3333 958 -98.6667 942 -108 c 1
 918 -104 l 1
 914 -88 922.667 -68 944 -44 c 1
 982.667 5.33333 1006 47.3333 1014 82 c 1
 1007.33 106 983.333 138.667 942 180 c 1
 916.667 220 902 257.333 898 292 c 1
 899.333 318.667 910.667 341.333 932 360 c 1
 966 370 l 1
EndSplineSet
EndChar
StartChar: uniFF1F
Encoding: 103 65311 104
OldEncoding: 33096
Width: 2048
VWidth: 1024
Flags: HW
Fore
1078 1550 m 1
 1150 1548.67 1212.67 1542 1266 1530 c 1
 1327.33 1511.33 1386.67 1482.67 1444 1444 c 1
 1497.33 1393.33 1538.67 1342 1568 1290 c 1
 1605.33 1200.67 1624 1100.67 1624 990 c 1
 1620 932.667 1603.33 869.333 1574 800 c 1
 1538 736 1497.33 684 1452 644 c 1
 1381.33 593.333 1265.33 543.333 1104 494 c 1
 1068 475.333 1040 441.333 1020 392 c 1
 998 264 l 1
 992.667 209.333 980 170.667 960 148 c 1
 920 132 l 1
 898 140 l 1
 875.333 169.333 868 228 876 316 c 1
 885.333 386.667 906 454.667 938 520 c 1
 995.333 580 1081.33 630.667 1196 672 c 1
 1293.33 704 1375.33 756 1442 828 c 1
 1466 861.333 1484 897.333 1496 936 c 1
 1505.33 978.667 1509.33 1022 1508 1066 c 0
 1505.33 1128.67 1484.67 1196.67 1446 1270 c 1
 1419.33 1310 1386 1344 1346 1372 c 1
 1308.67 1392 1271.33 1406.67 1234 1416 c 1
 1175.33 1426.67 1107.33 1429.33 1030 1424 c 1
 928.667 1402.67 834 1370.67 746 1328 c 1
 691.333 1294.67 635.333 1252 578 1200 c 1
 548.667 1162.67 527.333 1132.67 514 1110 c 1
 515.333 1068.67 519.333 1042.67 526 1032 c 1
 528.667 1008 527.333 984.667 522 962 c 1
 504.667 920.667 479.333 890.667 446 872 c 1
 403.333 865.333 367.333 875.333 338 902 c 1
 328.667 923.333 322 945.333 318 968 c 1
 318 1020 342.667 1073.33 392 1128 c 1
 422 1170 422 1170 468 1238 c 1
 545.333 1320.67 622.667 1388 700 1440 c 1
 774.667 1477.33 856.667 1509.33 946 1536 c 1
 1078 1550 l 1
990 42 m 1
 1034 39.3333 1077.33 16.6667 1120 -26 c 1
 1144 -78 1148.67 -123.333 1134 -162 c 1
 1116.67 -195.333 1090 -222.667 1054 -244 c 1
 1030 -253.333 1013.33 -258 1004 -258 c 0
 981.333 -258 952 -249.333 916 -232 c 1
 878.667 -196 856 -162.667 848 -132 c 1
 846.667 -112 849.333 -87.3333 856 -58 c 1
 873.333 -27.3333 899.333 0.666666 934 26 c 1
 963.333 35.3333 982 40.6667 990 42 c 1
EndSplineSet
EndChar
StartChar: uniFF01
Encoding: 104 65281 105
OldEncoding: 33097
Width: 2048
VWidth: 1024
Flags: HW
Fore
982 1492 m 1
 1030 1489.33 1064.67 1480.67 1086 1466 c 1
 1126 1416 l 1
 1142 1376 1144 1314.67 1132 1232 c 1
 1010 334 l 1
 996 242 l 1
 874 1130 l 1
 850 1316 l 1
 852 1368 l 1
 866.667 1410.67 887.333 1444 914 1468 c 1
 943.333 1481.33 966 1489.33 982 1492 c 1
990 92 m 1
 1034 89.3333 1077.33 66.6667 1120 24 c 1
 1144 -28 1148.67 -73.3333 1134 -112 c 1
 1116.67 -145.333 1090 -172.667 1054 -194 c 1
 1030 -203.333 1013.33 -208 1004 -208 c 0
 981.333 -208 952 -199.333 916 -182 c 1
 878.667 -146 856 -112.667 848 -82 c 1
 846.667 -62 849.333 -37.3333 856 -8 c 1
 873.333 22.6667 899.333 50.6667 934 76 c 1
 963.333 85.3333 982 90.6667 990 92 c 1
EndSplineSet
EndChar
StartChar: uni309B
Encoding: 105 12443 106
OldEncoding: 33098
Width: 2048
VWidth: 1024
Flags: HW
Fore
392 1442 m 1
 501.333 1408.67 582.667 1358.67 636 1292 c 1
 649.333 1265.33 655.333 1239.33 654 1214 c 1
 636 1176 l 1
 592 1160 572.667 1160.67 578 1178 c 1
 554 1200.67 537.333 1229.33 528 1264 c 1
 525.333 1282.67 513.333 1305.33 492 1332 c 0
 468 1361.33 448 1382.67 432 1396 c 1
 409.333 1410.67 392.667 1425.33 382 1440 c 1
 392 1442 l 1
236 1332 m 1
 284 1318 284 1318 332 1304 c 0
 377.333 1290.67 420.667 1258.67 462 1208 c 1
 483.333 1168 492.667 1128.67 490 1090 c 1
 474 1064 l 1
 454 1056 432.667 1058.67 410 1072 c 1
 391.333 1093.33 376.667 1124.67 366 1166 c 0
 362 1182 351.333 1200 334 1220 c 1
 311.333 1250.67 282.667 1280 248 1308 c 1
 226 1330 l 1
 236 1332 l 1
EndSplineSet
EndChar
StartChar: uni309C
Encoding: 106 12444 107
OldEncoding: 33099
Width: 2048
VWidth: 1024
Flags: HW
Fore
304 1462 m 1
 352 1459.33 391.333 1443.33 422 1414 c 1
 440.667 1387.33 452 1356 456 1320 c 1
 454.667 1286.67 442.667 1256 420 1228 c 1
 389.333 1201.33 367.333 1188 354 1188 c 2
 328 1184 l 1
 288 1184 250.667 1197.33 216 1224 c 1
 194.667 1253.33 181.333 1286.67 176 1324 c 1
 178.667 1354.67 188.667 1382.67 206 1408 c 1
 222 1426.67 240 1441.33 260 1452 c 1
 304 1462 l 1
314 1412 m 1
 270 1400 242 1373.33 230 1332 c 1
 228.667 1314.67 233.333 1294.67 244 1272 c 1
 261.333 1252 286 1239.33 318 1234 c 1
 362 1242 390 1268.67 402 1314 c 1
 403.333 1327.33 400.667 1343.33 394 1362 c 1
 382 1384.67 355.333 1401.33 314 1412 c 1
EndSplineSet
EndChar
StartChar: acute
Encoding: 107 180 108
OldEncoding: 33100
Width: 2048
VWidth: 1024
Flags: HW
Fore
1194 1572 m 1
 1214 1570.67 1232.67 1563.33 1250 1550 c 1
 1259.33 1532.67 1262 1509.33 1258 1480 c 1
 1236.67 1434.67 1196.67 1393.33 1138 1356 c 0
 1119.33 1342.67 1100.67 1326.67 1082 1308 c 1
 1010 1250 1010 1250 956 1204 c 1
 932 1200 l 1
 928 1212 l 1
 950 1252 950 1252 992 1332 c 1
 1016 1372 1016 1372 1048 1422 c 1
 1076 1480.67 1105.33 1524 1136 1552 c 1
 1156 1562.67 1175.33 1569.33 1194 1572 c 1
EndSplineSet
EndChar
StartChar: uniFF40
Encoding: 108 65344 109
OldEncoding: 33101
Width: 2048
VWidth: 1024
Flags: HW
Fore
718 1594 m 1
 756.667 1588.67 791.333 1574 822 1550 c 1
 846 1518 867.333 1484 886 1448 c 0
 906 1413.33 927.333 1382 950 1354 c 1
 972.667 1314 992.667 1282.67 1010 1260 c 1
 1008 1244 l 1
 996 1240 l 1
 952 1264 l 2
 905.333 1286.67 870 1308.67 846 1330 c 1
 724 1422 l 1
 692 1462 674.667 1505.33 672 1552 c 1
 680 1569.33 695.333 1583.33 718 1594 c 1
EndSplineSet
EndChar
StartChar: dieresis
Encoding: 109 168 110
OldEncoding: 33102
Width: 2048
VWidth: 1024
Flags: HW
Fore
640 1542 m 1
 684 1539.33 727.333 1516.67 770 1474 c 1
 794 1422 798.667 1376.67 784 1338 c 1
 766.667 1304.67 740 1277.33 704 1256 c 1
 680 1246.67 663.333 1242 654 1242 c 0
 631.333 1242 602 1250.67 566 1268 c 1
 528.667 1304 506 1337.33 498 1368 c 1
 496.667 1388 499.333 1412.67 506 1442 c 1
 523.333 1472.67 549.333 1500.67 584 1526 c 1
 613.333 1535.33 632 1540.67 640 1542 c 1
1340 1542 m 1
 1384 1539.33 1427.33 1516.67 1470 1474 c 1
 1494 1422 1498.67 1376.67 1484 1338 c 1
 1466.67 1304.67 1440 1277.33 1404 1256 c 1
 1380 1246.67 1363.33 1242 1354 1242 c 0
 1331.33 1242 1302 1250.67 1266 1268 c 1
 1228.67 1304 1206 1337.33 1198 1368 c 1
 1196.67 1388 1199.33 1412.67 1206 1442 c 1
 1223.33 1472.67 1249.33 1500.67 1284 1526 c 1
 1313.33 1535.33 1332 1540.67 1340 1542 c 1
EndSplineSet
EndChar
StartChar: uniFF3E
Encoding: 110 65342 111
OldEncoding: 33103
Width: 2048
VWidth: 1024
Flags: HW
Fore
950 1506 m 1
 994 1506 l 1
 1012 1498 l 1
 1016 1492 l 1
 1020 1472 l 1
 1234 1268 l 2
 1287.33 1218.67 1322.67 1180.67 1340 1154 c 1
 1334 1118 l 1
 1320 1110 l 1
 1293.33 1110 1244 1145.33 1172 1216 c 1
 972 1402 l 1
 724 1162 l 2
 678.667 1118 641.333 1099.33 612 1106 c 1
 602 1122 l 1
 606 1147.33 644.667 1196.67 718 1270 c 2
 874 1422 l 1
 914 1456.67 934 1482 934 1498 c 1
 950 1506 l 1
EndSplineSet
EndChar
StartChar: uniFFE3
Encoding: 111 65507 112
OldEncoding: 33104
Width: 2048
VWidth: 1024
Flags: HW
Fore
98 1502 m 1
 1156 1502 l 1
 1650 1502 l 1
 1832 1502 l 1
 1860 1499.33 1878.67 1493.33 1888 1484 c 1
 1896 1466 l 1
 1892 1446 l 1
 1876 1430 1784.67 1422 1618 1422 c 2
 552 1422 l 1
 214 1422 l 2
 135.333 1420.67 81.3333 1428 52 1444 c 1
 46 1460 l 1
 52 1482 l 1
 68 1492.67 83.3333 1499.33 98 1502 c 1
EndSplineSet
EndChar
StartChar: uniFF3F
Encoding: 112 65343 113
OldEncoding: 33105
Width: 2048
VWidth: 1024
Flags: HW
Fore
98 302 m 1
 1156 302 l 1
 1650 302 l 1
 1832 302 l 1
 1860 299.333 1878.67 293.333 1888 284 c 1
 1896 266 l 1
 1892 246 l 1
 1876 230 1784.67 222 1618 222 c 2
 552 222 l 1
 214 222 l 2
 135.333 220.667 81.3333 228 52 244 c 1
 46 260 l 1
 52 282 l 1
 68 292.667 83.3333 299.333 98 302 c 1
EndSplineSet
EndChar
StartChar: uni30FD
Encoding: 113 12541 114
OldEncoding: 33106
Width: 2048
VWidth: 1024
Flags: HW
Fore
768 908 m 1
 782 904 l 1
 1062 634 l 1
 1282 358 l 1
 1412.67 176.667 1471.33 54 1458 -10 c 1
 1451.33 -26 1438.67 -36.6667 1420 -42 c 0
 1369.33 -52.6667 1346.67 -50.6667 1352 -36 c 1
 1309.33 -8 1248 85.3333 1168 244 c 0
 1126.67 328 1084.67 402 1042 466 c 1
 854 758 l 1
 808 822 808 822 756 894 c 1
 760 906 l 1
 768 908 l 1
EndSplineSet
EndChar
StartChar: uni30FE
Encoding: 114 12542 115
OldEncoding: 33107
Width: 2048
VWidth: 1024
Flags: HW
Fore
1412 1114 m 1
 1478.67 1094 1534.67 1072.67 1580 1050 c 1
 1632 996.667 1663.33 950.667 1674 912 c 1
 1674 862.667 1668 842 1656 850 c 1
 1628 839.333 1598 850.667 1566 884 c 1
 1548 936 l 1
 1545.33 954.667 1533.33 977.333 1512 1004 c 0
 1488 1033.33 1468 1054.67 1452 1068 c 1
 1429.33 1082.67 1412.67 1097.33 1402 1112 c 1
 1412 1114 l 1
1256 1004 m 1
 1369.33 974.667 1449.33 926 1496 858 c 1
 1508 828.667 1512.67 797.333 1510 764 c 1
 1494 738 l 1
 1450 722 1430.67 722.667 1436 740 c 1
 1412 766.667 1395.33 799.333 1386 838 c 0
 1380.67 856.667 1364 882.667 1336 916 c 0
 1310.67 944 1288 965.333 1268 980 c 1
 1246 1002 l 1
 1256 1004 l 1
768 908 m 1
 782 904 l 1
 1062 634 l 1
 1282 358 l 1
 1412.67 176.667 1471.33 54 1458 -10 c 1
 1451.33 -26 1438.67 -36.6667 1420 -42 c 0
 1369.33 -52.6667 1346.67 -50.6667 1352 -36 c 1
 1309.33 -8 1248 85.3333 1168 244 c 0
 1126.67 328 1084.67 402 1042 466 c 1
 854 758 l 1
 808 822 808 822 756 894 c 1
 760 906 l 1
 768 908 l 1
EndSplineSet
EndChar
StartChar: uni309D
Encoding: 115 12445 116
OldEncoding: 33108
Width: 2048
VWidth: 1024
Flags: HW
Fore
768 908 m 1
 778 906 l 1
 1146 538 l 1
 1360 298 l 1
 1392 259.333 1418 220.667 1438 182 c 1
 1451.33 147.333 1456.67 112.667 1454 78 c 1
 1444.67 52.6667 1432 32 1416 16 c 1
 1397.33 2.66667 1374.67 -6 1348 -10 c 0
 1312 -12.6667 1276.67 -12.6667 1242 -10 c 1
 1163.33 -11.3333 1078.67 -26.6667 988 -56 c 1
 932 -78.6667 894.667 -88.6667 876 -86 c 1
 870 -78 l 1
 874 -60 l 1
 878 -52 l 1
 962 -9.33333 1048 31.3333 1136 70 c 1
 1188 96.6667 1230.67 116 1264 128 c 1
 1233.33 193.333 1194 260 1146 328 c 1
 1036.67 469.333 947.333 595.333 878 706 c 2
 802 824 l 1
 780.667 854.667 765.333 878 756 894 c 1
 760 906 l 1
 768 908 l 1
EndSplineSet
EndChar
StartChar: uni309E
Encoding: 116 12446 117
OldEncoding: 33109
Width: 2048
VWidth: 1024
Flags: HW
Fore
1412 1114 m 1
 1478.67 1094 1534.67 1072.67 1580 1050 c 1
 1632 996.667 1663.33 950.667 1674 912 c 1
 1674 862.667 1668 842 1656 850 c 1
 1628 839.333 1598 850.667 1566 884 c 1
 1548 936 l 1
 1545.33 954.667 1533.33 977.333 1512 1004 c 0
 1488 1033.33 1468 1054.67 1452 1068 c 1
 1429.33 1082.67 1412.67 1097.33 1402 1112 c 1
 1412 1114 l 1
1256 1004 m 1
 1369.33 974.667 1449.33 926 1496 858 c 1
 1508 828.667 1512.67 797.333 1510 764 c 1
 1494 738 l 1
 1450 722 1430.67 722.667 1436 740 c 1
 1412 766.667 1395.33 799.333 1386 838 c 0
 1380.67 856.667 1364 882.667 1336 916 c 0
 1310.67 944 1288 965.333 1268 980 c 1
 1246 1002 l 1
 1256 1004 l 1
768 908 m 1
 778 906 l 1
 1146 538 l 1
 1360 298 l 1
 1392 259.333 1418 220.667 1438 182 c 1
 1451.33 147.333 1456.67 112.667 1454 78 c 1
 1444.67 52.6667 1432 32 1416 16 c 1
 1397.33 2.66667 1374.67 -6 1348 -10 c 0
 1312 -12.6667 1276.67 -12.6667 1242 -10 c 1
 1163.33 -11.3333 1078.67 -26.6667 988 -56 c 1
 932 -78.6667 894.667 -88.6667 876 -86 c 1
 870 -78 l 1
 874 -60 l 1
 878 -52 l 1
 962 -9.33333 1048 31.3333 1136 70 c 1
 1188 96.6667 1230.67 116 1264 128 c 1
 1233.33 193.333 1194 260 1146 328 c 1
 1036.67 469.333 947.333 595.333 878 706 c 2
 802 824 l 1
 780.667 854.667 765.333 878 756 894 c 1
 760 906 l 1
 768 908 l 1
EndSplineSet
EndChar
StartChar: uni3003
Encoding: 117 12291 118
OldEncoding: 33110
Width: 2048
VWidth: 1024
Flags: HW
Fore
1562 1362 m 1
 1610 1360.67 1630.67 1352.67 1624 1338 c 1
 1645.33 1308.67 1656.67 1276 1658 1240 c 0
 1658 1180 1630 1077.33 1574 932 c 1
 1372 478 l 1
 1332 398 1286 316.667 1234 234 c 1
 1156 116 l 2
 1137.33 86.6667 1123.33 63.3333 1114 46 c 0
 1096.67 16.6667 1082 -2.66667 1070 -12 c 1
 1046 -16 l 1
 1036 4 l 1
 1045.33 30.6667 1055.33 52.6667 1066 70 c 1
 1139.33 219.333 1206.67 372 1268 528 c 1
 1300 616 1324.67 702 1342 786 c 1
 1418 1194 l 1
 1427.33 1228.67 1439.33 1260 1454 1288 c 0
 1467.33 1309.33 1485.33 1328.67 1508 1346 c 1
 1562 1362 l 1
872 1344 m 1
 920 1344 953.333 1328.67 972 1298 c 1
 982.667 1266 986.667 1242.67 984 1228 c 1
 982.667 1173.33 950.667 1075.33 888 934 c 1
 654 466 l 1
 583.333 350 509.333 239.333 432 134 c 1
 398 84 398 84 370 44 c 1
 355.333 18.6667 342.667 2.66667 332 -4 c 1
 310 -4 l 1
 302 12 l 1
 307.333 33.3333 316 52.6667 328 70 c 1
 552 528 l 1
 605.333 649.333 646.667 768 676 884 c 2
 758 1206 l 1
 778 1256.67 800.667 1294 826 1318 c 1
 872 1344 l 1
EndSplineSet
EndChar
StartChar: uni4EDD
Encoding: 118 20189 119
OldEncoding: 33111
Width: 2048
VWidth: 1024
Flags: HW
Fore
1004 1586 m 1
 1042.67 1572.67 1076.67 1559.33 1106 1546 c 1
 1136 1512 l 1
 1134.67 1500 1124.67 1487.33 1106 1474 c 1
 1079.33 1460.67 1061.33 1445.33 1052 1428 c 1
 1082 1394 l 1
 1166 1274 1262.67 1156 1372 1040 c 1
 1472 948 1561.33 872.667 1640 814 c 1
 1750.67 739.333 1866 676.667 1986 626 c 1
 1966 620.667 1945.33 612 1924 600 c 1
 1906.67 585.333 1882 561.333 1850 528 c 1
 1720.67 602.667 1598 690.667 1482 792 c 1
 1302 976 l 1
 1199.33 1101.33 1104.67 1233.33 1018 1372 c 1
 940.667 1246.67 860 1130.67 776 1024 c 1
 704 936 614.667 843.333 508 746 c 1
 422.667 679.333 333.333 616.667 240 558 c 1
 1534 562 l 1
 1608 666 l 1
 1690.67 604.667 1742 560 1762 532 c 1
 1758 520 l 1
 1746 513.333 1720 510 1680 510 c 2
 1056 510 l 1
 1056 -120 l 1
 1694 -116 l 1
 1768 -12 l 1
 1884 -100 l 1
 1922 -146 l 1
 1916 -160 l 1
 98 -168 l 1
 52 -120 l 1
 936 -120 l 1
 936 510 l 1
 244 510 l 1
 212 544 l 1
 86 480 l 1
 72 482 l 1
 74 488 l 1
 175.333 552 278.667 628 384 716 c 1
 558 892 l 1
 594 930.667 622 964.667 642 994 c 1
 719.333 1096.67 798.667 1218 880 1358 c 1
 1004 1586 l 1
EndSplineSet
EndChar
StartChar: uni3005
Encoding: 119 12293 120
OldEncoding: 33112
Width: 2048
VWidth: 1024
Flags: HW
Fore
976 1048 m 1
 1005.33 1041.33 1036 1030.67 1068 1016 c 0
 1112 997.333 1130 983.333 1122 974 c 1
 1115.33 954 1092.67 933.333 1054 912 c 1
 976 736 l 1
 1418 736 l 1
 1438 766 1438 766 1474 820 c 1
 1506 798.667 1536.67 775.333 1566 750 c 1
 1604 700 l 1
 1598 684 l 1
 1578 669.333 1554 660 1526 656 c 1
 1500 648 l 1
 1418.67 518.667 1332 396.667 1240 282 c 0
 1194.67 224.667 1134.67 156.667 1060 78 c 1
 1110.67 24.6667 1150 -21.3333 1178 -60 c 0
 1199.33 -89.3333 1208 -119.333 1204 -150 c 1
 1193.33 -162 1167.33 -162.667 1126 -152 c 1
 1087.33 -128 1042.67 -78 992 -2 c 0
 920 108.667 834.667 218.667 736 328 c 1
 806.667 282.667 875.333 234 942 182 c 0
 986 147.333 1018 118.667 1038 96 c 1
 1044 98 l 1
 1121.33 211.333 1194 326.667 1262 444 c 1
 1388 688 l 1
 946 684 l 1
 874 553.333 794.667 434 708 326 c 1
 574 184 l 1
 540 154 l 1
 526 150 l 1
 540 176 l 1
 662.667 342.667 770.667 528.667 864 734 c 1
 902.667 832.667 940 937.333 976 1048 c 1
EndSplineSet
EndChar
StartChar: uni3006
Encoding: 120 12294 121
OldEncoding: 33113
Width: 2048
VWidth: 1024
Flags: HW
Fore
1438 1448 m 1
 1456.67 1446.67 1474.67 1440.67 1492 1430 c 1
 1532 1380 l 1
 1544 1334.67 1536.67 1285.33 1510 1232 c 1
 1490 1202.67 1466.67 1174 1440 1146 c 1
 1286.67 968.667 1150 787.333 1030 602 c 1
 1076.67 526 1125.33 439.333 1176 342 c 1
 1228 238 l 1
 1244 188.667 1248 148.667 1240 118 c 1
 1230.67 99.3333 1212 88.6667 1184 86 c 1
 1158.67 91.3333 1137.33 104 1120 124 c 1
 1100 153.333 1084.67 179.333 1074 202 c 1
 942 450 l 1
 938 448 l 1
 584 -156 l 1
 526.667 -224 475.333 -265.333 430 -280 c 1
 388.667 -285.333 353.333 -278.667 324 -260 c 1
 294.667 -230.667 274 -196 262 -156 c 1
 258 -92 277.333 2.66667 320 128 c 1
 357.333 225.333 374.667 322.667 372 420 c 1
 364 514.667 363.333 595.333 370 662 c 1
 383.333 700.667 403.333 736.667 430 770 c 1
 467.333 803.333 507.333 830.667 550 852 c 1
 587.333 860 625.333 864.667 664 866 c 0
 705.333 866 746 858.667 786 844 c 1
 844.667 808 897.333 766 944 718 c 1
 948 720 l 1
 1074 908 1074 908 1202 1088 c 0
 1250 1154.67 1292.67 1223.33 1330 1294 c 1
 1307.33 1300.67 1275.33 1324.67 1234 1366 c 2
 1196 1402 l 1
 1208 1410 l 1
 1250.67 1410 1288.67 1416 1322 1428 c 1
 1363.33 1436 1402 1442.67 1438 1448 c 1
1368 1280 m 1
 1388 1266 l 1
 1388 1272 l 1
 1368 1280 l 1
622 716 m 1
 594 709.333 571.333 700.667 554 690 c 1
 502 652 l 1
 494 606.667 492 562.667 496 520 c 0
 506.667 442.667 511.333 368.667 510 298 c 1
 499.333 231.333 481.333 162.667 456 92 c 0
 425.333 2.66667 408 -72 404 -132 c 1
 428 -113.333 447.333 -92.6667 462 -70 c 0
 528.667 28.6667 585.333 118.667 632 200 c 1
 858 578 l 1
 806 638 752 682.667 696 712 c 1
 662.667 716 638 717.333 622 716 c 1
EndSplineSet
EndChar
StartChar: uni3007
Encoding: 121 12295 122
OldEncoding: 33114
Width: 2048
VWidth: 1024
Flags: HW
Fore
978 1392 m 1
 1087.33 1386.67 1188.67 1368.67 1282 1338 c 1
 1380.67 1291.33 1467.33 1238 1542 1178 c 1
 1598 1127.33 1649.33 1072 1696 1012 c 1
 1750.67 917.333 1790 827.333 1814 742 c 1
 1820.67 679.333 1820 612 1812 540 c 1
 1798.67 478.667 1774 412.667 1738 342 c 1
 1711.33 295.333 1679.33 250 1642 206 c 1
 1572.67 132.667 1495.33 67.3333 1410 10 c 1
 1324.67 -34 1242 -67.3333 1162 -90 c 1
 1115.33 -99.3333 1073.33 -104.667 1036 -106 c 1
 933.333 -103.333 833.333 -86.6667 736 -56 c 1
 641.333 -12 554.667 40 476 100 c 1
 430.667 141.333 384.667 190.667 338 248 c 1
 307.333 293.333 274 351.333 238 422 c 1
 207.333 528.667 196 631.333 204 730 c 1
 226.667 824.667 267.333 921.333 326 1020 c 1
 367.333 1072 418.667 1128 480 1188 c 1
 582.667 1261.33 688 1319.33 796 1362 c 1
 862.667 1376.67 923.333 1386.67 978 1392 c 1
982 1266 m 1
 898 1259.33 808 1237.33 712 1200 c 1
 646.667 1164 590 1127.33 542 1090 c 1
 495.333 1050 451.333 1004 410 952 c 1
 370 886.667 338.667 822 316 758 c 1
 305.333 690 302 624 306 560 c 1
 319.333 500 340 442 368 386 c 1
 409.333 318 457.333 256 512 200 c 1
 581.333 141.333 655.333 92 734 52 c 1
 822 18.6667 913.333 -0.666667 1008 -6 c 1
 1110.67 3.33333 1210 30.6667 1306 76 c 1
 1390 124 1472 190.667 1552 276 c 1
 1582.67 316 1616.67 371.333 1654 442 c 1
 1674 495.333 1686.67 556 1692 624 c 1
 1692 701.333 1670 788 1626 884 c 1
 1578 957.333 1521.33 1024.67 1456 1086 c 1
 1404 1127.33 1339.33 1168 1262 1208 c 1
 1168.67 1240 1075.33 1259.33 982 1266 c 1
EndSplineSet
EndChar
StartChar: uni30FC
Encoding: 122 12540 123
OldEncoding: 33115
Width: 2048
VWidth: 1024
Flags: HW
Fore
1350 728 m 1
 1662 720 l 2
 1699.33 718.667 1736.67 707.333 1774 686 c 1
 1792.67 658 1796.67 632 1786 608 c 1
 1762 586.667 1722 576 1666 576 c 1
 1555.33 597.333 1450.67 607.333 1352 606 c 1
 472 532 l 1
 462 514 l 1
 444 504 l 1
 409.333 506.667 371.333 533.333 330 584 c 1
 318 601.333 307.333 613.333 298 620 c 1
 268.667 649.333 248.667 670.667 238 684 c 1
 208 706 l 1
 202 722 l 1
 242 718 l 1
 298 706 348 682 392 646 c 1
 418.667 658 449.333 665.333 484 668 c 2
 1350 728 l 1
EndSplineSet
EndChar
StartChar: afii00208
Encoding: 123 8213 124
OldEncoding: 33116
Width: 2048
VWidth: 1024
Flags: HW
Fore
90 718 m 1
 1150 718 l 1
 1774 718 l 2
 1844.67 718 1906 714.667 1958 708 c 1
 1986 693.333 2006 672.667 2018 646 c 1
 2011.33 620.667 2000.67 602.667 1986 592 c 0
 1966 580 1940 572.667 1908 570 c 1
 842 568 l 1
 270 568 l 2
 116.667 568 26.6667 578.667 0 600 c 1
 0 686 l 1
 22.6667 700.667 42 710 58 714 c 2
 90 718 l 1
EndSplineSet
EndChar
StartChar: uni2010
Encoding: 124 8208 125
OldEncoding: 33117
Width: 2048
VWidth: 1024
Flags: HW
Fore
740 718 m 1
 1202 718 l 1
 1264.67 715.333 1307.33 708.667 1330 698 c 1
 1352.67 680.667 1365.33 663.333 1368 646 c 1
 1361.33 616.667 1342 594 1310 578 c 1
 1260.67 570 1208.67 566.667 1154 568 c 2
 764 568 l 2
 709.333 569.333 668 582.667 640 608 c 1
 626 642 l 1
 635.333 671.333 658.667 694.667 696 712 c 1
 740 718 l 1
EndSplineSet
EndChar
StartChar: uniFF0F
Encoding: 125 65295 126
OldEncoding: 33118
Width: 2048
VWidth: 1024
Flags: HW
Fore
1890 1640 m 1
 1940.67 1640 1983.33 1638 2018 1634 c 1
 2019.33 1603.33 2016 1578.67 2008 1560 c 1
 966 504 l 1
 316 -146 l 1
 162 -302 l 1
 123.333 -343.333 84 -368.667 44 -378 c 1
 0 -374 l 1
 0 -248 l 1
 1890 1640 l 1
EndSplineSet
EndChar
StartChar: uniFF3C
Encoding: 126 65340 127
OldEncoding: 33119
Width: 2048
VWidth: 1024
Flags: HW
Fore
0 1640 m 1
 108 1638 l 1
 1162 586 l 1
 1812 -64 l 2
 1952 -202.667 2020.67 -297.333 2018 -348 c 1
 1998 -377.333 1982 -387.333 1970 -378 c 1
 1942 -378 1922.67 -374 1912 -366 c 1
 1880 -351.333 1857.33 -334 1844 -314 c 1
 778 752 l 1
 0 1536 l 1
 0 1640 l 1
EndSplineSet
EndChar
StartChar: uni301C
Encoding: 127 12316 128
OldEncoding: 33120
Width: 2048
VWidth: 1024
Flags: HW
Fore
614 812 m 1
 676.667 808 738.667 788 800 752 c 1
 864 706.667 950.667 630 1060 522 c 1
 1148 439.333 1224.67 379.333 1290 342 c 1
 1338 323.333 1388 318 1440 326 c 1
 1498.67 346 1556 376.667 1612 418 c 0
 1662.67 454 1724 505.333 1796 572 c 1
 1837.33 608 1872.67 628 1902 632 c 1
 1918 624 l 1
 1930 589.333 1893.33 534 1808 458 c 0
 1749.33 404.667 1690.67 356.667 1632 314 c 1
 1584 284.667 1542 262.667 1506 248 c 1
 1442 232 1376.67 228.667 1310 238 c 1
 1231.33 264.667 1140 323.333 1036 414 c 1
 918.667 528.667 828 611.333 764 662 c 1
 729.333 684.667 694.667 703.333 660 718 c 1
 630.667 722 598 719.333 562 710 c 1
 512.667 683.333 466.667 652 424 616 c 1
 254 438 l 1
 247.333 426 230.667 412.667 204 398 c 1
 162 404 l 1
 154 420 153.333 440 160 464 c 1
 194 508 l 1
 255.333 577.333 314 640 370 696 c 1
 454 760 535.333 798.667 614 812 c 1
EndSplineSet
EndChar
StartChar: uni2016
Encoding: 128 8214 129
OldEncoding: 33121
Width: 2048
VWidth: 1024
Flags: HW
Fore
744 1638 m 1
 766.667 1634 784.667 1623.33 798 1606 c 1
 810 1584.67 817.333 1558.67 820 1528 c 1
 822 462 l 1
 822 -110 l 2
 822 -179.333 818.667 -231.333 812 -266 c 1
 802.667 -292.667 782 -312.667 750 -326 c 1
 720.667 -320.667 696.667 -299.333 678 -262 c 1
 670 796 l 1
 670 1394 l 2
 670 1463.33 672.667 1523.33 678 1574 c 1
 692.667 1604.67 714.667 1626 744 1638 c 1
1244 1638 m 1
 1266.67 1634 1284.67 1623.33 1298 1606 c 1
 1310 1584.67 1317.33 1558.67 1320 1528 c 1
 1322 462 l 1
 1322 -110 l 2
 1322 -179.333 1318.67 -231.333 1312 -266 c 1
 1302.67 -292.667 1282 -312.667 1250 -326 c 1
 1220.67 -320.667 1196.67 -299.333 1178 -262 c 1
 1170 796 l 1
 1170 1394 l 2
 1170 1463.33 1172.67 1523.33 1178 1574 c 1
 1192.67 1604.67 1214.67 1626 1244 1638 c 1
EndSplineSet
EndChar
StartChar: uniFF5C
Encoding: 129 65372 130
OldEncoding: 33122
Width: 2048
VWidth: 1024
Flags: HW
Fore
992 1638 m 1
 1018.67 1630 1037.33 1619.33 1048 1606 c 1
 1060 1584.67 1067.33 1558.67 1070 1528 c 1
 1072 462 l 1
 1072 -110 l 2
 1072 -179.333 1068.67 -231.333 1062 -266 c 1
 1052.67 -291.333 1039.33 -308.667 1022 -318 c 1
 1000 -324 l 1
 988 -324 l 1
 966.667 -316 948 -298.667 932 -272 c 1
 925.333 -241.333 921.333 -206 920 -166 c 1
 920 900 l 1
 920 1420 l 2
 920 1505.33 926.667 1565.33 940 1600 c 1
 953.333 1616 970.667 1628.67 992 1638 c 1
EndSplineSet
EndChar
StartChar: ellipsis
Encoding: 130 8230 131
OldEncoding: 33123
Width: 2048
VWidth: 1024
Flags: HW
Fore
470 732 m 1
 522 730.667 560.667 725.333 586 716 c 1
 610 702.667 625.333 684 632 660 c 1
 618.667 610.667 606 591.333 594 602 c 1
 548.667 584.667 490 580.667 418 590 c 1
 387.333 604.667 366.667 626.667 356 656 c 1
 366.667 688 390 711.333 426 726 c 1
 470 732 l 1
944 732 m 1
 1000 730.667 1040.67 725.333 1066 716 c 1
 1090 702.667 1105.33 684 1112 660 c 1
 1098.67 610.667 1086 591.333 1074 602 c 1
 1048.67 590 1014 583.333 970 582 c 1
 918 584.667 879.333 594.667 854 612 c 1
 830 656 l 1
 842 692 l 1
 876.667 713.333 910.667 726.667 944 732 c 1
1410 732 m 1
 1459.33 730.667 1496.67 725.333 1522 716 c 1
 1546 702.667 1561.33 684 1568 660 c 1
 1561.33 630.667 1540 607.333 1504 590 c 1
 1460 583.333 1418.67 582 1380 586 c 0
 1354.67 588.667 1331.33 600.667 1310 622 c 1
 1296 656 l 1
 1306.67 688 1330 711.333 1366 726 c 1
 1410 732 l 1
EndSplineSet
EndChar
StartChar: twodotenleader
Encoding: 131 8229 132
OldEncoding: 33124
Width: 2048
VWidth: 1024
Flags: HW
Fore
470 732 m 1
 522 730.667 560.667 725.333 586 716 c 1
 610 702.667 625.333 684 632 660 c 1
 618.667 610.667 606 591.333 594 602 c 1
 548.667 584.667 490 580.667 418 590 c 1
 387.333 604.667 366.667 626.667 356 656 c 1
 366.667 688 390 711.333 426 726 c 1
 470 732 l 1
1410 732 m 1
 1459.33 730.667 1496.67 725.333 1522 716 c 1
 1546 702.667 1561.33 684 1568 660 c 1
 1561.33 630.667 1540 607.333 1504 590 c 1
 1460 583.333 1418.67 582 1380 586 c 0
 1354.67 588.667 1331.33 600.667 1310 622 c 1
 1296 656 l 1
 1306.67 688 1330 711.333 1366 726 c 1
 1410 732 l 1
EndSplineSet
EndChar
StartChar: nounicode-3-2-8165
Encoding: 132 -1 133
OldEncoding: 33125
Width: 2048
VWidth: 1024
Flags: HW
Fore
964 1570 m 1
 968 1570 l 1
 976 1558 l 1
 964 1496.67 960 1432.67 964 1366 c 1
 968 1340.67 978 1317.33 994 1296 c 1
 1034 1253.33 1060 1220.67 1072 1198 c 1
 1084 1163.33 1088 1133.33 1084 1108 c 0
 1080 1081.33 1067.33 1062 1046 1050 c 1
 1014 1043.33 980.667 1050.67 946 1072 c 1
 907.333 1117.33 881.333 1171.33 868 1234 c 1
 860 1295.33 859.333 1351.33 866 1402 c 1
 880.667 1439.33 898.667 1476 920 1512 c 1
 933.333 1540 942.667 1557.33 948 1564 c 1
 964 1570 l 1
EndSplineSet
EndChar
StartChar: nounicode-3-2-8166
Encoding: 133 -1 134
OldEncoding: 33126
Width: 2048
VWidth: 1024
Flags: HW
Fore
872 1640 m 1
 929.333 1640 975.333 1620.67 1010 1582 c 1
 1031.33 1543.33 1046.67 1498 1056 1446 c 1
 1061.33 1351.33 1046.67 1276 1012 1220 c 1
 944 1118 l 1
 922 1112 l 1
 914 1124 l 1
 926 1166 l 2
 936.667 1204.67 941.333 1256 940 1320 c 0
 940 1349.33 922.667 1385.33 888 1428 c 1
 854.667 1474.67 836 1521.33 832 1568 c 1
 836 1597.33 849.333 1621.33 872 1640 c 1
EndSplineSet
EndChar
StartChar: nounicode-3-2-8167
Encoding: 134 -1 135
OldEncoding: 33127
Width: 2048
VWidth: 1024
Flags: HW
Fore
1230 1532 m 1
 1234 1532 l 1
 1242 1522 l 1
 1232.67 1450 1228 1381.33 1228 1316 c 1
 1233.33 1276 1246.67 1237.33 1268 1200 c 1
 1310.67 1137.33 1332 1079.33 1332 1026 c 1
 1320 986 1292 964 1248 960 c 1
 1214.67 972 1183.33 1004 1154 1056 c 1
 1140.67 1114.67 1134 1192 1134 1288 c 1
 1139.33 1334.67 1156.67 1391.33 1186 1458 c 0
 1198 1482 1206 1500 1210 1512 c 1
 1218 1526 l 1
 1230 1532 l 1
766 1526 m 1
 770 1526 l 1
 778 1516 l 1
 767.333 1461.33 760.667 1404.67 758 1346 c 1
 759.333 1278 785.333 1213.33 836 1152 c 1
 865.333 1112 881.333 1078 884 1050 c 0
 885.333 1030 882 1008.67 874 986 c 1
 842 951.333 822.667 941.333 816 956 c 1
 793.333 960 770 972 746 992 c 1
 711.333 1033.33 684.667 1108 666 1216 c 1
 666 1297.33 695.333 1398.67 754 1520 c 1
 766 1526 l 1
EndSplineSet
EndChar
StartChar: nounicode-3-2-8168
Encoding: 135 -1 136
OldEncoding: 33128
Width: 2048
VWidth: 1024
Flags: HW
Fore
1094 1628 m 1
 1151.33 1617.33 1204 1576.67 1252 1506 c 1
 1292 1418 1312 1336 1312 1260 c 1
 1305.33 1216 1287.33 1175.33 1258 1138 c 0
 1223.33 1094 1190.67 1056.67 1160 1026 c 2
 1130 998 l 1
 1114 1000 l 1
 1110 1010 l 1
 1115.33 1023.33 1127.33 1042 1146 1066 c 1
 1194 1146 1221.33 1213.33 1228 1268 c 1
 1221.33 1302.67 1175.33 1362.67 1090 1448 c 1
 1056.67 1493.33 1041.33 1539.33 1044 1586 c 1
 1054.67 1606 1071.33 1620 1094 1628 c 1
696 1616 m 1
 749.333 1606.67 790.667 1581.33 820 1540 c 1
 850.667 1484 872.667 1427.33 886 1370 c 1
 896.667 1262 845.333 1142.67 732 1012 c 1
 710 1008 l 1
 710 1024 724.667 1054.67 754 1100 c 1
 783.333 1160 801.333 1217.33 808 1272 c 1
 805.333 1296 789.333 1324.67 760 1358 c 1
 709.333 1410 672.667 1456.67 650 1498 c 1
 644.667 1526 645.333 1555.33 652 1586 c 1
 676 1608.67 690.667 1618.67 696 1616 c 1
EndSplineSet
EndChar
StartChar: uniFF08
Encoding: 136 65288 137
OldEncoding: 33129
Width: 2048
VWidth: 1024
Flags: HW
Fore
1652 1546 m 1
 1676 1546 l 1
 1694 1538 l 1
 1702 1524 l 1
 1700.67 1492 1676 1454.67 1628 1412 c 1
 1545.33 1328 1472.67 1246 1410 1166 c 1
 1370 1108.67 1334 1043.33 1302 970 c 1
 1272.67 879.333 1251.33 790 1238 702 c 1
 1234 538 1247.33 388.667 1278 254 c 1
 1315.33 164.667 1362 85.3333 1418 16 c 1
 1487.33 -57.3333 1562.67 -126.667 1644 -192 c 1
 1692 -228 1721.33 -256 1732 -276 c 1
 1728 -316 l 1
 1716 -326 l 1
 1680 -327.333 1598 -274.667 1470 -168 c 1
 1374 -72 1298 19.3333 1242 106 c 1
 1200.67 194 1170 289.333 1150 392 c 1
 1142 474.667 1140 572.667 1144 686 c 1
 1157.33 784.667 1177.33 878.667 1204 968 c 1
 1245.33 1068 1297.33 1163.33 1360 1254 c 1
 1417.33 1323.33 1476 1388.67 1536 1450 c 1
 1594.67 1506 1633.33 1538 1652 1546 c 1
EndSplineSet
EndChar
StartChar: uniFF09
Encoding: 137 65289 138
OldEncoding: 33130
Width: 2048
VWidth: 1024
Flags: HW
Fore
294 1552 m 1
 312.667 1549.33 334 1535.33 358 1510 c 0
 458 1400.67 543.333 1298 614 1202 c 1
 664.667 1122 708.667 1038 746 950 c 1
 776.667 847.333 796.667 748.667 806 654 c 1
 808.667 551.333 802.667 454 788 362 c 1
 764 259.333 729.333 168.667 684 90 c 1
 636 15.3333 580.667 -54 518 -118 c 1
 320 -300 l 2
 297.333 -320 276 -333.333 256 -340 c 1
 218 -330 l 1
 214 -318 l 1
 210 -292 l 1
 219.333 -270.667 230.667 -255.333 244 -246 c 1
 330.667 -172.667 414 -94 494 -10 c 1
 546 51.3333 589.333 110.667 624 168 c 1
 666.667 258.667 695.333 352.667 710 450 c 1
 715.333 555.333 712 659.333 700 762 c 1
 669.333 888.667 622 1007.33 558 1118 c 1
 495.333 1208.67 426 1296.67 350 1382 c 1
 318 1415.33 289.333 1448 264 1480 c 1
 252 1528 l 1
 260 1544 l 1
 270 1548 l 1
 294 1552 l 1
EndSplineSet
EndChar
StartChar: uni3014
Encoding: 138 12308 139
OldEncoding: 33131
Width: 2048
VWidth: 1024
Flags: HW
Fore
1368 1640 m 1
 1508 1640 l 1
 1512 1622.67 1511.33 1604 1506 1584 c 1
 1495.33 1558.67 1469.33 1527.33 1428 1490 c 1
 1036 1120 l 1
 1038 194 l 1
 1472 -246 l 1
 1486.67 -275.333 1491.33 -306 1486 -338 c 1
 1474 -358 1443.33 -364.667 1394 -358 c 1
 1374 -351.333 1340.67 -324.667 1294 -278 c 2
 984 34 l 1
 966 28 l 1
 948 32 l 1
 926 40 l 1
 899.333 70.6667 886 215.333 886 474 c 2
 886 1046 l 1
 863.333 1058 852 1084 852 1124 c 1
 864 1153.33 904.667 1202 974 1270 c 1
 1368 1640 l 1
EndSplineSet
EndChar
StartChar: uni3015
Encoding: 139 12309 140
OldEncoding: 33132
Width: 2048
VWidth: 1024
Flags: HW
Fore
450 1640 m 1
 512.667 1640 569.333 1616.67 620 1570 c 2
 882 1326 l 1
 898 1327.33 914.667 1324 932 1316 c 1
 950.667 1293.33 962.667 1269.33 968 1244 c 1
 992 1192 993.333 1152 972 1124 c 1
 970 128 l 1
 983.333 121.333 994 107.333 1002 86 c 1
 1002 62 993.333 38 976 14 c 0
 960 -8.66667 949.333 -28 944 -44 c 1
 926.667 -65.3333 904.667 -75.3333 878 -74 c 1
 526 -352 l 1
 498 -368 466 -374.667 430 -372 c 1
 404.667 -358.667 393.333 -332.667 396 -294 c 1
 409.333 -267.333 432 -240 464 -212 c 1
 816 70 l 1
 820 1176 l 1
 464 1508 l 1
 437.333 1542.67 424.667 1578.67 426 1616 c 1
 450 1640 l 1
EndSplineSet
EndChar
StartChar: uniFF3B
Encoding: 140 65339 141
OldEncoding: 33133
Width: 2048
VWidth: 1024
Flags: HW
Fore
1338 1538 m 1
 1368.67 1531.33 1390.67 1514.67 1404 1488 c 1
 1818 1488 l 1
 1863.33 1485.33 1897.33 1478.67 1920 1468 c 1
 1938.67 1453.33 1951.33 1435.33 1958 1414 c 1
 1951.33 1388.67 1938.67 1370 1920 1358 c 1
 1888 1344.67 1816 1338 1704 1338 c 2
 1418 1336 l 1
 1418 -68 l 1
 1832 -68 l 1
 1877.33 -70.6667 1908.67 -76 1926 -84 c 0
 1950 -97.3333 1965.33 -116 1972 -140 c 1
 1958.67 -189.333 1946 -208.667 1934 -198 c 1
 1899.33 -211.333 1852.67 -218 1794 -218 c 2
 1404 -218 l 1
 1390.67 -243.333 1371.33 -260 1346 -268 c 1
 1300 -250 l 1
 1285.33 -228.667 1276 -210 1272 -194 c 1
 1249.33 -160.667 1247.33 -129.333 1266 -100 c 1
 1266 1362 l 1
 1251.33 1374 1241.33 1390 1236 1410 c 1
 1248 1448 l 1
 1262 1460 l 1
 1272 1464 l 1
 1286.67 1501.33 1308.67 1526 1338 1538 c 1
EndSplineSet
EndChar
StartChar: uniFF3D
Encoding: 141 65341 142
OldEncoding: 33134
Width: 2048
VWidth: 1024
Flags: HW
Fore
686 1558 m 1
 716.667 1551.33 743.333 1524 766 1476 c 1
 790 1462.67 805.333 1444.67 812 1422 c 1
 808 1395.33 793.333 1375.33 768 1362 c 1
 768 -164 l 1
 792 -186.667 802.667 -208 800 -228 c 1
 793.333 -248 780.667 -263.333 762 -274 c 1
 734 -302 l 1
 706 -322 684 -326.667 668 -316 c 1
 640 -292 l 1
 202 -292 l 2
 128.667 -292 77.3333 -285.333 48 -272 c 1
 32 -260 19.3333 -242.667 10 -220 c 1
 22 -184 l 1
 56.6667 -157.333 133.333 -143.333 252 -142 c 2
 616 -140 l 1
 614 1342 l 1
 176 1342 l 2
 116 1342 73.3333 1348.67 48 1362 c 1
 32 1372.67 19.3333 1390.67 10 1416 c 1
 22 1452 l 1
 54 1478.67 184.667 1492 414 1492 c 2
 622 1492 l 1
 639.333 1525.33 660.667 1547.33 686 1558 c 1
EndSplineSet
EndChar
StartChar: uniFF5B
Encoding: 142 65371 143
OldEncoding: 33135
Width: 2048
VWidth: 1024
Flags: HW
Fore
1376 1554 m 1
 1526.67 1552.67 1609.33 1537.33 1624 1508 c 1
 1620 1494 l 1
 1614 1482 l 1
 1592.67 1471.33 1570.67 1465.33 1548 1464 c 2
 1418 1460 l 2
 1366 1457.33 1325.33 1444 1296 1420 c 1
 1280 1384 1270.67 1336 1268 1276 c 1
 1268 1208 1269.33 1147.33 1272 1094 c 0
 1276 1010 1274 932 1266 860 c 1
 1258 812 1244 768.667 1224 730 c 1
 1198.67 691.333 1166.67 660.667 1128 638 c 1
 1180 611.333 1224 574 1260 526 c 1
 1278.67 482 1290.67 438.667 1296 396 c 0
 1301.33 328 1299.33 241.333 1290 136 c 0
 1287.33 85.3333 1286.67 42 1288 6 c 0
 1288 -30 1292 -64.6667 1300 -98 c 1
 1314.67 -127.333 1350.67 -149.333 1408 -164 c 1
 1590 -178 l 1
 1622 -183.333 1642.67 -191.333 1652 -202 c 1
 1658 -218 l 1
 1654 -234 l 1
 1642 -252 l 1
 1590 -266 l 1
 1446 -263.333 1347.33 -250 1294 -226 c 1
 1256.67 -198 1228.67 -164 1210 -124 c 1
 1200.67 -96 1196 -34.6667 1196 60 c 1
 1206 322 l 1
 1203.33 396.667 1192 454 1172 494 c 1
 1136 530 1084.67 557.333 1018 576 c 1
 896.667 592 830 614 818 642 c 1
 823.333 660.667 847.333 676 890 688 c 1
 943.333 690.667 1000 698 1060 710 c 1
 1098.67 724.667 1125.33 744 1140 768 c 1
 1157.33 802.667 1168.67 838.667 1174 876 c 0
 1180.67 940 1182.67 1008 1180 1080 c 1
 1178 1342 l 1
 1179.33 1374 1187.33 1408.67 1202 1446 c 1
 1215.33 1468.67 1238 1493.33 1270 1520 c 1
 1300.67 1534.67 1336 1546 1376 1554 c 1
EndSplineSet
EndChar
StartChar: uniFF5D
Encoding: 143 65373 144
OldEncoding: 33136
Width: 2048
VWidth: 1024
Flags: HW
Fore
306 1542 m 1
 366 1532.67 424.667 1520.67 482 1506 c 1
 532.667 1479.33 568 1453.33 588 1428 c 1
 608 1392 618 1343.33 618 1282 c 1
 592 1032 l 1
 589.333 966.667 588.667 906 590 850 c 0
 591.333 794 597.333 752 608 724 c 1
 625.333 688 663.333 663.333 722 650 c 1
 806 643.333 858.667 632.667 880 618 c 1
 888 596.667 889.333 576 884 556 c 0
 881.333 545.333 867.333 535.333 842 526 c 1
 703.333 522 621.333 494.667 596 444 c 1
 588 410.667 583.333 386.667 582 372 c 1
 582 60 l 1
 580.667 -33.3333 566 -108 538 -164 c 1
 500.667 -209.333 441.333 -242.667 360 -264 c 1
 248 -274.667 184 -266.667 168 -240 c 1
 178.667 -212 230 -190 322 -174 c 0
 398 -159.333 448.667 -131.333 474 -90 c 1
 487.333 -34 492 33.3333 488 112 c 1
 490 348 l 1
 492.667 412 506.667 470.667 532 524 c 1
 548 546.667 572.667 568.667 606 590 c 1
 556.667 627.333 521.333 685.333 500 764 c 1
 493.333 834.667 492.667 920.667 498 1022 c 1
 523.333 1256.67 506.667 1388.67 448 1418 c 1
 400 1431.33 351.333 1443.33 302 1454 c 0
 276.667 1459.33 257.333 1470.67 244 1488 c 1
 240 1510 l 1
 248 1528 l 1
 261.333 1536 280.667 1540.67 306 1542 c 1
EndSplineSet
EndChar
StartChar: uni3008
Encoding: 144 12296 145
OldEncoding: 33137
Width: 2048
VWidth: 1024
Flags: HW
Fore
1628 1626 m 1
 1646.67 1622 1662.67 1615.33 1676 1606 c 1
 1686.67 1580.67 1686 1546.67 1674 1504 c 1
 1102 664 l 1
 1704 -212 l 1
 1709.33 -238.667 1709.33 -259.333 1704 -274 c 0
 1689.33 -306 1674 -318 1658 -310 c 1
 1611.33 -302 1546 -237.333 1462 -116 c 2
 974 582 l 1
 939.333 600.667 926.667 616 936 628 c 1
 925.333 685.333 928 726 944 750 c 1
 986 762 l 1
 1412 1384 l 1
 1546 1578 l 1
 1572.67 1602 1600 1618 1628 1626 c 1
EndSplineSet
EndChar
StartChar: uni3009
Encoding: 145 12297 146
OldEncoding: 33138
Width: 2048
VWidth: 1024
Flags: HW
Fore
230 1632 m 1
 279.333 1625.33 352.667 1555.33 450 1422 c 1
 828 918 l 1
 954 750 l 1
 990 716 l 1
 1006 702 l 1
 1014 652 l 1
 1014 606.667 1000.67 577.333 974 564 c 1
 300 -302 l 1
 277.333 -324.667 256.667 -340 238 -348 c 1
 200.667 -352 175.333 -346 162 -330 c 1
 155.333 -311.333 153.333 -288.667 156 -262 c 1
 168 -230 207.333 -172 274 -88 c 1
 842 648 l 1
 356 1296 l 1
 228 1466 l 1
 198.667 1507.33 184.667 1551.33 186 1598 c 1
 202 1628.67 216.667 1640 230 1632 c 1
EndSplineSet
EndChar
StartChar: uni300A
Encoding: 146 12298 147
OldEncoding: 33139
Width: 2048
VWidth: 1024
Flags: HW
Fore
1570 1640 m 1
 1672 1640 l 1
 1298 644 l 1
 1672 -358 l 1
 1570 -358 l 1
 1196 640 l 1
 1570 1640 l 1
1846 1640 m 1
 1948 1638 l 1
 1572 640 l 1
 1948 -358 l 1
 1846 -358 l 1
 1470 640 l 1
 1846 1640 l 1
EndSplineSet
EndChar
StartChar: uni300B
Encoding: 147 12299 148
OldEncoding: 33140
Width: 2048
VWidth: 1024
Flags: HW
Fore
46 1640 m 1
 148 1640 l 1
 522 644 l 1
 148 -358 l 1
 46 -358 l 1
 420 640 l 1
 46 1640 l 1
320 1640 m 1
 422 1638 l 1
 798 640 l 1
 422 -358 l 1
 320 -358 l 1
 696 640 l 1
 320 1640 l 1
EndSplineSet
EndChar
StartChar: uni300C
Encoding: 148 12300 149
OldEncoding: 33141
Width: 2048
VWidth: 1024
Flags: HW
Fore
956 1640 m 1
 1042 1638 l 1
 1050 1628 l 1
 1054 1618 l 1
 1650 1618 l 2
 1719.33 1618 1771.33 1614.67 1806 1608 c 1
 1831.33 1597.33 1848.67 1584 1858 1568 c 1
 1866 1544 l 1
 1848.67 1492 1740 1466.67 1540 1468 c 2
 1072 1468 l 1
 1072 412 l 1
 1072 -160 l 2
 1072 -229.333 1068.67 -281.333 1062 -316 c 1
 1051.33 -345.333 1028.67 -364.667 994 -374 c 1
 946 -354 921.333 -280 920 -152 c 1
 920 914 l 1
 918 1486 l 1
 903.333 1491.33 890 1504.67 878 1526 c 1
 875.333 1536.67 878 1553.33 886 1576 c 1
 932 1604 l 1
 934 1612 l 1
 948 1636 l 1
 956 1640 l 1
EndSplineSet
EndChar
StartChar: uni300D
Encoding: 149 12301 150
OldEncoding: 33142
Width: 2048
VWidth: 1024
Flags: HW
Fore
954 1640 m 1
 1038 1640 l 1
 1062 1608 1073.33 1514.67 1072 1360 c 1
 1072 294 l 1
 1074 -200 l 1
 1118 -228 1132 -246 1116 -254 c 1
 1112 -280.667 1092.67 -304 1058 -324 c 1
 1028 -364 l 1
 1006.67 -374.667 982.667 -373.333 956 -360 c 1
 938 -332 l 1
 540 -332 l 2
 480 -332 437.333 -325.333 412 -312 c 1
 390.667 -292 378.667 -274 376 -258 c 1
 385.333 -228.667 408.667 -205.333 446 -188 c 1
 920 -182 l 1
 920 874 l 1
 920 1394 l 2
 920 1526 931.333 1608 954 1640 c 1
EndSplineSet
EndChar
StartChar: uni300E
Encoding: 150 12302 151
OldEncoding: 33143
Width: 2048
VWidth: 1024
Flags: HW
Fore
1396 1640 m 1
 1898 1640 l 1
 1898 1442 l 1
 1598 1442 l 1
 1598 -258 l 1
 1396 -258 l 1
 1396 1640 l 1
1450 1590 m 1
 1450 -204 l 1
 1544 -206 l 1
 1544 1494 l 1
 1844 1494 l 1
 1844 1590 l 1
 1450 1590 l 1
EndSplineSet
EndChar
StartChar: uni300F
Encoding: 151 12303 152
OldEncoding: 33144
Width: 2048
VWidth: 1024
Flags: HW
Fore
396 1542 m 1
 598 1540 l 1
 598 -358 l 1
 96 -358 l 1
 96 -158 l 1
 396 -158 l 1
 396 1542 l 1
450 1490 m 1
 450 -210 l 1
 150 -210 l 1
 150 -306 l 1
 540 -306 l 1
 544 1488 l 1
 450 1490 l 1
EndSplineSet
EndChar
StartChar: uni3010
Encoding: 152 12304 153
OldEncoding: 33145
Width: 2048
VWidth: 1024
Flags: HW
Fore
1396 1640 m 1
 1898 1640 l 1
 1824.67 1484 1760 1333.33 1704 1188 c 1
 1661.33 1046.67 1631.33 916 1614 796 c 1
 1604.67 665.333 1607.33 523.333 1622 370 c 1
 1654 215.333 1703.33 58.6667 1770 -100 c 1
 1898 -358 l 1
 1396 -358 l 1
 1396 1640 l 1
EndSplineSet
EndChar
StartChar: uni3011
Encoding: 153 12305 154
OldEncoding: 33146
Width: 2048
VWidth: 1024
Flags: HW
Fore
96 1640 m 1
 598 1640 l 1
 598 -358 l 1
 96 -358 l 1
 177.333 -196.667 244 -50 296 82 c 1
 326.667 170 351.333 264 370 364 c 1
 386 494.667 388.667 638.667 378 796 c 1
 362 918.667 336 1037.33 300 1152 c 1
 260 1268 216 1378.67 168 1484 c 2
 96 1640 l 1
EndSplineSet
EndChar
StartChar: uniFF0B
Encoding: 154 65291 155
OldEncoding: 33147
Width: 2048
VWidth: 1024
Flags: HW
Fore
946 1442 m 1
 1048 1442 l 1
 1048 692 l 1
 1798 692 l 1
 1798 592 l 1
 1048 592 l 1
 1048 -158 l 1
 946 -158 l 1
 946 592 l 1
 196 592 l 1
 196 692 l 1
 946 692 l 1
 946 1442 l 1
EndSplineSet
EndChar
StartChar: minus
Encoding: 155 8722 156
OldEncoding: 33148
Width: 2048
VWidth: 1024
Flags: HW
Fore
196 692 m 1
 1798 692 l 1
 1798 592 l 1
 196 592 l 1
 196 692 l 1
EndSplineSet
EndChar
StartChar: plusminus
Encoding: 156 177 157
OldEncoding: 33149
Width: 2048
VWidth: 1024
Flags: HW
Fore
946 1442 m 1
 1048 1442 l 1
 1048 792 l 1
 1798 792 l 1
 1798 692 l 1
 1048 692 l 1
 1048 42 l 1
 946 42 l 1
 946 692 l 1
 196 692 l 1
 196 792 l 1
 946 792 l 1
 946 1442 l 1
196 -58 m 1
 1798 -58 l 1
 1798 -158 l 1
 196 -158 l 1
 196 -58 l 1
EndSplineSet
EndChar
StartChar: multiply
Encoding: 157 215 158
OldEncoding: 33150
Width: 2048
VWidth: 1024
Flags: HW
Fore
1690 1446 m 1
 1735.33 1444.67 1762 1428.67 1770 1398 c 1
 1768.67 1358 1744 1314 1696 1266 c 2
 1074 642 l 1
 1716 0 l 2
 1782.67 -65.3333 1822 -116.667 1834 -154 c 1
 1838 -180.667 1828.67 -204 1806 -224 c 1
 1766 -224 1732 -215.333 1704 -198 c 1
 966 534 l 1
 286 -148 l 1
 242 -189.333 204.667 -210 174 -210 c 0
 130 -207.333 112.667 -199.333 122 -186 c 1
 118 -164.667 118.667 -141.333 124 -116 c 1
 138.667 -90.6667 177.333 -46 240 18 c 2
 860 642 l 1
 396 1106 l 1
 256 1243.33 186.667 1338 188 1390 c 1
 202.667 1411.33 228 1421.33 264 1420 c 1
 302.667 1405.33 372 1346.67 472 1244 c 1
 968 750 l 1
 1448 1232 l 1
 1630 1412 l 1
 1655.33 1428 1675.33 1439.33 1690 1446 c 1
EndSplineSet
EndChar
StartChar: divide
Encoding: 158 247 159
OldEncoding: 33152
Width: 2048
VWidth: 1024
Flags: HW
Fore
984 1342 m 1
 1034.67 1336.67 1077.33 1316.67 1112 1282 c 1
 1129.33 1256.67 1141.33 1226 1148 1190 c 1
 1142.67 1159.33 1134 1134 1122 1114 c 1
 1094 1080.67 1062.67 1058 1028 1046 c 1
 1008 1044 l 1
 982 1044 l 1
 956.667 1048 932 1058.67 908 1076 c 1
 882.667 1100 864 1126.67 852 1156 c 1
 846.667 1193.33 852.667 1232 870 1272 c 1
 895.333 1298.67 918.667 1318 940 1330 c 1
 984 1342 l 1
196 692 m 1
 1798 692 l 1
 1798 592 l 1
 196 592 l 1
 196 692 l 1
990 242 m 1
 1034 239.333 1077.33 216.667 1120 174 c 1
 1144 122 1148.67 76.6667 1134 38 c 1
 1116.67 4.66667 1090 -22.6667 1054 -44 c 1
 1030 -53.3333 1013.33 -58 1004 -58 c 0
 981.333 -58 952 -49.3333 916 -32 c 1
 878.667 4 856 37.3333 848 68 c 1
 846.667 88 849.333 112.667 856 142 c 1
 873.333 172.667 899.333 200.667 934 226 c 1
 963.333 235.333 982 240.667 990 242 c 1
EndSplineSet
EndChar
StartChar: uniFF1D
Encoding: 159 65309 160
OldEncoding: 33153
Width: 2048
VWidth: 1024
Flags: HW
Fore
196 942 m 1
 1798 942 l 1
 1798 842 l 1
 196 842 l 1
 196 942 l 1
196 442 m 1
 1798 442 l 1
 1798 342 l 1
 196 342 l 1
 196 442 l 1
EndSplineSet
EndChar
StartChar: notequal
Encoding: 160 8800 161
OldEncoding: 33154
Width: 2048
VWidth: 1024
Flags: HW
Fore
1146 1442 m 1
 1248 1418 l 1
 1124 942 l 1
 1798 942 l 1
 1798 842 l 1
 1100 840 l 1
 1000 442 l 1
 1798 442 l 1
 1798 342 l 1
 974 340 l 1
 848 -158 l 1
 746 -132 l 1
 868 342 l 1
 196 342 l 1
 196 442 l 1
 892 442 l 1
 994 842 l 1
 196 842 l 1
 196 942 l 1
 1020 946 l 1
 1146 1442 l 1
EndSplineSet
EndChar
StartChar: uniFF1C
Encoding: 161 65308 162
OldEncoding: 33155
Width: 2048
VWidth: 1024
Flags: HW
Fore
1596 1442 m 1
 1598 1442 l 1
 1648 1368 l 1
 322 642 l 1
 1648 -82 l 1
 1598 -158 l 1
 146 642 l 1
 1596 1442 l 1
EndSplineSet
EndChar
StartChar: uniFF1E
Encoding: 162 65310 163
OldEncoding: 33156
Width: 2048
VWidth: 1024
Flags: HW
Fore
396 1442 m 1
 1848 642 l 1
 396 -158 l 1
 346 -82 l 1
 1670 642 l 1
 346 1368 l 1
 396 1442 l 1
EndSplineSet
EndChar
StartChar: uni2266
Encoding: 163 8806 164
OldEncoding: 33157
Width: 2048
VWidth: 1024
Flags: HW
Fore
1694 1442 m 1
 1698 1442 l 1
 1722 1368 l 1
 400 842 l 1
 1722 318 l 1
 1698 242 l 1
 246 842 l 1
 1694 1442 l 1
246 118 m 1
 1698 118 l 1
 1698 42 l 1
 246 42 l 1
 246 118 l 1
246 -82 m 1
 1698 -82 l 1
 1698 -158 l 1
 246 -158 l 1
 246 -82 l 1
EndSplineSet
EndChar
StartChar: uni2267
Encoding: 164 8807 165
OldEncoding: 33158
Width: 2048
VWidth: 1024
Flags: HW
Fore
246 1442 m 1
 1698 842 l 1
 246 242 l 1
 220 318 l 1
 1494 842 l 1
 220 1368 l 1
 246 1442 l 1
246 118 m 1
 1698 118 l 1
 1698 42 l 1
 246 42 l 1
 246 118 l 1
246 -82 m 1
 1698 -82 l 1
 1698 -158 l 1
 246 -158 l 1
 246 -82 l 1
EndSplineSet
EndChar
StartChar: infinity
Encoding: 165 8734 166
OldEncoding: 33159
Width: 2048
VWidth: 1024
Flags: HW
Fore
588 1042 m 1
 658.667 1034 722.667 1010.67 780 972 c 1
 844 910.667 895.333 854.667 934 804 c 2
 998 722 l 1
 1054 796 1054 796 1110 870 c 1
 1176.67 938 1238 988.667 1294 1022 c 1
 1347.33 1036.67 1406 1040 1470 1032 c 1
 1535.33 1008 1599.33 970.667 1662 920 c 1
 1696.67 882.667 1725.33 846.667 1748 812 c 1
 1770.67 768 1786.67 724.667 1796 682 c 1
 1798.67 616.667 1782.67 548 1748 476 c 1
 1714.67 422.667 1674 376.667 1626 338 c 0
 1584.67 304.667 1535.33 276.667 1478 254 c 1
 1428.67 244.667 1388 242.667 1356 248 c 1
 1294.67 262.667 1235.33 295.333 1178 346 c 1
 1114 412.667 1054.67 486 1000 566 c 1
 994 564 l 1
 954 505.333 909.333 448 860 392 c 1
 796 326.667 735.333 281.333 678 256 c 1
 631.333 245.333 589.333 242.667 552 248 c 0
 517.333 253.333 481.333 265.333 444 284 c 1
 380 324 322.667 374 272 434 c 1
 246.667 470 226 508 210 548 c 1
 199.333 610.667 200.667 674.667 214 740 c 1
 236.667 793.333 264 840 296 880 c 1
 336 920 380 956.667 428 990 c 1
 485.333 1018 538.667 1035.33 588 1042 c 1
594 966 m 1
 535.333 955.333 478.667 932 424 896 c 1
 357.333 834.667 310 769.333 282 700 c 1
 276.667 656 276.667 617.333 282 584 c 1
 302 528 337.333 473.333 388 420 c 1
 424 386.667 472 358 532 334 c 1
 574.667 323.333 615.333 320 654 324 c 1
 700.667 340 747.333 369.333 794 412 c 0
 818 434.667 845.333 466.667 876 508 c 0
 912 558.667 942 602.667 966 640 c 1
 951.333 669.333 929.333 703.333 900 742 c 1
 878.667 774 844.667 817.333 798 872 c 1
 747.333 916 698.667 946 652 962 c 1
 594 966 l 1
1386 966 m 1
 1343.33 963.333 1298.67 948 1252 920 c 1
 1205.33 881.333 1162.67 837.333 1124 788 c 1
 1084 732 1084 732 1024 642 c 1
 1072 570 1120.67 502.667 1170 440 c 1
 1208.67 401.333 1242 372.667 1270 354 c 1
 1306 335.333 1343.33 324.667 1382 322 c 1
 1434 323.333 1487.33 340 1542 372 c 1
 1580.67 397.333 1616 428.667 1648 466 c 1
 1680 508.667 1701.33 553.333 1712 600 c 1
 1716 656 1707.33 710 1686 762 c 1
 1651.33 816.667 1608 864 1556 904 c 1
 1508 932 l 1
 1466.67 948 1426 959.333 1386 966 c 1
EndSplineSet
EndChar
StartChar: therefore
Encoding: 166 8756 167
OldEncoding: 33160
Width: 2048
VWidth: 1024
Flags: HW
Fore
990 1542 m 1
 1034 1539.33 1077.33 1516.67 1120 1474 c 1
 1144 1422 1148.67 1376.67 1134 1338 c 1
 1116.67 1304.67 1090 1277.33 1054 1256 c 1
 1030 1246.67 1013.33 1242 1004 1242 c 0
 981.333 1242 952 1250.67 916 1268 c 1
 878.667 1304 856 1337.33 848 1368 c 1
 846.667 1388 849.333 1412.67 856 1442 c 1
 873.333 1472.67 899.333 1500.67 934 1526 c 1
 963.333 1535.33 982 1540.67 990 1542 c 1
240 292 m 1
 284 289.333 327.333 266.667 370 224 c 1
 394 172 398.667 126.667 384 88 c 1
 366.667 54.6667 340 27.3333 304 6 c 1
 280 -3.33333 263.333 -8 254 -8 c 0
 231.333 -8 202 0.666667 166 18 c 1
 128.667 54 106 87.3333 98 118 c 1
 96.6667 138 99.3333 162.667 106 192 c 1
 123.333 222.667 149.333 250.667 184 276 c 1
 213.333 285.333 232 290.667 240 292 c 1
1740 292 m 1
 1784 289.333 1827.33 266.667 1870 224 c 1
 1894 172 1898.67 126.667 1884 88 c 1
 1866.67 54.6667 1840 27.3333 1804 6 c 1
 1780 -3.33333 1763.33 -8 1754 -8 c 0
 1731.33 -8 1702 0.666667 1666 18 c 1
 1628.67 54 1606 87.3333 1598 118 c 1
 1596.67 138 1599.33 162.667 1606 192 c 1
 1623.33 222.667 1649.33 250.667 1684 276 c 1
 1713.33 285.333 1732 290.667 1740 292 c 1
EndSplineSet
EndChar
StartChar: male
Encoding: 167 9794 168
OldEncoding: 33161
Width: 2048
VWidth: 1024
Flags: HW
Fore
946 1492 m 1
 1848 1492 l 1
 1848 592 l 1
 1770 592 l 1
 1768 1364 l 1
 870 466 l 1
 891.333 436.667 910 404 926 368 c 0
 935.333 345.333 942.667 320.667 948 294 c 0
 957.333 234 957.333 166 948 90 c 1
 928 18 897.333 -45.3333 856 -100 c 1
 818.667 -134.667 780 -161.333 740 -180 c 1
 686.667 -201.333 622 -214 546 -218 c 1
 475.333 -214 411.333 -201.333 354 -180 c 1
 295.333 -150.667 243.333 -106.667 198 -48 c 1
 164.667 20 144.667 83.3333 138 142 c 1
 135.333 214 142.667 283.333 160 350 c 1
 184 404.667 211.333 450.667 242 488 c 1
 274 514.667 308 538.667 344 560 c 1
 388 578.667 432.667 592 478 600 c 1
 566 602.667 644.667 594.667 714 576 c 1
 763.333 553.333 798.667 534 820 518 c 1
 1720 1418 l 1
 946 1418 l 1
 946 1492 l 1
538 534 m 1
 475.333 528.667 411.333 510.667 346 480 c 1
 302 441.333 268.667 404 246 368 c 1
 227.333 318.667 215.333 272 210 228 c 1
 210 137.333 228 56.6667 264 -14 c 1
 294.667 -52.6667 331.333 -84.6667 374 -110 c 1
 418 -128.667 461.333 -140.667 504 -146 c 1
 556 -148 l 1
 618.667 -145.333 675.333 -131.333 726 -106 c 0
 766 -84.6667 796.667 -59.3333 818 -30 c 0
 838 -3.33333 855.333 30.6667 870 72 c 1
 882 120 887.333 171.333 886 226 c 1
 880.667 280.667 865.333 332.667 840 382 c 1
 797.333 442 733.333 488.667 648 522 c 1
 538 534 l 1
EndSplineSet
EndChar
StartChar: female
Encoding: 168 9792 169
OldEncoding: 33162
Width: 2048
VWidth: 1024
Flags: HW
Fore
988 1542 m 1
 1054.67 1535.33 1113.33 1518.67 1164 1492 c 1
 1197.33 1469.33 1236 1434 1280 1386 c 1
 1317.33 1324.67 1339.33 1266.67 1346 1212 c 1
 1342 1136 1322 1068.67 1286 1010 c 1
 1232.67 947.333 1172 898.667 1104 864 c 1
 1074.67 852 1047.33 845.333 1022 844 c 1
 1022 492 l 1
 1698 492 l 1
 1698 442 l 1
 1022 442 l 1
 1022 -208 l 1
 970 -208 l 1
 970 442 l 1
 296 442 l 1
 296 492 l 1
 970 492 l 1
 970 844 l 1
 915.333 852 857.333 876 796 916 c 1
 740 968 697.333 1023.33 668 1082 c 1
 653.333 1136.67 648.667 1194.67 654 1256 c 1
 664.667 1298.67 683.333 1340.67 710 1382 c 1
 763.333 1443.33 828 1492 904 1528 c 1
 937.333 1534.67 965.333 1539.33 988 1542 c 1
990 1490 m 1
 947.333 1486 898.667 1469.33 844 1440 c 1
 809.333 1413.33 772.667 1374 734 1322 c 1
 716.667 1283.33 706 1244 702 1204 c 1
 703.333 1144 724 1082.67 764 1020 c 1
 814.667 968 862.667 932 908 912 c 1
 938.667 902.667 969.333 896.667 1000 894 c 1
 1041.33 895.333 1088 910.667 1140 940 c 1
 1182.67 969.333 1220.67 1008 1254 1056 c 1
 1272.67 1089.33 1284.67 1124 1290 1160 c 0
 1294 1202.67 1288 1248 1272 1296 c 1
 1249.33 1338.67 1225.33 1373.33 1200 1400 c 1
 1150.67 1440 1100.67 1468 1050 1484 c 1
 990 1490 l 1
EndSplineSet
EndChar
StartChar: degree
Encoding: 169 176 170
OldEncoding: 33163
Width: 2048
VWidth: 1024
Flags: HW
Fore
290 1542 m 1
 342 1535.33 384 1518 416 1490 c 1
 448 1450 466.667 1412 472 1376 c 1
 470.667 1344 460.667 1311.33 442 1278 c 1
 420.667 1247.33 398 1226 374 1214 c 0
 348.667 1200.67 324.667 1193.33 302 1192 c 1
 260.667 1197.33 225.333 1209.33 196 1228 c 1
 170.667 1250.67 151.333 1274.67 138 1300 c 0
 127.333 1324 122 1350 122 1378 c 1
 127.333 1408.67 142.667 1443.33 168 1482 c 1
 201.333 1510 232.667 1528.67 262 1538 c 1
 290 1542 l 1
288 1490 m 1
 265.333 1484.67 246 1477.33 230 1468 c 1
 194 1434.67 176 1392.67 176 1342 c 1
 193.333 1303.33 208.667 1280.67 222 1274 c 1
 242 1258 266 1248 294 1244 c 1
 306 1246 l 2
 330 1250 348.667 1257.33 362 1268 c 0
 384.667 1285.33 402.667 1310.67 416 1344 c 1
 418.667 1369.33 414.667 1394.67 404 1420 c 1
 381.333 1452 353.333 1474.67 320 1488 c 1
 288 1490 l 1
EndSplineSet
EndChar
StartChar: minute
Encoding: 170 8242 171
OldEncoding: 33164
Width: 2048
VWidth: 1024
Flags: HW
Fore
328 1496 m 1
 370 1492 l 1
 394 1474 l 1
 403.333 1428.67 346.667 1366 224 1286 c 1
 96 1192 l 1
 146.667 1258.67 192.667 1325.33 234 1392 c 1
 270 1442.67 301.333 1477.33 328 1496 c 1
EndSplineSet
EndChar
StartChar: second
Encoding: 171 8243 172
OldEncoding: 33165
Width: 2048
VWidth: 1024
Flags: HW
Fore
328 1496 m 1
 370 1492 l 1
 394 1474 l 1
 403.333 1428.67 346.667 1366 224 1286 c 1
 96 1192 l 1
 146.667 1258.67 192.667 1325.33 234 1392 c 1
 270 1442.67 301.333 1477.33 328 1496 c 1
628 1496 m 1
 670 1492 l 1
 694 1474 l 1
 703.333 1428.67 646.667 1366 524 1286 c 1
 396 1192 l 1
 446.667 1258.67 492.667 1325.33 534 1392 c 1
 570 1442.67 601.333 1477.33 628 1496 c 1
EndSplineSet
EndChar
StartChar: uni2103
Encoding: 172 8451 173
OldEncoding: 33166
Width: 2048
VWidth: 1024
Flags: HW
Fore
290 1542 m 1
 342 1535.33 384 1518 416 1490 c 1
 448 1450 466.667 1412 472 1376 c 1
 470.667 1344 460.667 1311.33 442 1278 c 1
 420.667 1247.33 398 1226 374 1214 c 0
 348.667 1200.67 324.667 1193.33 302 1192 c 1
 260.667 1197.33 225.333 1209.33 196 1228 c 1
 170.667 1250.67 151.333 1274.67 138 1300 c 0
 127.333 1324 122 1350 122 1378 c 1
 127.333 1408.67 142.667 1443.33 168 1482 c 1
 201.333 1510 232.667 1528.67 262 1538 c 1
 290 1542 l 1
288 1490 m 1
 265.333 1484.67 246 1477.33 230 1468 c 1
 194 1434.67 176 1392.67 176 1342 c 1
 193.333 1303.33 208.667 1280.67 222 1274 c 1
 242 1258 266 1248 294 1244 c 1
 306 1246 l 2
 330 1250 348.667 1257.33 362 1268 c 0
 384.667 1285.33 402.667 1310.67 416 1344 c 1
 418.667 1369.33 414.667 1394.67 404 1420 c 1
 381.333 1452 353.333 1474.67 320 1488 c 1
 288 1490 l 1
1596 1468 m 2
 1598 1468 l 1
 1748 1092 l 1
 1672 1068 l 1
 1588 1141.33 1512.67 1199.33 1446 1242 c 1
 1379.33 1274 1314 1298 1250 1314 c 1
 1192.67 1323.33 1124 1326.67 1044 1324 c 1
 973.333 1309.33 910.667 1287.33 856 1258 c 1
 796 1211.33 742.667 1160 696 1104 c 1
 648 1022.67 604 929.333 564 824 c 1
 542.667 730.667 530.667 636 528 540 c 1
 537.333 436 559.333 338 594 246 c 1
 619.333 196.667 641.333 159.333 660 134 c 0
 714.667 63.3333 782.667 -0.666668 864 -58 c 1
 929.333 -92.6667 998.667 -117.333 1072 -132 c 1
 1200 -130.667 1324 -99.3333 1444 -38 c 1
 1500 -0.666667 1555.33 48.6667 1610 110 c 1
 1659.33 170 1704.67 230.667 1746 292 c 1
 1798 292 l 1
 1760.67 229.333 1716 162 1664 90 c 1
 1592 6 1511.33 -61.3333 1422 -112 c 1
 1362 -141.333 1296 -163.333 1224 -178 c 1
 1100 -182 l 1
 1029.33 -176.667 962.667 -162.667 900 -140 c 1
 809.333 -100 726 -46 650 22 c 1
 600.667 74 560 126.667 528 180 c 1
 497.333 236 473.333 296 456 360 c 1
 445.333 410.667 438 473.333 434 548 c 1
 439.333 646.667 456.667 748 486 852 c 1
 526 956 573.333 1049.33 628 1132 c 1
 681.333 1194.67 739.333 1249.33 802 1296 c 1
 910 1348 1036 1371.33 1180 1366 c 1
 1330.67 1339.33 1469.33 1373.33 1596 1468 c 2
EndSplineSet
EndChar
StartChar: uniFFE5
Encoding: 173 65509 174
OldEncoding: 33167
Width: 2048
VWidth: 1024
Flags: HW
Fore
296 1442 m 1
 748 1442 l 1
 748 1392 l 1
 624 1392 l 1
 1044 672 l 1
 1050 674 l 1
 1494 1392 l 1
 1246 1392 l 1
 1246 1442 l 1
 1698 1442 l 1
 1698 1392 l 1
 1546 1390 l 1
 1090 642 l 1
 1698 642 l 1
 1696 592 l 1
 1072 592 l 1
 1074 392 l 1
 1698 392 l 1
 1696 342 l 1
 1072 342 l 1
 1072 -158 l 1
 1348 -208 l 1
 1348 -258 l 1
 646 -258 l 1
 646 -208 l 1
 920 -158 l 1
 920 342 l 1
 296 342 l 1
 296 392 l 1
 920 392 l 1
 920 592 l 1
 296 592 l 1
 296 642 l 1
 904 642 l 1
 472 1392 l 1
 296 1392 l 1
 296 1442 l 1
EndSplineSet
EndChar
StartChar: uniFF04
Encoding: 174 65284 175
OldEncoding: 33168
Width: 2048
VWidth: 1024
Flags: HW
Fore
970 1640 m 1
 1022 1640 l 1
 1022 1468 l 1
 1084.67 1460 1142.67 1443.33 1196 1418 c 0
 1232 1399.33 1266 1373.33 1298 1340 c 0
 1324.67 1310.67 1340.67 1288 1346 1272 c 0
 1362 1230.67 1371.33 1188.67 1374 1146 c 0
 1375.33 1108.67 1374 1084.67 1370 1074 c 0
 1363.33 1055.33 1344.67 1042 1314 1034 c 1
 1283.33 1035.33 1258.67 1050.67 1240 1080 c 1
 1236 1125.33 1248 1173.33 1276 1224 c 0
 1294.67 1257.33 1292.67 1290.67 1270 1324 c 1
 1232.67 1352 1208 1367.33 1196 1370 c 1
 1157.33 1387.33 1118 1401.33 1078 1412 c 2
 1022 1424 l 1
 1024 732 l 1
 1129.33 680 1222 628 1302 576 c 1
 1362 521.333 1404 472 1428 428 c 1
 1440 400 1446.67 367.333 1448 330 c 0
 1449.33 246 1434 169.333 1402 100 c 1
 1382 62.6667 1350.67 24 1308 -16 c 1
 1245.33 -64 1179.33 -98 1110 -118 c 1
 1087.33 -122 1058 -125.333 1022 -128 c 1
 1022 -358 l 1
 970 -358 l 1
 970 -126 l 1
 894 -119.333 820 -102.667 748 -76 c 1
 678.667 -44 624.667 -10.6667 586 24 c 1
 559.333 56 535.333 92 514 132 c 1
 498 178.667 485.333 222 476 262 c 1
 469.333 314 466 356.667 466 390 c 1
 486 436 l 1
 518 448 549.333 448.667 580 438 c 1
 602.667 411.333 611.333 370 606 314 c 1
 594 286 578.667 257.333 560 228 c 1
 550 184 l 1
 552.667 158.667 558 142 566 134 c 1
 591.333 98 626.667 62 672 26 c 1
 740 -15.3333 805.333 -45.3333 868 -64 c 1
 909.333 -73.3333 943.333 -78.6667 970 -80 c 1
 968 630 l 1
 860 679.333 768 730 692 782 c 1
 632 832.667 586.667 882.667 556 932 c 1
 537.333 972 525.333 1014 520 1058 c 1
 520 1115.33 528 1166.67 544 1212 c 0
 554.667 1240 568 1262.67 584 1280 c 0
 613.333 1316 649.333 1348 692 1376 c 1
 758.667 1409.33 826 1436 894 1456 c 1
 970 1466 l 1
 970 1640 l 1
966 1420 m 2
 912.667 1410.67 854 1392 790 1364 c 1
 739.333 1334.67 696 1301.33 660 1264 c 1
 640 1229.33 625.333 1194 616 1158 c 1
 613.333 1108.67 620 1059.33 636 1010 c 1
 661.333 964.667 693.333 924.667 732 890 c 1
 805.333 842 884 798 968 758 c 1
 968 1420 l 1
 966 1420 l 2
1024 604 m 1
 1024 -80 l 1
 1088 -76 1148 -57.3333 1204 -24 c 1
 1258.67 25.3333 1298.67 78 1324 134 c 0
 1344 182 1354.67 240 1356 308 c 1
 1350.67 352 1334 394 1306 434 c 1
 1256.67 483.333 1162.67 540 1024 604 c 1
EndSplineSet
EndChar
StartChar: uniFFE0
Encoding: 175 65504 176
OldEncoding: 33169
Width: 2048
VWidth: 1024
Flags: HW
Fore
1196 1142 m 1
 1248 1142 l 1
 1134 800 l 1
 1242 760 1308 716.667 1332 670 c 1
 1336 640.667 1332.67 614.667 1322 592 c 1
 1276 568 l 1
 1252 576 l 1
 1230.67 614.667 1215.33 654.667 1206 696 c 1
 1195.33 720 1178 738.667 1154 752 c 1
 1118 762 l 1
 852 -42 l 1
 900 -75.3333 951.333 -98 1006 -110 c 1
 1076.67 -114 1133.33 -110 1176 -98 c 1
 1237.33 -67.3333 1302.67 -20.6667 1372 42 c 1
 1398 -8 l 1
 1352.67 -48 1311.33 -80.6667 1274 -106 c 1
 1182 -155.333 1076.67 -177.333 958 -172 c 1
 911.333 -162.667 866 -147.333 822 -126 c 1
 748 -358 l 1
 696 -358 l 1
 782 -98 l 1
 727.333 -50 683.333 5.33333 650 68 c 1
 632.667 106.667 618.667 145.333 608 184 c 1
 600 237.333 595.333 292.667 594 350 c 1
 602 422 618 490 642 554 c 1
 679.333 620.667 728.667 681.333 790 736 c 1
 830 761.333 868 782 904 798 c 1
 945.333 810 987.333 816 1030 816 c 2
 1084 814 l 1
 1196 1142 l 1
1048 768 m 2
 985.333 761.333 928 744 876 716 c 1
 833.333 684 798 648.667 770 610 c 1
 740.667 554 718.667 498.667 704 444 c 1
 698.667 390.667 697.333 338 700 286 c 0
 702.667 243.333 712 195.333 728 142 c 1
 750.667 84.6667 778.667 36.6667 812 -2 c 1
 1068 768 l 1
 1048 768 l 2
EndSplineSet
EndChar
StartChar: uniFFE1
Encoding: 176 65505 177
OldEncoding: 33170
Width: 2048
VWidth: 1024
Flags: HW
Fore
1136 1492 m 1
 1209.33 1485.33 1277.33 1462.67 1340 1424 c 1
 1400 1368 1436 1309.33 1448 1248 c 1
 1445.33 1205.33 1436.67 1178.67 1422 1168 c 1
 1372 1168 l 1
 1358 1178 l 1
 1350 1202 1346 1222 1346 1238 c 0
 1347.33 1322 1326.67 1379.33 1284 1410 c 1
 1226.67 1431.33 1162.67 1440 1092 1436 c 1
 1029.33 1416 974 1386 926 1346 c 1
 892.667 1303.33 867.333 1258 850 1210 c 1
 839.333 1134 836 1050.67 840 960 c 1
 856 668 l 1
 1398 668 l 1
 1398 618 l 1
 854 618 l 1
 839.333 463.333 796 296 724 116 c 1
 798.667 62.6667 877.333 10.6667 960 -40 c 1
 1052 -84 1138.67 -114.667 1220 -132 c 1
 1265.33 -136 1306 -136.667 1342 -134 c 0
 1394 -131.333 1440 -120.667 1480 -102 c 0
 1516 -83.3333 1556.67 -51.3333 1602 -6 c 1
 1651.33 51.3333 1691.33 100.667 1722 142 c 1
 1748 118 l 1
 1717.33 56.6667 1684 -3.33333 1648 -62 c 1
 1618.67 -103.333 1586 -140 1550 -172 c 1
 1515.33 -198.667 1478.67 -218 1440 -230 c 0
 1410.67 -238 1377.33 -242 1340 -242 c 0
 1277.33 -242 1209.33 -233.333 1136 -216 c 1
 1066.67 -193.333 996 -159.333 924 -114 c 1
 854.667 -59.3333 779.333 8.66667 698 90 c 1
 662 34 618 -22.6667 566 -80 c 1
 510 -128 449.333 -153.333 384 -156 c 1
 346.667 -153.333 306.667 -141.333 264 -120 c 1
 209.333 -86.6667 170.667 -44 148 8 c 1
 148 44 158.667 82.6667 180 124 c 1
 221.333 165.333 261.333 196.667 300 218 c 1
 342.667 234 394 243.333 454 246 c 1
 516.667 227.333 571.333 204 618 176 c 0
 646 160 664 149.333 672 144 c 1
 729.333 310.667 758 468.667 758 618 c 1
 246 618 l 1
 246 668 l 1
 756 668 l 1
 750.667 772 748 876 748 980 c 0
 749.333 1060 758.667 1133.33 776 1200 c 1
 797.333 1249.33 824.667 1297.33 858 1344 c 1
 891.333 1380 929.333 1412.67 972 1442 c 1
 1014.67 1464.67 1055.33 1480 1094 1488 c 1
 1136 1492 l 1
436 198 m 1
 385.333 192.667 338.667 179.333 296 158 c 1
 269.333 138 245.333 117.333 224 96 c 1
 205.333 56 200 22 208 -6 c 1
 214.667 -19.3333 228 -35.3333 248 -54 c 1
 289.333 -79.3333 336.667 -96.6667 390 -106 c 1
 444.667 -100.667 494.667 -77.3333 540 -36 c 1
 576 9.33333 610.667 60.6667 644 118 c 1
 557.333 162 488 188.667 436 198 c 1
EndSplineSet
EndChar
StartChar: uniFF05
Encoding: 177 65285 178
OldEncoding: 33171
Width: 2048
VWidth: 1024
Flags: HW
Fore
1420 1542 m 1
 1472 1518 l 1
 572 -258 l 1
 520 -232 l 1
 1420 1542 l 1
538 1492 m 1
 595.333 1486.67 655.333 1466.67 718 1432 c 1
 752.667 1405.33 785.333 1372 816 1332 c 1
 861.333 1253.33 888 1179.33 896 1110 c 1
 894.667 1055.33 886 1002.67 870 952 c 1
 840.667 888 805.333 834.667 764 792 c 1
 702.667 740 632.667 706.667 554 692 c 1
 492.667 696 430 718.667 366 760 c 1
 323.333 797.333 290.667 832.667 268 866 c 1
 226.667 939.333 203.333 1018 198 1102 c 1
 204.667 1163.33 219.333 1220.67 242 1274 c 1
 276.667 1331.33 316.667 1380 362 1420 c 1
 418 1458.67 476.667 1482.67 538 1492 c 1
542 1466 m 1
 487.333 1455.33 432.667 1424.67 378 1374 c 1
 347.333 1332.67 320 1282.67 296 1224 c 1
 282.667 1160 276.667 1096.67 278 1034 c 1
 295.333 963.333 319.333 901.333 350 848 c 1
 396.667 792 444.667 752 494 728 c 1
 550 720 l 1
 592.667 725.333 629.333 739.333 660 762 c 0
 690.667 784.667 718.667 814 744 850 c 1
 784 924.667 808 1000 816 1076 c 1
 816 1120 810.667 1166.67 800 1216 c 1
 772 1288 740 1344 704 1384 c 1
 670.667 1416 635.333 1440.67 598 1458 c 1
 542 1466 l 1
1438 592 m 1
 1498 586.667 1552.67 570 1602 542 c 1
 1650 507.333 1696 458.667 1740 396 c 1
 1777.33 317.333 1795.33 240 1794 164 c 0
 1792.67 121.333 1783.33 82 1766 46 c 2
 1744 0 l 1
 1717.33 -45.3333 1682 -88.6667 1638 -130 c 1
 1610 -152.667 1576 -173.333 1536 -192 c 1
 1501.33 -201.333 1472.67 -206.667 1450 -208 c 1
 1387.33 -202.667 1329.33 -182.667 1276 -148 c 1
 1228 -106 l 1
 1188 -60.6667 1154 -10.6667 1126 44 c 1
 1106 108 1098 174 1102 242 c 1
 1108.67 286 1118 322 1130 350 c 1
 1159.33 407.333 1193.33 456.667 1232 498 c 1
 1302.67 550 1371.33 581.333 1438 592 c 1
1442 566 m 1
 1387.33 555.333 1332.67 524.667 1278 474 c 1
 1247.33 432.667 1220 382.667 1196 324 c 1
 1182.67 260 1176.67 196.667 1178 134 c 1
 1195.33 63.3333 1219.33 1.33333 1250 -52 c 1
 1296.67 -108 1344.67 -148 1394 -172 c 1
 1450 -180 l 1
 1492.67 -174.667 1529.33 -160.667 1560 -138 c 0
 1590.67 -115.333 1618.67 -86 1644 -50 c 1
 1684 24.6667 1708 100 1716 176 c 1
 1716 220 1710.67 266.667 1700 316 c 1
 1672 388 1640 444 1604 484 c 1
 1570.67 516 1535.33 540.667 1498 558 c 1
 1442 566 l 1
EndSplineSet
EndChar
StartChar: uniFF03
Encoding: 178 65283 179
OldEncoding: 33172
Width: 2048
VWidth: 1024
Flags: HW
Fore
596 1542 m 1
 648 1542 l 1
 578 1042 l 1
 1200 1042 l 1
 1270 1542 l 1
 1322 1542 l 1
 1252 1042 l 1
 1572 1042 l 1
 1556 944 l 1
 1544 892 l 1
 1232 894 l 1
 1162 392 l 1
 1472 392 l 1
 1448 242 l 1
 1142 242 l 1
 1072 -258 l 1
 1020 -258 l 1
 1090 242 l 1
 466 242 l 1
 398 -258 l 1
 346 -258 l 1
 414 242 l 1
 96 242 l 1
 112 340 l 1
 124 392 l 1
 436 392 l 1
 504 892 l 1
 196 892 l 1
 220 1042 l 1
 526 1042 l 1
 596 1542 l 1
558 892 m 1
 490 394 l 1
 1108 394 l 1
 1178 890 l 1
 558 892 l 1
EndSplineSet
EndChar
StartChar: uniFF06
Encoding: 179 65286 180
OldEncoding: 33173
Width: 2048
VWidth: 1024
Flags: HW
Fore
900 1530 m 1
 936 1527.33 970.667 1518 1004 1502 c 1
 1034.67 1480.67 1060 1455.33 1080 1426 c 0
 1109.33 1378 1132 1325.33 1148 1268 c 1
 1153.33 1185.33 1148 1108 1132 1036 c 1
 1106.67 972 1077.33 920.667 1044 882 c 1
 992 830 938.667 785.333 884 748 c 0
 840 720 795.333 694 750 670 c 1
 832.667 512.667 917.333 373.333 1004 252 c 1
 1054.67 185.333 1110.67 116.667 1172 46 c 1
 1282.67 247.333 1357.33 462.667 1396 692 c 1
 1246 692 l 1
 1246 742 l 1
 1598 742 l 1
 1598 692 l 1
 1448 692 l 1
 1400 444 1316.67 219.333 1198 18 c 1
 1259.33 -38 1314.67 -78 1364 -102 c 1
 1420 -116.667 1478.67 -121.333 1540 -116 c 1
 1576 -106.667 1612 -88 1648 -60 c 1
 1748 42 l 1
 1772 18 l 1
 1710.67 -74 1652 -137.333 1596 -172 c 1
 1525.33 -198.667 1452.67 -210 1378 -206 c 1
 1322 -192.667 1274.67 -172.667 1236 -146 c 1
 1148 -60 l 1
 1040 -149.333 949.333 -208.667 876 -238 c 1
 826.667 -255.333 764 -267.333 688 -274 c 1
 621.333 -274 556 -266.667 492 -252 c 1
 397.333 -213.333 321.333 -160 264 -92 c 1
 222.667 -17.3333 196.667 65.3333 186 156 c 1
 192.667 229.333 213.333 297.333 248 360 c 1
 280 397.333 316 433.333 356 468 c 1
 429.333 518.667 494 560 550 592 c 1
 646 642 l 1
 596.667 746 555.333 846 522 942 c 1
 510 990 502.667 1036.67 500 1082 c 0
 498.667 1124.67 502.667 1166.67 512 1208 c 1
 538.667 1278.67 580 1344 636 1404 c 1
 692 1450.67 750 1487.33 810 1514 c 1
 838 1522 868 1527.33 900 1530 c 1
892 1448 m 1
 853.333 1444 814 1430.67 774 1408 c 1
 743.333 1386.67 712.667 1362 682 1334 c 1
 642 1280.67 613.333 1222 596 1158 c 1
 593.333 1066 612.667 961.333 654 844 c 1
 722 696 l 1
 795.333 740 861.333 785.333 920 832 c 1
 973.333 881.333 1012.67 930.667 1038 980 c 1
 1062 1040 1076 1098 1080 1154 c 1
 1080 1198 1075.33 1239.33 1066 1278 c 1
 1046 1332.67 1026 1371.33 1006 1394 c 0
 984.667 1418 958 1434.67 926 1444 c 1
 892 1448 l 1
668 614 m 2
 582.667 560.667 506 508 438 456 c 1
 376.667 392 333.333 330.667 308 272 c 1
 297.333 205.333 293.333 147.333 296 98 c 1
 302.667 51.3333 323.333 -2 358 -62 c 1
 392.667 -103.333 435.333 -137.333 486 -164 c 1
 544.667 -185.333 601.333 -196.667 656 -198 c 0
 746.667 -198 823.333 -188 886 -168 c 0
 931.333 -153.333 974 -132 1014 -104 c 1
 1055.33 -78.6667 1090 -54.6667 1118 -32 c 1
 944.667 177.333 795.333 392.667 670 614 c 1
 668 614 l 2
EndSplineSet
EndChar
StartChar: uniFF0A
Encoding: 180 65290 181
OldEncoding: 33174
Width: 2048
VWidth: 1024
Flags: HW
Fore
968 1492 m 1
 1017.33 1492 1054.67 1483.33 1080 1466 c 1
 1101.33 1432.67 1113.33 1387.33 1116 1330 c 1
 1109.33 1242 1094 1150.67 1070 1056 c 1
 1047.33 936 1032 815.333 1024 694 c 1
 1081.33 726 1141.33 764 1204 808 c 1
 1478 1054 l 1
 1542 1100.67 1602 1124 1658 1124 c 1
 1679.33 1113.33 1694 1100.67 1702 1086 c 0
 1720.67 1051.33 1728 1026.67 1724 1012 c 1
 1726.67 982.667 1716 952.667 1692 922 c 1
 1657.33 890 1620.67 865.333 1582 848 c 1
 1350 760 l 1
 1247.33 724 1147.33 684.667 1050 642 c 1
 1179.33 586 1321.33 532.667 1476 482 c 1
 1542.67 456.667 1605.33 425.333 1664 388 c 1
 1690.67 365.333 1710.67 338.667 1724 308 c 1
 1725.33 268 1718 231.333 1702 198 c 1
 1679.33 170 1648.67 156.667 1610 158 c 1
 1574 168.667 1539.33 186 1506 210 c 0
 1460.67 244.667 1411.33 287.333 1358 338 c 0
 1282 411.333 1212 470.667 1148 516 c 1
 1104 544 1062 568 1022 588 c 1
 1032.67 450.667 1053.33 312 1084 172 c 0
 1098.67 104 1108.67 40.6667 1114 -18 c 0
 1116.67 -67.3333 1112.67 -110.667 1102 -148 c 1
 1086 -177.333 1067.33 -195.333 1046 -202 c 0
 1024.67 -207.333 998 -208.667 966 -206 c 0
 940.667 -202 918.667 -188.667 900 -166 c 1
 889.333 -144.667 881.333 -112.667 876 -70 c 1
 881.333 8.66667 890.667 82 904 150 c 1
 941.333 311.333 962.667 457.333 968 588 c 1
 544 214 l 1
 480 172.667 420 154 364 158 c 1
 318 194 l 1
 303.333 220.667 294.667 256 292 300 c 1
 314.667 349.333 377.333 399.333 480 450 c 1
 696 524 l 1
 788 558.667 870.667 598 944 642 c 1
 892 671.333 830.667 702.667 760 736 c 1
 696 760 630.667 782.667 564 804 c 1
 436 852 350 901.333 306 952 c 1
 295.333 978.667 291.333 1000 294 1016 c 0
 295.333 1037.33 303.333 1062 318 1090 c 1
 340.667 1112.67 364.667 1126 390 1130 c 0
 411.333 1131.33 436 1126.67 464 1116 c 1
 514.667 1089.33 552 1065.33 576 1044 c 0
 625.333 1004 683.333 952 750 888 c 0
 824.667 817.333 898 753.333 970 696 c 1
 963.333 817.333 947.333 936 922 1052 c 0
 894 1178.67 878.667 1281.33 876 1360 c 1
 884 1416 899.333 1454 922 1474 c 1
 968 1492 l 1
EndSplineSet
EndChar
StartChar: uniFF20
Encoding: 181 65312 182
OldEncoding: 33175
Width: 2048
VWidth: 1024
Flags: HW
Fore
1086 1486 m 1
 1147.33 1484.67 1209.33 1478 1272 1466 c 1
 1336 1446 1397.33 1418 1456 1382 c 1
 1506.67 1344.67 1555.33 1296.67 1602 1238 c 1
 1644.67 1167.33 1675.33 1099.33 1694 1034 c 1
 1704.67 972.667 1706.67 906.667 1700 836 c 1
 1684 754.667 1653.33 674 1608 594 c 1
 1573.33 544.667 1534.67 501.333 1492 464 c 1
 1444 433.333 1392 418.667 1336 420 c 1
 1309.33 424 1288.67 432 1274 444 c 1
 1239.33 464 1203.33 491.333 1166 526 c 2
 1122 566 l 1
 994 410 l 1
 952.667 370 918.667 346.667 892 340 c 1
 852 340 818 356 790 388 c 1
 766 425.333 746.667 466 732 510 c 1
 724 551.333 722 602.667 726 664 c 1
 734 697.333 750.667 735.333 776 778 c 1
 796 802 826 833.333 866 872 c 1
 922 910.667 966.667 934.667 1000 944 c 1
 1048 942.667 1096.67 910 1146 846 c 1
 1220 1092 l 1
 1298 1092 l 1
 1198 676 l 1
 1198 616 1205.33 572.667 1220 546 c 1
 1238.67 522 1258.67 504 1280 492 c 1
 1324 474.667 1366.67 467.333 1408 470 c 1
 1465.33 487.333 1520.67 526.667 1574 588 c 1
 1612.67 649.333 1643.33 716.667 1666 790 c 1
 1674 855.333 1674.67 921.333 1668 988 c 1
 1654.67 1046.67 1627.33 1111.33 1586 1182 c 1
 1538 1242 1484 1294 1424 1338 c 1
 1334.67 1384.67 1236 1414.67 1128 1428 c 1
 1057.33 1428 989.333 1421.33 924 1408 c 0
 868 1394.67 800.667 1370 722 1334 c 1
 671.333 1302 627.333 1271.33 590 1242 c 1
 508.667 1159.33 442 1066.67 390 964 c 1
 355.333 865.333 333.333 767.333 324 670 c 1
 324 562 338 460.667 366 366 c 1
 392.667 300.667 422.667 240.667 456 186 c 1
 510.667 118 570 62 634 18 c 1
 695.333 -14 762 -40 834 -60 c 1
 918 -74.6667 1008.67 -78 1106 -70 c 1
 1198 -55.3333 1284 -27.3333 1364 14 c 1
 1424 54 1470 92 1502 128 c 1
 1564.67 208 1620.67 294 1670 386 c 0
 1696.67 436.667 1722 488.667 1746 542 c 1
 1772 542 l 1
 1632 258 l 1
 1573.33 164.667 1509.33 86.6667 1440 24 c 1
 1356 -34.6667 1262.67 -77.3333 1160 -104 c 1
 1062.67 -117.333 960 -119.333 852 -110 c 1
 749.333 -88.6667 654 -54 566 -6 c 1
 496.667 43.3333 432 105.333 372 180 c 1
 320 261.333 276.667 352 242 452 c 1
 227.333 536 222.667 628 228 728 c 1
 236 782.667 250.667 844.667 272 914 c 1
 316 1007.33 371.333 1095.33 438 1178 c 1
 474 1216.67 518 1257.33 570 1300 c 1
 678 1370.67 792 1425.33 912 1464 c 1
 962.667 1472 1020.67 1479.33 1086 1486 c 1
1042 890 m 1
 1006 883.333 972 866.667 940 840 c 1
 908 808 877.333 772 848 732 c 1
 820 673.333 804 615.333 800 558 c 1
 801.333 516.667 806.667 480 816 448 c 1
 830.667 410.667 851.333 388.667 878 382 c 1
 918 387.333 963.333 416 1014 468 c 1
 1063.33 541.333 1094.67 613.333 1108 684 c 1
 1110.67 729.333 1110 770.667 1106 808 c 1
 1099.33 833.333 1088.67 856 1074 876 c 1
 1042 890 l 1
EndSplineSet
EndChar
StartChar: section
Encoding: 182 167 183
OldEncoding: 33176
Width: 2048
VWidth: 1024
Flags: HW
Fore
1044 1494 m 1
 1106.67 1492.67 1164 1484 1216 1468 c 1
 1252 1450.67 1284 1430 1312 1406 c 1
 1336 1368.67 1353.33 1332.67 1364 1298 c 0
 1378.67 1247.33 1381.33 1212 1372 1192 c 1
 1349.33 1178.67 1320 1175.33 1284 1182 c 1
 1270.67 1192.67 1266 1221.33 1270 1268 c 1
 1268.67 1316 1256 1354.67 1232 1384 c 1
 1194.67 1413.33 1155.33 1432.67 1114 1442 c 1
 1071.33 1443.33 1030 1442.67 990 1440 c 1
 948.667 1430.67 908 1414 868 1390 c 1
 832 1354 803.333 1314.67 782 1272 c 1
 771.333 1230.67 767.333 1195.33 770 1166 c 0
 775.333 1127.33 790 1095.33 814 1070 c 1
 855.333 1035.33 912 1002 984 970 c 0
 1089.33 924.667 1174 883.333 1238 846 c 1
 1295.33 798 1338.67 749.333 1368 700 c 1
 1386.67 656 1396.67 605.333 1398 548 c 1
 1378 474.667 1329.33 402 1252 330 c 0
 1234.67 315.333 1208 294.667 1172 268 c 1
 1208 246.667 1238.67 226 1264 206 c 1
 1320 151.333 1348 94 1348 34 c 1
 1337.33 -6 1318 -46.6667 1290 -88 c 1
 1244.67 -136 1190 -171.333 1126 -194 c 1
 1047.33 -204.667 969.333 -207.333 892 -202 c 0
 833.333 -196.667 776 -180.667 720 -154 c 1
 678.667 -118 647.333 -67.3333 626 -2 c 1
 612.667 56.6667 621.333 93.3333 652 108 c 1
 689.333 108 712 103.333 720 94 c 1
 726.667 78 728.667 61.3333 726 44 c 1
 724 -8 l 1
 725.333 -30.6667 732 -54 744 -78 c 1
 777.333 -115.333 829.333 -142 900 -158 c 1
 942.667 -159.333 983.333 -158 1022 -154 c 0
 1052.67 -151.333 1076 -144.667 1092 -134 c 1
 1109.33 -130 1128.67 -119.333 1150 -102 c 1
 1190 -52 l 1
 1207.33 -18.6667 1218 20 1222 64 c 1
 1218 105.333 1201.33 142 1172 174 c 1
 1116 211.333 1050.67 244 976 272 c 0
 876 308 784 351.333 700 402 c 1
 657.333 435.333 622.667 472.667 596 514 c 1
 574.667 562 569.333 623.333 580 698 c 1
 609.333 770 657.333 836.667 724 898 c 1
 820 968 l 1
 757.333 1006.67 706 1048.67 666 1094 c 1
 651.333 1123.33 646.667 1162.67 652 1212 c 1
 658.667 1237.33 672.667 1268.67 694 1306 c 1
 734 1354 776 1396 820 1432 c 1
 884 1465.33 958.667 1486 1044 1494 c 1
848 940 m 1
 776 872 724 818 692 778 c 1
 665.333 735.333 651.333 689.333 650 640 c 1
 664.667 600 686 566.667 714 540 c 1
 786 478.667 930 396.667 1146 294 c 1
 1222 378 1275.33 442.667 1306 488 c 1
 1334 540 1344 592 1336 644 c 1
 1318.67 678.667 1290 713.333 1250 748 c 1
 1170 796 1083.33 841.333 990 884 c 1
 958 894.667 924.667 908 890 924 c 1
 848 938 l 1
 848 940 l 1
EndSplineSet
EndChar
StartChar: uni2606
Encoding: 183 9734 184
OldEncoding: 33177
Width: 2048
VWidth: 1024
Flags: HW
Fore
996 1542 m 1
 998 1542 l 1
 1250 892 l 1
 1848 892 l 1
 1374 488 l 1
 1598 -208 l 1
 996 216 l 1
 396 -208 l 1
 620 492 l 1
 146 892 l 1
 746 894 l 1
 996 1542 l 1
996 1334 m 1
 800 816 l 1
 352 816 l 1
 700 518 l 1
 526 -26 l 1
 998 294 l 1
 1466 -26 l 1
 1294 518 l 1
 1642 816 l 1
 1194 816 l 1
 998 1334 l 1
 996 1334 l 1
EndSplineSet
EndChar
StartChar: uni2605
Encoding: 184 9733 185
OldEncoding: 33178
Width: 2048
VWidth: 1024
Flags: HW
Fore
996 1542 m 1
 998 1542 l 1
 1250 892 l 1
 1848 892 l 1
 1374 488 l 1
 1598 -208 l 1
 996 216 l 1
 396 -208 l 1
 620 492 l 1
 146 892 l 1
 746 894 l 1
 996 1542 l 1
EndSplineSet
EndChar
StartChar: circle
Encoding: 185 9675 186
OldEncoding: 33179
Width: 2048
VWidth: 1024
Flags: HW
Fore
984 1542 m 1
 1046.67 1540.67 1108 1534 1168 1522 c 1
 1262.67 1492.67 1356.67 1451.33 1450 1398 c 1
 1556.67 1316.67 1656 1218 1748 1102 c 1
 1801.33 1011.33 1844 916.667 1876 818 c 1
 1889.33 756.667 1896 688.667 1896 614 c 1
 1890.67 539.333 1878.67 472.667 1860 414 c 0
 1841.33 355.333 1808.67 286 1762 206 c 1
 1714 134 1660 68 1600 8 c 1
 1528 -56 1454 -110 1378 -154 c 1
 1270 -208.667 1147.33 -243.333 1010 -258 c 1
 912.667 -252.667 818.667 -235.333 728 -206 c 1
 637.333 -166 552.667 -118 474 -62 c 1
 392.667 8.66667 324.667 79.3333 270 150 c 1
 222 218 176.667 303.333 134 406 c 1
 119.333 459.333 107.333 517.333 98 580 c 1
 98 686.667 110.667 786 136 878 c 1
 174.667 975.333 221.333 1063.33 276 1142 c 1
 304 1179.33 343.333 1224 394 1276 c 1
 462 1336 536.667 1391.33 618 1442 c 1
 740.667 1495.33 862.667 1528.67 984 1542 c 1
980 1466 m 1
 880 1455.33 778 1428.67 674 1386 c 1
 619.333 1355.33 564 1319.33 508 1278 c 1
 449.333 1227.33 392.667 1168.67 338 1102 c 1
 302 1048.67 265.333 985.333 228 912 c 1
 206.667 846.667 190 781.333 178 716 c 1
 175.333 608 188 505.333 216 408 c 1
 258.667 309.333 309.333 222.667 368 148 c 0
 400 108 439.333 66.6667 486 24 c 1
 563.333 -36 644 -86 728 -126 c 1
 826.667 -159.333 922 -177.333 1014 -180 c 1
 1103.33 -174.667 1197.33 -151.333 1296 -110 c 1
 1389.33 -63.3333 1478.67 1.27157e-06 1564 80 c 1
 1608 124 1650.67 177.333 1692 240 c 1
 1740 324 1776.67 409.333 1802 496 c 1
 1814 566.667 1818 636 1814 704 c 1
 1799.33 804 1768.67 902 1722 998 c 1
 1668.67 1083.33 1607.33 1161.33 1538 1232 c 1
 1466 1293.33 1396 1342.67 1328 1380 c 1
 1262.67 1412 1183.33 1438.67 1090 1460 c 1
 980 1466 l 1
EndSplineSet
EndChar
StartChar: H18533
Encoding: 186 9679 187
OldEncoding: 33180
Width: 2048
VWidth: 1024
Flags: HW
Fore
984 1542 m 1
 1046.67 1540.67 1108 1534 1168 1522 c 1
 1262.67 1492.67 1356.67 1451.33 1450 1398 c 1
 1556.67 1316.67 1656 1218 1748 1102 c 1
 1801.33 1011.33 1844 916.667 1876 818 c 1
 1889.33 756.667 1896 688.667 1896 614 c 1
 1890.67 539.333 1878.67 472.667 1860 414 c 0
 1841.33 355.333 1808.67 286 1762 206 c 1
 1714 134 1660 68 1600 8 c 1
 1528 -56 1454 -110 1378 -154 c 1
 1270 -208.667 1147.33 -243.333 1010 -258 c 1
 912.667 -252.667 818.667 -235.333 728 -206 c 1
 637.333 -166 552.667 -118 474 -62 c 1
 392.667 8.66667 324.667 79.3333 270 150 c 1
 222 218 176.667 303.333 134 406 c 1
 119.333 459.333 107.333 517.333 98 580 c 1
 98 686.667 110.667 786 136 878 c 1
 174.667 975.333 221.333 1063.33 276 1142 c 1
 304 1179.33 343.333 1224 394 1276 c 1
 462 1336 536.667 1391.33 618 1442 c 1
 740.667 1495.33 862.667 1528.67 984 1542 c 1
EndSplineSet
EndChar
StartChar: uni25CE
Encoding: 187 9678 188
OldEncoding: 33181
Width: 2048
VWidth: 1024
Flags: HW
Fore
984 1542 m 1
 1046.67 1540.67 1108 1534 1168 1522 c 1
 1262.67 1492.67 1356.67 1451.33 1450 1398 c 1
 1556.67 1316.67 1656 1218 1748 1102 c 1
 1801.33 1011.33 1844 916.667 1876 818 c 1
 1889.33 756.667 1896 688.667 1896 614 c 1
 1890.67 539.333 1878.67 472.667 1860 414 c 0
 1841.33 355.333 1808.67 286 1762 206 c 1
 1714 134 1660 68 1600 8 c 1
 1528 -56 1454 -110 1378 -154 c 1
 1270 -208.667 1147.33 -243.333 1010 -258 c 1
 912.667 -252.667 818.667 -235.333 728 -206 c 1
 637.333 -166 552.667 -118 474 -62 c 1
 392.667 8.66667 324.667 79.3333 270 150 c 1
 222 218 176.667 303.333 134 406 c 1
 119.333 459.333 107.333 517.333 98 580 c 1
 98 686.667 110.667 786 136 878 c 1
 174.667 975.333 221.333 1063.33 276 1142 c 1
 304 1179.33 343.333 1224 394 1276 c 1
 462 1336 536.667 1391.33 618 1442 c 1
 740.667 1495.33 862.667 1528.67 984 1542 c 1
980 1466 m 1
 880 1455.33 778 1428.67 674 1386 c 1
 619.333 1355.33 564 1319.33 508 1278 c 1
 449.333 1227.33 392.667 1168.67 338 1102 c 1
 302 1048.67 265.333 985.333 228 912 c 1
 206.667 846.667 190 781.333 178 716 c 1
 175.333 608 188 505.333 216 408 c 1
 258.667 309.333 309.333 222.667 368 148 c 0
 400 108 439.333 66.6667 486 24 c 1
 563.333 -36 644 -86 728 -126 c 1
 826.667 -159.333 922 -177.333 1014 -180 c 1
 1103.33 -174.667 1197.33 -151.333 1296 -110 c 1
 1389.33 -63.3333 1478.67 1.27157e-06 1564 80 c 1
 1608 124 1650.67 177.333 1692 240 c 1
 1740 324 1776.67 409.333 1802 496 c 1
 1814 566.667 1818 636 1814 704 c 1
 1799.33 804 1768.67 902 1722 998 c 1
 1668.67 1083.33 1607.33 1161.33 1538 1232 c 1
 1466 1293.33 1396 1342.67 1328 1380 c 1
 1262.67 1412 1183.33 1438.67 1090 1460 c 1
 980 1466 l 1
982 1268 m 1
 1040.67 1265.33 1096.67 1257.33 1150 1244 c 1
 1195.33 1228 1236 1210.67 1272 1192 c 1
 1360 1134.67 1442.67 1057.33 1520 960 c 1
 1556 897.333 1584.67 834 1606 770 c 1
 1618 707.333 1621.33 642.667 1616 576 c 1
 1602.67 500 1576 425.333 1536 352 c 1
 1502.67 297.333 1463.33 248 1418 204 c 1
 1364.67 156 1305.33 114 1240 78 c 1
 1169.33 46 1092 26 1008 18 c 1
 909.333 23.3333 812.667 49.3333 718 96 c 1
 664.667 128 610.667 170 556 222 c 1
 493.333 295.333 440.667 379.333 398 474 c 1
 382 534 373.333 598 372 666 c 1
 380 747.333 405.333 832 448 920 c 1
 502.667 1001.33 570.667 1076.67 652 1146 c 1
 689.333 1171.33 736 1198 792 1226 c 1
 857.333 1248.67 920.667 1262.67 982 1268 c 1
974 1190 m 1
 887.333 1178 796.667 1144.67 702 1090 c 1
 636.667 1035.33 580.667 976.667 534 914 c 1
 506 862 482 804.667 462 742 c 1
 451.333 643.333 458.667 552 484 468 c 1
 512 408 543.333 356.667 578 314 c 0
 600.667 283.333 627.333 256 658 232 c 0
 712.667 188 768.667 153.333 826 128 c 1
 895.333 108 959.333 97.3333 1018 96 c 1
 1098 104 1184.67 134 1278 186 c 1
 1340.67 234 1390.67 281.333 1428 328 c 1
 1472 390.667 1504 453.333 1524 516 c 1
 1538.67 578.667 1544 639.333 1540 698 c 1
 1533.33 742 1520 788.667 1500 838 c 1
 1469.33 895.333 1437.33 944 1404 984 c 1
 1361.33 1029.33 1320.67 1066 1282 1094 c 1
 1234 1122 l 2
 1195.33 1143.33 1158 1159.33 1122 1170 c 1
 1075.33 1180.67 1026 1187.33 974 1190 c 1
EndSplineSet
EndChar
StartChar: uni25C7
Encoding: 188 9671 189
OldEncoding: 33182
Width: 2048
VWidth: 1024
Flags: HW
Fore
996 1640 m 1
 998 1640 l 1
 1998 642 l 1
 996 -358 l 1
 0 644 l 1
 996 1640 l 1
996 1538 m 1
 102 644 l 1
 996 -254 l 1
 1894 642 l 1
 998 1538 l 1
 996 1538 l 1
EndSplineSet
EndChar
StartChar: uni25C6
Encoding: 189 9670 190
OldEncoding: 33183
Width: 2048
VWidth: 1024
Flags: HW
Fore
996 1640 m 1
 998 1640 l 1
 1998 642 l 1
 996 -358 l 1
 0 644 l 1
 996 1640 l 1
EndSplineSet
EndChar
StartChar: H22073
Encoding: 190 9633 191
OldEncoding: 33184
Width: 2048
VWidth: 1024
Flags: HW
Fore
96 1542 m 1
 1898 1542 l 1
 1898 -258 l 1
 96 -258 l 1
 96 1542 l 1
200 1440 m 1
 200 -156 l 1
 1794 -156 l 1
 1794 1440 l 1
 200 1440 l 1
EndSplineSet
EndChar
StartChar: filledbox
Encoding: 191 9632 192
OldEncoding: 33185
Width: 2048
VWidth: 1024
Flags: HW
Fore
96 1542 m 1
 1898 1542 l 1
 1898 -258 l 1
 96 -258 l 1
 96 1542 l 1
EndSplineSet
EndChar
StartChar: uni25B3
Encoding: 192 9651 193
OldEncoding: 33186
Width: 2048
VWidth: 1024
Flags: HW
Fore
996 1342 m 1
 1944 -58 l 1
 48 -54 l 1
 996 1342 l 1
996 1136 m 1
 252 44 l 1
 1742 44 l 1
 998 1136 l 1
 996 1136 l 1
EndSplineSet
EndChar
StartChar: triagup
Encoding: 193 9650 194
OldEncoding: 33187
Width: 2048
VWidth: 1024
Flags: HW
Fore
996 1342 m 1
 1944 -58 l 1
 48 -54 l 1
 996 1342 l 1
EndSplineSet
EndChar
StartChar: uni25BD
Encoding: 194 9661 195
OldEncoding: 33188
Width: 2048
VWidth: 1024
Flags: HW
Fore
46 1342 m 1
 1946 1338 l 1
 998 -58 l 1
 46 1342 l 1
252 1240 m 1
 996 148 l 1
 1742 1240 l 1
 252 1240 l 1
EndSplineSet
EndChar
StartChar: triagdn
Encoding: 195 9660 196
OldEncoding: 33189
Width: 2048
VWidth: 1024
Flags: HW
Fore
46 1342 m 1
 1946 1338 l 1
 998 -58 l 1
 46 1342 l 1
EndSplineSet
EndChar
StartChar: uni203B
Encoding: 196 8251 197
OldEncoding: 33190
Width: 2048
VWidth: 1024
Flags: HW
Fore
246 1492 m 1
 248 1492 l 1
 998 744 l 1
 1748 1492 l 1
 1848 1392 l 1
 1098 642 l 1
 1848 -108 l 1
 1746 -208 l 1
 996 540 l 1
 246 -208 l 1
 146 -108 l 1
 896 642 l 1
 146 1392 l 1
 246 1492 l 1
984 1492 m 1
 1034.67 1486.67 1077.33 1466.67 1112 1432 c 1
 1129.33 1406.67 1141.33 1376 1148 1340 c 1
 1142.67 1309.33 1134 1284 1122 1264 c 1
 1094 1230.67 1062.67 1208 1028 1196 c 1
 1008 1194 l 1
 982 1194 l 1
 956.667 1198 932 1208.67 908 1226 c 1
 882.667 1250 864 1276.67 852 1306 c 1
 846.667 1343.33 852.667 1382 870 1422 c 1
 895.333 1448.67 918.667 1468 940 1480 c 1
 984 1492 l 1
284 792 m 1
 328 789.333 366 774.667 398 748 c 1
 426 712 442.667 676 448 640 c 1
 440 596 423.333 561.333 398 536 c 1
 374 517.333 350.667 504 328 496 c 1
 308 494 l 2
 285.333 491.333 255.333 499.333 218 518 c 1
 188.667 542 166 572 150 608 c 1
 147.333 657.333 164 706 200 754 c 1
 230.667 774 258.667 786.667 284 792 c 1
1690 792 m 1
 1711.33 792 1738.67 784.667 1772 770 c 1
 1806.67 739.333 1830.67 705.333 1844 668 c 1
 1848 644 1845.33 619.333 1836 594 c 0
 1824 566 1804 540.667 1776 518 c 1
 1749.33 503.333 1724.67 494.667 1702 492 c 1
 1663.33 494.667 1624 513.333 1584 548 c 1
 1565.33 574.667 1552.67 607.333 1546 646 c 1
 1547.33 667.333 1555.33 692 1570 720 c 1
 1606 757.333 1646 781.333 1690 792 c 1
990 92 m 1
 1034 89.3333 1077.33 66.6667 1120 24 c 1
 1144 -28 1148.67 -73.3333 1134 -112 c 1
 1116.67 -145.333 1090 -172.667 1054 -194 c 1
 1030 -203.333 1013.33 -208 1004 -208 c 0
 981.333 -208 952 -199.333 916 -182 c 1
 878.667 -146 856 -112.667 848 -82 c 1
 846.667 -62 849.333 -37.3333 856 -8 c 1
 873.333 22.6667 899.333 50.6667 934 76 c 1
 963.333 85.3333 982 90.6667 990 92 c 1
EndSplineSet
EndChar
StartChar: uni3012
Encoding: 197 12306 198
OldEncoding: 33191
Width: 2048
VWidth: 1024
Flags: HW
Fore
246 1442 m 1
 1748 1442 l 1
 1748 1292 l 1
 246 1292 l 1
 246 1442 l 1
246 992 m 1
 1748 992 l 1
 1748 842 l 1
 1072 842 l 1
 1072 -158 l 1
 920 -158 l 1
 920 842 l 1
 246 842 l 1
 246 992 l 1
EndSplineSet
EndChar
StartChar: arrowright
Encoding: 198 8594 199
OldEncoding: 33192
Width: 2048
VWidth: 1024
Flags: HW
Fore
1346 942 m 1
 2000 642 l 1
 1346 342 l 1
 1494 592 l 1
 0 592 l 1
 0 692 l 1
 1494 694 l 1
 1346 942 l 1
EndSplineSet
EndChar
StartChar: arrowleft
Encoding: 199 8592 200
OldEncoding: 33193
Width: 2048
VWidth: 1024
Flags: HW
Fore
644 942 m 1
 648 942 l 1
 500 692 l 1
 1998 692 l 1
 1998 592 l 1
 500 590 l 1
 648 342 l 1
 0 642 l 1
 644 942 l 1
EndSplineSet
EndChar
StartChar: arrowup
Encoding: 200 8593 201
OldEncoding: 33194
Width: 2048
VWidth: 1024
Flags: HW
Fore
996 1640 m 1
 998 1640 l 1
 1298 992 l 1
 1048 1142 l 1
 1048 -358 l 1
 946 -358 l 1
 944 1140 l 1
 696 992 l 1
 996 1640 l 1
EndSplineSet
EndChar
StartChar: arrowdown
Encoding: 201 8595 202
OldEncoding: 33195
Width: 2048
VWidth: 1024
Flags: HW
Fore
946 1640 m 1
 1048 1640 l 1
 1050 144 l 1
 1298 292 l 1
 996 -358 l 1
 696 292 l 1
 946 142 l 1
 946 1640 l 1
EndSplineSet
EndChar
StartChar: uni3013
Encoding: 202 12307 203
OldEncoding: 33196
Width: 2048
VWidth: 1024
Flags: HW
Fore
196 1192 m 1
 1798 1192 l 1
 1798 892 l 1
 196 892 l 1
 196 1192 l 1
196 392 m 1
 1798 392 l 1
 1798 92 l 1
 196 92 l 1
 196 392 l 1
EndSplineSet
EndChar
StartChar: nounicode-3-2-81ad
Encoding: 203 -1 204
OldEncoding: 33197
Width: 2048
VWidth: 1024
Flags: HW
Fore
2 2 m 0
EndSplineSet
EndChar
StartChar: nounicode-3-2-81ae
Encoding: 204 -1 205
OldEncoding: 33198
Width: 2048
VWidth: 1024
Flags: HW
Fore
2 2 m 0
EndSplineSet
EndChar
StartChar: nounicode-3-2-81af
Encoding: 205 -1 206
OldEncoding: 33199
Width: 2048
VWidth: 1024
Flags: HW
Fore
2 2 m 0
EndSplineSet
EndChar
StartChar: nounicode-3-2-81b0
Encoding: 206 -1 207
OldEncoding: 33200
Width: 2048
VWidth: 1024
Flags: HW
Fore
2 2 m 0
EndSplineSet
EndChar
StartChar: nounicode-3-2-81b1
Encoding: 207 -1 208
OldEncoding: 33201
Width: 2048
VWidth: 1024
Flags: HW
Fore
2 2 m 0
EndSplineSet
EndChar
StartChar: nounicode-3-2-81b2
Encoding: 208 -1 209
OldEncoding: 33202
Width: 2048
VWidth: 1024
Flags: HW
Fore
2 2 m 0
EndSplineSet
EndChar
StartChar: nounicode-3-2-81b3
Encoding: 209 -1 210
OldEncoding: 33203
Width: 2048
VWidth: 1024
Flags: HW
Fore
2 2 m 0
EndSplineSet
EndChar
StartChar: nounicode-3-2-81b4
Encoding: 210 -1 211
OldEncoding: 33204
Width: 2048
VWidth: 1024
Flags: HW
Fore
2 2 m 0
EndSplineSet
EndChar
StartChar: nounicode-3-2-81b5
Encoding: 211 -1 212
OldEncoding: 33205
Width: 2048
VWidth: 1024
Flags: HW
Fore
2 2 m 0
EndSplineSet
EndChar
StartChar: nounicode-3-2-81b6
Encoding: 212 -1 213
OldEncoding: 33206
Width: 2048
VWidth: 1024
Flags: HW
Fore
2 2 m 0
EndSplineSet
EndChar
StartChar: nounicode-3-2-81b7
Encoding: 213 -1 214
OldEncoding: 33207
Width: 2048
VWidth: 1024
Flags: HW
Fore
2 2 m 0
EndSplineSet
EndChar
StartChar: element
Encoding: 214 8712 215
OldEncoding: 33208
Width: 2048
VWidth: 1024
Flags: HW
Fore
612 1418 m 1
 1678 1418 l 1
 1678 1306 l 1
 986 1306 l 1
 700 1306 l 2
 681.333 1306 658 1299.33 630 1286 c 2
 448 1194 l 2
 405.333 1171.33 363.333 1139.33 322 1098 c 1
 299.333 1052.67 282 1012 270 976 c 1
 222 802 l 1
 1678 802 l 1
 1678 690 l 1
 224 686 l 1
 278 496 l 2
 287.333 462.667 297.333 438 308 422 c 2
 346 370 l 1
 382 336.667 418.667 310.667 456 292 c 2
 664 188 l 1
 1678 186 l 1
 1678 74 l 1
 614 74 l 1
 418 170 l 2
 352.667 203.333 294 251.333 242 314 c 1
 136 522 l 1
 110 574 l 1
 108 860 l 1
 108 894.667 114 925.333 126 952 c 1
 218 1134 l 1
 240.667 1176.67 272.667 1218.67 314 1260 c 1
 352.667 1284 391.333 1306 430 1326 c 2
 612 1418 l 1
EndSplineSet
EndChar
StartChar: suchthat
Encoding: 215 8715 216
OldEncoding: 33209
Width: 2048
VWidth: 1024
Flags: HW
Fore
108 1418 m 1
 1170 1418 l 1
 1374 1318 l 2
 1427.33 1291.33 1467.33 1264.67 1494 1238 c 0
 1527.33 1202 1553.33 1165.33 1572 1128 c 2
 1676 920 l 1
 1678 608 l 1
 1678 588 1671.33 564.667 1658 538 c 2
 1554 330 l 1
 1534 296.667 1514.67 272 1496 256 c 0
 1461.33 222.667 1423.33 196.667 1382 178 c 1
 1174 74 l 1
 108 74 l 1
 108 186 l 1
 802 186 l 1
 1088 186 l 2
 1108 184.667 1138.67 195.333 1180 218 c 1
 1316 282 1410 340 1462 392 c 1
 1487.33 436 1507.33 483.333 1522 534 c 0
 1542 598 1556 650 1564 690 c 1
 108 690 l 1
 108 802 l 1
 1564 802 l 1
 1540 902 1508.67 998 1470 1090 c 1
 1423.33 1139.33 1358.67 1184.67 1276 1226 c 2
 1146 1290 l 2
 1126 1300.67 1100.67 1306 1070 1306 c 2
 108 1306 l 1
 108 1418 l 1
EndSplineSet
EndChar
StartChar: reflexsubset
Encoding: 216 8838 217
OldEncoding: 33210
Width: 2048
VWidth: 1024
Flags: HW
Fore
556 1474 m 1
 1678 1474 l 1
 1678 1362 l 1
 618 1362 l 1
 422 1266 l 1
 403.333 1255.33 374 1249.33 334 1248 c 1
 334 1206.67 331.333 1183.33 326 1178 c 1
 234 996 l 1
 222 944 l 1
 222 924 232.667 893.333 254 852 c 2
 332 696 l 1
 333.333 672 334 651.333 334 634 c 1
 375.333 634 398.667 631.333 404 626 c 1
 612 522 l 1
 1678 522 l 1
 1676 410 l 1
 610 410 l 2
 570 408.667 530.667 419.333 492 442 c 1
 422.667 475.333 354 510.667 286 548 c 1
 264.667 564 245.333 588 228 620 c 1
 124 828 l 1
 113.333 845.333 108 876 108 920 c 2
 108 1024 l 1
 244 1294 l 1
 257.333 1312.67 283.333 1333.33 322 1356 c 1
 556 1474 l 1
108 186 m 1
 1678 186 l 1
 1678 74 l 1
 108 74 l 1
 108 186 l 1
EndSplineSet
EndChar
StartChar: reflexsuperset
Encoding: 217 8839 218
OldEncoding: 33211
Width: 2048
VWidth: 1024
Flags: HW
Fore
108 1474 m 1
 1174 1474 l 2
 1215.33 1474 1240 1470.67 1248 1464 c 1
 1456 1360 l 2
 1506.67 1334.67 1566.67 1251.33 1636 1110 c 1
 1664 1056.67 1678 1017.33 1678 992 c 2
 1678 862 l 1
 1578 658 l 2
 1544.67 591.333 1500 544 1444 516 c 2
 1236 412 l 1
 186 410 l 1
 108 410 l 1
 108 522 l 1
 1170 522 l 1
 1348 610 l 1
 1390.67 628.667 1416.67 636.667 1426 634 c 1
 1452 638 l 1
 1452 678 1454.67 701.333 1460 708 c 1
 1538 864 l 1
 1560.67 906.667 1569.33 932.667 1564 942 c 1
 1554 990 l 1
 1464 1172 l 1
 1452 1224 l 1
 1450 1250 l 1
 1410 1250 1386.67 1252.67 1380 1258 c 1
 1172 1362 l 1
 108 1362 l 1
 108 1474 l 1
108 186 m 1
 1678 186 l 1
 1678 74 l 1
 108 74 l 1
 108 186 l 1
EndSplineSet
EndChar
StartChar: propersubset
Encoding: 218 8834 219
OldEncoding: 33212
Width: 2048
VWidth: 1024
Flags: HW
Fore
556 1362 m 1
 1678 1362 l 1
 1678 1250 l 1
 618 1250 l 1
 422 1154 l 1
 408.667 1143.33 379.333 1138 334 1138 c 1
 335.333 1102 329.333 1071.33 316 1046 c 2
 238 890 l 2
 222 856.667 216.667 833.333 222 820 c 1
 222 664 l 2
 222 644 232.667 613.333 254 572 c 2
 332 416 l 1
 333.333 392 334 371.333 334 354 c 1
 375.333 354 398.667 351.333 404 346 c 1
 612 242 l 1
 1678 242 l 1
 1676 130 l 1
 610 130 l 2
 570 128.667 530.667 139.333 492 162 c 1
 422.667 195.333 354 230.667 286 268 c 1
 264.667 284 245.333 308 228 340 c 1
 124 548 l 1
 108 600 l 1
 108 886 l 1
 109.333 916.667 115.333 938.667 126 952 c 1
 218 1134 l 2
 242 1182 285.333 1223.33 348 1258 c 1
 556 1362 l 1
EndSplineSet
EndChar
StartChar: propersuperset
Encoding: 219 8835 220
OldEncoding: 33213
Width: 2048
VWidth: 1024
Flags: HW
Fore
108 1362 m 1
 1174 1362 l 2
 1215.33 1362 1240 1358.67 1248 1352 c 1
 1456 1248 l 2
 1506.67 1222.67 1566.67 1139.33 1636 998 c 1
 1676 920 l 1
 1678 608 l 1
 1668 560 l 1
 1564 352 l 1
 1540 301.333 1456.67 241.333 1314 172 c 1
 1262 144 1224 130 1200 130 c 2
 134 130 l 1
 108 130 l 1
 108 242 l 1
 1170 242 l 1
 1348 330 l 1
 1390.67 348.667 1416.67 356.667 1426 354 c 1
 1452 356 l 1
 1452 390.667 1458 421.333 1470 448 c 1
 1536 578 l 2
 1553.33 611.333 1562.67 634.667 1564 648 c 1
 1564 804 l 1
 1565.33 838.667 1558 872 1542 904 c 2
 1464 1060 l 1
 1452 1112 l 1
 1450 1138 l 1
 1410 1138 1386.67 1140.67 1380 1146 c 1
 1172 1250 l 1
 108 1250 l 1
 108 1362 l 1
EndSplineSet
EndChar
StartChar: union
Encoding: 220 8746 221
OldEncoding: 33214
Width: 2048
VWidth: 1024
Flags: HW
Fore
276 1530 m 1
 390 1530 l 1
 390 470 l 1
 486 274 l 1
 496.667 259.333 502 230 502 186 c 1
 538 186 568.667 180 594 168 c 2
 724 102 l 2
 758.667 84.6667 782 75.3333 794 74 c 2
 950 74 l 2
 986 72.6667 1019.33 80 1050 96 c 2
 1206 174 l 1
 1258 186 l 1
 1284 188 l 1
 1284 228 1286.67 251.333 1292 258 c 1
 1396 466 l 1
 1396 1530 l 1
 1510 1530 l 1
 1510 466 l 2
 1510 424.667 1506.67 400 1500 392 c 1
 1396 184 l 1
 1373.33 136 1323.33 92.6667 1246 54 c 2
 1116 -12 l 1
 1064 -38 l 1
 752 -38 l 2
 721.333 -38 699.333 -32 686 -20 c 1
 478 84 l 1
 439.333 108 398 165.333 354 256 c 1
 288 386 l 1
 276 438 l 1
 276 1504 l 1
 276 1530 l 1
EndSplineSet
EndChar
StartChar: intersection
Encoding: 221 8745 222
OldEncoding: 33215
Width: 2048
VWidth: 1024
Flags: HW
Fore
724 1530 m 1
 1032 1530 l 1
 1080 1520 l 1
 1288 1416 l 2
 1338.67 1392 1400 1306 1472 1158 c 2
 1510 1080 l 1
 1510 14 l 1
 1510 -38 l 1
 1396 -38 l 1
 1396 1024 l 1
 1308 1202 l 1
 1289.33 1243.33 1281.33 1269.33 1284 1280 c 1
 1282 1306 l 1
 1247.33 1304.67 1216.67 1310.67 1190 1324 c 2
 1034 1402 l 2
 1006 1416.67 984 1422 968 1418 c 1
 812 1418 l 2
 793.333 1418 762.667 1407.33 720 1386 c 2
 564 1308 l 1
 541.333 1306.67 520.667 1306 502 1306 c 1
 502 1264.67 499.333 1241.33 494 1236 c 1
 390 1028 l 1
 390 -38 l 1
 276 -38 l 1
 276 1028 l 2
 276 1064 295.333 1120.67 334 1198 c 0
 372 1274 372 1274 412 1350 c 1
 425.333 1368.67 451.333 1389.33 490 1412 c 1
 724 1530 l 1
EndSplineSet
EndChar
StartChar: nounicode-3-2-81c0
Encoding: 222 -1 223
OldEncoding: 33216
Width: 2048
VWidth: 1024
Flags: HW
Fore
2 2 m 0
EndSplineSet
EndChar
StartChar: nounicode-3-2-81c1
Encoding: 223 -1 224
OldEncoding: 33217
Width: 2048
VWidth: 1024
Flags: HW
Fore
2 2 m 0
EndSplineSet
EndChar
StartChar: nounicode-3-2-81c2
Encoding: 224 -1 225
OldEncoding: 33218
Width: 2048
VWidth: 1024
Flags: HW
Fore
2 2 m 0
EndSplineSet
EndChar
StartChar: nounicode-3-2-81c3
Encoding: 225 -1 226
OldEncoding: 33219
Width: 2048
VWidth: 1024
Flags: HW
Fore
2 2 m 0
EndSplineSet
EndChar
StartChar: nounicode-3-2-81c4
Encoding: 226 -1 227
OldEncoding: 33220
Width: 2048
VWidth: 1024
Flags: HW
Fore
2 2 m 0
EndSplineSet
EndChar
StartChar: nounicode-3-2-81c5
Encoding: 227 -1 228
OldEncoding: 33221
Width: 2048
VWidth: 1024
Flags: HW
Fore
2 2 m 0
EndSplineSet
EndChar
StartChar: nounicode-3-2-81c6
Encoding: 228 -1 229
OldEncoding: 33222
Width: 2048
VWidth: 1024
Flags: HW
Fore
2 2 m 0
EndSplineSet
EndChar
StartChar: nounicode-3-2-81c7
Encoding: 229 -1 230
OldEncoding: 33223
Width: 2048
VWidth: 1024
Flags: HW
Fore
2 2 m 0
EndSplineSet
EndChar
StartChar: logicaland
Encoding: 230 8743 231
OldEncoding: 33224
Width: 2048
VWidth: 1024
Flags: HW
Fore
864 1530 m 1
 922 1530 l 1
 966 1482 1004.67 1423.33 1038 1354 c 1
 1572 288 l 1
 1662 106 l 1
 1672.67 91.3333 1678 62 1678 18 c 1
 1636.67 16.6667 1598.67 18 1564 22 c 1
 1565.33 56.6667 1563.33 78.6667 1558 88 c 2
 1024 1154 l 1
 960 1284 l 1
 948 1336 l 1
 948 1362 l 1
 838 1362 l 1
 839.333 1326 830 1288.67 810 1250 c 2
 276 184 l 1
 238 106 l 1
 228.667 91.3333 223.333 62 222 18 c 1
 180.667 16.6667 142.667 18 108 22 c 1
 108 56.6667 110 78.6667 114 88 c 1
 648 1154 l 1
 778 1414 l 2
 796.667 1451.33 825.333 1490 864 1530 c 1
EndSplineSet
EndChar
StartChar: logicalor
Encoding: 231 8744 232
OldEncoding: 33225
Width: 2048
VWidth: 1024
Flags: HW
Fore
108 1474 m 1
 222 1474 l 1
 222 1438 231.333 1400.67 250 1362 c 1
 784 296 l 1
 822 218 l 1
 832.667 203.333 838 174 838 130 c 1
 878 128.667 914.667 130 948 134 c 1
 948 168.667 950 190.667 954 200 c 1
 1488 1266 l 1
 1552 1396 l 1
 1564 1448 l 1
 1564 1474 l 1
 1678 1474 l 1
 1679.33 1438 1670 1400.67 1650 1362 c 2
 1116 296 l 1
 1000 62 l 2
 985.333 31.3333 959.333 -2 922 -38 c 1
 864 -38 l 1
 820 10 780 72 744 148 c 1
 210 1214 l 1
 120 1396 l 1
 108 1448 l 1
 108 1474 l 1
EndSplineSet
EndChar
StartChar: uniFFE2
Encoding: 232 65506 233
OldEncoding: 33226
Width: 2048
VWidth: 1024
Flags: HW
Fore
108 690 m 1
 1734 686 l 1
 1734 -94 l 1
 1620 -94 l 1
 1616 578 l 1
 108 578 l 1
 108 690 l 1
EndSplineSet
EndChar
StartChar: arrowdblright
Encoding: 233 8658 234
OldEncoding: 33227
Width: 2048
VWidth: 1024
Flags: HW
Fore
1172 1250 m 1
 1258 1250 l 1
 1734 770 l 1
 1734 718 l 1
 1258 242 l 1
 1172 244 l 1
 1172 270 l 1
 1396 496 l 1
 1396 522 l 1
 52 522 l 1
 54 634 l 1
 1536 634 l 1
 1620 722 l 1
 1620 774 l 1
 1534 858 l 1
 52 858 l 1
 52 970 l 1
 1396 972 l 1
 1396 998 l 1
 1172 1224 l 1
 1172 1250 l 1
EndSplineSet
EndChar
StartChar: arrowdblboth
Encoding: 234 8660 235
OldEncoding: 33228
Width: 2048
VWidth: 1024
Flags: HW
Fore
528 1250 m 1
 558 1250 l 1
 558 1166 l 1
 390 996 l 1
 390 970 l 1
 1396 972 l 1
 1396 998 l 1
 1228 1166 l 1
 1228 1187.33 1229.33 1215.33 1232 1250 c 1
 1258 1250 l 1
 1734 770 l 1
 1734 718 l 1
 1254 242 l 1
 1228 242 l 1
 1228 326 l 1
 1396 496 l 1
 1396 522 l 1
 390 520 l 1
 390 494 l 1
 558 326 l 1
 559.333 303.333 558 275.333 554 242 c 1
 528 242 l 1
 52 722 l 1
 52 774 l 1
 528 1250 l 1
250 856 m 1
 172 778 l 1
 168 748 l 1
 168 722 l 1
 246 640 l 1
 1536 636 l 1
 1614 714 l 1
 1618 744 l 1
 1618 770 l 1
 1540 852 l 1
 250 856 l 1
EndSplineSet
EndChar
StartChar: universal
Encoding: 235 8704 236
OldEncoding: 33229
Width: 2048
VWidth: 1024
Flags: HW
Fore
108 1530 m 1
 222 1530 l 1
 222 1488.67 225.333 1464 232 1456 c 1
 362 1196 l 2
 379.333 1161.33 388.667 1140.67 390 1134 c 1
 390 1082 l 1
 1396 1082 l 1
 1396 1140 l 1
 1526 1400 l 1
 1564 1478 l 1
 1564 1530 l 1
 1678 1528 l 1
 1678 1486.67 1674.67 1462 1668 1454 c 1
 1134 388 l 1
 992 102 l 1
 952 24 l 1
 952 0 951.333 -20.6667 950 -38 c 1
 836 -38 l 1
 837.333 0.666667 828 38 808 74 c 1
 276 1140 l 1
 146 1400 l 1
 108 1478 l 1
 108 1530 l 1
504 968 m 1
 504 932 512.667 897.333 530 864 c 1
 750 422 l 1
 828 266 l 1
 840 214 l 1
 840 188 l 1
 944 188 l 1
 945.333 228 950 254 958 266 c 1
 1192 734 l 1
 1270 890 l 1
 1282 942 l 1
 1282 968 l 1
 504 968 l 1
EndSplineSet
EndChar
StartChar: existential
Encoding: 236 8707 237
OldEncoding: 33230
Width: 2048
VWidth: 1024
Flags: HW
Fore
332 1418 m 1
 1454 1418 l 1
 1450 74 l 1
 332 74 l 1
 332 186 l 1
 1340 186 l 1
 1340 690 l 1
 332 690 l 1
 332 802 l 1
 1340 802 l 1
 1340 1306 l 1
 332 1306 l 1
 332 1418 l 1
EndSplineSet
EndChar
StartChar: nounicode-3-2-81cf
Encoding: 237 -1 238
OldEncoding: 33231
Width: 2048
VWidth: 1024
Flags: HW
Fore
2 2 m 0
EndSplineSet
EndChar
StartChar: nounicode-3-2-81d0
Encoding: 238 -1 239
OldEncoding: 33232
Width: 2048
VWidth: 1024
Flags: HW
Fore
2 2 m 0
EndSplineSet
EndChar
StartChar: nounicode-3-2-81d1
Encoding: 239 -1 240
OldEncoding: 33233
Width: 2048
VWidth: 1024
Flags: HW
Fore
2 2 m 0
EndSplineSet
EndChar
StartChar: nounicode-3-2-81d2
Encoding: 240 -1 241
OldEncoding: 33234
Width: 2048
VWidth: 1024
Flags: HW
Fore
2 2 m 0
EndSplineSet
EndChar
StartChar: nounicode-3-2-81d3
Encoding: 241 -1 242
OldEncoding: 33235
Width: 2048
VWidth: 1024
Flags: HW
Fore
2 2 m 0
EndSplineSet
EndChar
StartChar: nounicode-3-2-81d4
Encoding: 242 -1 243
OldEncoding: 33236
Width: 2048
VWidth: 1024
Flags: HW
Fore
2 2 m 0
EndSplineSet
EndChar
StartChar: nounicode-3-2-81d5
Encoding: 243 -1 244
OldEncoding: 33237
Width: 2048
VWidth: 1024
Flags: HW
Fore
2 2 m 0
EndSplineSet
EndChar
StartChar: nounicode-3-2-81d6
Encoding: 244 -1 245
OldEncoding: 33238
Width: 2048
VWidth: 1024
Flags: HW
Fore
2 2 m 0
EndSplineSet
EndChar
StartChar: nounicode-3-2-81d7
Encoding: 245 -1 246
OldEncoding: 33239
Width: 2048
VWidth: 1024
Flags: HW
Fore
2 2 m 0
EndSplineSet
EndChar
StartChar: nounicode-3-2-81d8
Encoding: 246 -1 247
OldEncoding: 33240
Width: 2048
VWidth: 1024
Flags: HW
Fore
2 2 m 0
EndSplineSet
EndChar
StartChar: nounicode-3-2-81d9
Encoding: 247 -1 248
OldEncoding: 33241
Width: 2048
VWidth: 1024
Flags: HW
Fore
2 2 m 0
EndSplineSet
EndChar
StartChar: angle
Encoding: 248 8736 249
OldEncoding: 33242
Width: 2048
VWidth: 1024
Flags: HW
Fore
1536 1474 m 1
 1622 1474 l 1
 1622 1390 l 1
 418 186 l 1
 396.667 186 368.667 184.667 334 182 c 1
 334 130 l 1
 1622 130 l 1
 1622 18 l 1
 108 20 l 1
 108 46 l 1
 1536 1474 l 1
EndSplineSet
EndChar
StartChar: perpendicular
Encoding: 249 8869 250
OldEncoding: 33243
Width: 2048
VWidth: 1024
Flags: HW
Fore
836 1530 m 1
 950 1530 l 1
 950 130 l 1
 1622 130 l 1
 1620 18 l 1
 164 18 l 1
 164 130 l 1
 836 130 l 1
 836 1530 l 1
EndSplineSet
EndChar
StartChar: uni2312
Encoding: 250 8978 251
OldEncoding: 33244
Width: 2048
VWidth: 1024
Flags: HW
Fore
750 1474 m 1
 958 1474 l 2
 1007.33 1474 1050 1468 1086 1456 c 2
 1302 1380 l 1
 1370 1348 1426.67 1308 1472 1260 c 1
 1545.33 1188 1596 1128 1624 1080 c 1
 1676 976 l 1
 1677.33 932 1678 892.667 1678 858 c 1
 1564 858 l 1
 1565.33 896.667 1556 934 1536 970 c 1
 1506.67 1036.67 1461.33 1100.67 1400 1162 c 1
 1354.67 1204.67 1314 1234.67 1278 1252 c 0
 1212.67 1281.33 1146.67 1306.67 1080 1328 c 0
 1013.33 1350.67 950.667 1362 892 1362 c 0
 840 1362 799.333 1357.33 770 1348 c 2
 552 1272 l 1
 497.333 1248 447.333 1216.67 402 1178 c 1
 335.333 1111.33 280.667 1034 238 946 c 1
 228.667 931.333 223.333 902 222 858 c 1
 108 858 l 1
 110 974 l 1
 163.333 1080.67 206.667 1151.33 240 1186 c 0
 356 1304.67 526 1400.67 750 1474 c 1
EndSplineSet
EndChar
StartChar: partialdiff
Encoding: 251 8706 252
OldEncoding: 33245
Width: 2048
VWidth: 1024
Flags: HW
Fore
892 1530 m 1
 1008 1528 l 1
 1086 1490 l 1
 1100.67 1479.33 1130 1474 1174 1474 c 1
 1174 1432.67 1184.67 1393.33 1206 1356 c 1
 1270 1226 l 1
 1287.33 1192.67 1292.67 1169.33 1286 1156 c 1
 1286 688 l 1
 1287.33 634.667 1274 568 1246 488 c 0
 1210 378.667 1159.33 263.333 1094 142 c 1
 1050 90 l 1
 1019.33 59.3333 976.667 30.6667 922 4 c 1
 867.333 -25.3333 825.333 -39.3333 796 -38 c 2
 640 -38 l 1
 569.333 31.3333 518 97.3333 486 160 c 0
 459.333 212 445.333 251.333 444 278 c 1
 444 408 l 2
 444 422.667 448.667 446 458 478 c 1
 514 646 l 1
 534 687.333 564 727.333 604 766 c 0
 652 810 702 845.333 754 872 c 0
 807.333 898.667 846.667 912.667 872 914 c 0
 925.333 914 969.333 904.667 1004 886 c 0
 1038.67 868.667 1059.33 859.333 1066 858 c 2
 1118 858 l 1
 1120 746 l 1
 1172 746 l 1
 1172 1080 l 1
 1173.33 1094.67 1168.67 1118 1158 1150 c 0
 1134 1230 1107.33 1303.33 1078 1370 c 1
 976 1474 l 1
 960 1474 914.667 1455.33 840 1418 c 0
 794.667 1394 749.333 1357.33 704 1308 c 1
 685.333 1278.67 672 1255.33 664 1238 c 0
 645.333 1200.67 618 1167.33 582 1138 c 1
 556 1138 l 1
 556 1178 581.333 1246.67 632 1344 c 1
 662.667 1384 698.667 1420 740 1452 c 1
 892 1530 l 1
890 854 m 1
 822 819.333 764 788 716 760 c 1
 696 732 676 698.667 656 660 c 1
 566 478 l 1
 562 467.333 560 445.333 560 412 c 1
 562 238 l 1
 638 90 l 1
 663.333 56.6667 683.333 33.3333 698 20 c 1
 808 20 l 1
 916 125.333 980 198.667 1000 240 c 1
 1092 422 l 1
 1109.33 459.333 1116.67 484 1114 496 c 1
 1114 626 l 2
 1114 635.333 1104.67 657.333 1086 692 c 0
 1067.33 724 1058 759.333 1058 798 c 1
 1018 798 992 802.667 980 812 c 1
 930 836 930 836 890 854 c 1
EndSplineSet
EndChar
StartChar: gradient
Encoding: 252 8711 253
OldEncoding: 33246
Width: 2048
VWidth: 1024
Flags: HW
Fore
108 1474 m 1
 1678 1474 l 1
 1148 414 l 1
 992 102 l 1
 952 24 l 1
 952 0 951.333 -20.6667 950 -38 c 1
 908.667 -39.3333 870.667 -38 836 -34 c 1
 836 8.66667 832 34.6667 824 44 c 1
 290 1110 l 1
 108 1474 l 1
280 1360 m 1
 280 1334 l 1
 342.667 1271.33 389.333 1206 420 1138 c 1
 746 488 l 1
 850 280 l 1
 866 250.667 889.333 220.667 920 190 c 1
 960 230 989.333 270.667 1008 312 c 1
 1360 1014 l 1
 1476 1248 l 1
 1497.33 1282.67 1507.33 1320 1506 1360 c 1
 280 1360 l 1
EndSplineSet
EndChar
StartChar: equivalence
Encoding: 253 8801 254
OldEncoding: 33247
Width: 2048
VWidth: 1024
Flags: HW
Fore
220 1194 m 1
 1566 1194 l 1
 1566 1082 l 1
 220 1082 l 1
 220 1194 l 1
220 802 m 1
 1566 802 l 1
 1566 690 l 1
 220 690 l 1
 220 802 l 1
220 410 m 1
 1566 410 l 1
 1566 298 l 1
 220 298 l 1
 220 410 l 1
EndSplineSet
EndChar
StartChar: uni2252
Encoding: 254 8786 255
OldEncoding: 33248
Width: 2048
VWidth: 1024
Flags: HW
Fore
528 1418 m 1
 586 1418 l 1
 670 1330 l 1
 670 1278 l 1
 586 1194 l 1
 528 1194 l 1
 444 1282 l 1
 444 1334 l 1
 528 1418 l 1
220 1026 m 1
 1566 1026 l 1
 1566 914 l 1
 220 914 l 1
 220 1026 l 1
220 634 m 1
 1566 634 l 1
 1566 522 l 1
 220 522 l 1
 220 634 l 1
1200 354 m 1
 1258 354 l 1
 1342 266 l 1
 1342 214 l 1
 1258 130 l 1
 1200 130 l 1
 1116 218 l 1
 1116 270 l 1
 1200 354 l 1
EndSplineSet
EndChar
StartChar: uni226A
Encoding: 255 8810 256
OldEncoding: 33249
Width: 2048
VWidth: 1024
Flags: HW
Fore
1284 1530 m 1
 1342 1528 l 1
 1342 1502 l 1
 1308.67 1467.33 1270.67 1438.67 1228 1416 c 0
 1200 1401.33 1178 1388.67 1162 1378 c 1
 1131.33 1347.33 1088.67 1318.67 1034 1292 c 1
 1007.33 1274.67 985.333 1257.33 968 1240 c 1
 936 1216 902 1196 866 1180 c 1
 839.333 1162.67 817.333 1145.33 800 1128 c 1
 765.333 1104 740 1088 724 1080 c 0
 689.333 1062.67 658.667 1041.33 632 1016 c 1
 597.333 992 572 976 556 968 c 0
 528 953.333 505.333 940 488 928 c 1
 453.333 894.667 408 864.667 352 838 c 1
 324 816.667 299.333 794 278 770 c 1
 278 718 l 1
 312.667 683.333 350.667 654.667 392 632 c 0
 421.333 617.333 443.333 604.667 458 594 c 1
 490 563.333 532.667 534.667 586 508 c 1
 614 490.667 636 473.333 652 456 c 1
 685.333 432 719.333 412 754 396 c 1
 782 378.667 804 361.333 820 344 c 1
 856 320 881.333 304 896 296 c 0
 932 278.667 962.667 257.333 988 232 c 1
 1024 208 1049.33 192 1064 184 c 0
 1093.33 169.333 1116 156 1132 144 c 1
 1168 110.667 1213.33 80.6667 1268 54 c 1
 1297.33 32.6667 1322 10.6667 1342 -12 c 1
 1342 -38 l 1
 1303.33 -39.3333 1265.33 -30 1228 -10 c 1
 1177.33 14 1136 36.6667 1104 58 c 1
 1066.67 91.3333 1026 118.667 982 140 c 1
 951.333 158.667 927.333 177.333 910 196 c 1
 882 216 850 234.667 814 252 c 1
 783.333 270.667 759.333 289.333 742 308 c 1
 714 326.667 690.667 341.333 672 352 c 0
 633.333 370.667 600.667 393.333 574 420 c 1
 546 438.667 522.667 453.333 504 464 c 0
 465.333 482.667 432.667 505.333 406 532 c 1
 378 552 346 570.667 310 588 c 1
 283.333 604 244 638 192 690 c 1
 108 690 l 1
 108 802 l 1
 192 802 l 1
 244 852.667 305.333 898 376 938 c 1
 426 980 l 1
 470 1008 470 1008 496 1024 c 1
 536 1042.67 568.667 1065.33 594 1092 c 1
 623.333 1112 655.333 1130.67 690 1148 c 1
 722 1166.67 746 1185.33 762 1204 c 1
 791.333 1224 823.333 1242.67 858 1260 c 1
 890 1278.67 914 1297.33 930 1316 c 1
 959.333 1336 991.333 1354.67 1026 1372 c 1
 1063.33 1396 1090 1416.67 1106 1434 c 1
 1138 1454 1162.67 1468.67 1180 1478 c 2
 1284 1530 l 1
1620 1530 m 1
 1678 1528 l 1
 1678 1502 l 1
 1644.67 1467.33 1606.67 1438.67 1564 1416 c 0
 1536 1401.33 1514 1388.67 1498 1378 c 1
 1467.33 1347.33 1424.67 1318.67 1370 1292 c 1
 1343.33 1274.67 1321.33 1257.33 1304 1240 c 1
 1272 1216 1238 1196 1202 1180 c 1
 1175.33 1162.67 1153.33 1145.33 1136 1128 c 1
 1101.33 1104 1076 1088 1060 1080 c 0
 1025.33 1062.67 994.667 1041.33 968 1016 c 1
 933.333 992 908 976 892 968 c 0
 864 953.333 841.333 940 824 928 c 1
 789.333 894.667 744 864.667 688 838 c 1
 660 816.667 635.333 794 614 770 c 1
 614 718 l 1
 648.667 683.333 686.667 654.667 728 632 c 0
 757.333 617.333 779.333 604.667 794 594 c 1
 826 563.333 868.667 534.667 922 508 c 1
 950 490.667 972 473.333 988 456 c 1
 1021.33 432 1055.33 412 1090 396 c 1
 1118 378.667 1140 361.333 1156 344 c 1
 1192 320 1217.33 304 1232 296 c 0
 1268 278.667 1298.67 257.333 1324 232 c 1
 1360 208 1385.33 192 1400 184 c 0
 1429.33 169.333 1452 156 1468 144 c 1
 1504 110.667 1549.33 80.6667 1604 54 c 1
 1633.33 32.6667 1658 10.6667 1678 -12 c 1
 1678 -38 l 1
 1639.33 -39.3333 1601.33 -30 1564 -10 c 1
 1513.33 14 1472 36.6667 1440 58 c 1
 1402.67 91.3333 1362 118.667 1318 140 c 1
 1287.33 158.667 1263.33 177.333 1246 196 c 1
 1218 216 1186 234.667 1150 252 c 1
 1119.33 270.667 1095.33 289.333 1078 308 c 1
 1050 326.667 1026.67 341.333 1008 352 c 0
 969.333 370.667 936.667 393.333 910 420 c 1
 882 438.667 858.667 453.333 840 464 c 0
 801.333 482.667 768.667 505.333 742 532 c 1
 714 552 682 570.667 646 588 c 1
 619.333 604 580 638 528 690 c 1
 444 690 l 1
 444 802 l 1
 528 802 l 1
 580 852.667 641.333 898 712 938 c 1
 762 980 l 1
 806 1008 806 1008 832 1024 c 1
 872 1042.67 904.667 1065.33 930 1092 c 1
 959.333 1112 991.333 1130.67 1026 1148 c 1
 1058 1166.67 1082 1185.33 1098 1204 c 1
 1127.33 1224 1159.33 1242.67 1194 1260 c 1
 1226 1278.67 1250 1297.33 1266 1316 c 1
 1295.33 1336 1327.33 1354.67 1362 1372 c 1
 1399.33 1396 1426 1416.67 1442 1434 c 1
 1474 1454 1498.67 1468.67 1516 1478 c 2
 1620 1530 l 1
EndSplineSet
EndChar
StartChar: uni226B
Encoding: 256 8811 257
OldEncoding: 33250
Width: 2048
VWidth: 1024
Flags: HW
Fore
108 1530 m 1
 146.667 1530 204 1510.67 280 1472 c 0
 309.333 1457.33 331.333 1444.67 346 1434 c 1
 378 1403.33 420.667 1374.67 474 1348 c 1
 502 1330.67 524 1313.33 540 1296 c 1
 573.333 1272 607.333 1252 642 1236 c 1
 670 1218.67 692 1201.33 708 1184 c 1
 744 1160 769.333 1144 784 1136 c 0
 820 1118.67 850.667 1097.33 876 1072 c 1
 912 1048 937.333 1032 952 1024 c 0
 988 1006.67 1019.33 984.667 1046 958 c 1
 1072.67 938 1100.67 921.333 1130 908 c 1
 1164.67 888 1190 870 1206 854 c 2
 1258 802 l 1
 1342 802 l 1
 1342 690 l 1
 1258 690 l 1
 1206 635.333 1144.67 590 1074 554 c 1
 1024 512 l 1
 989.333 488 964 472 948 464 c 0
 920 449.333 898 436.667 882 426 c 1
 856.667 399.333 822.667 374.667 780 352 c 0
 745.333 334.667 714.667 313.333 688 288 c 1
 653.333 264 628 248 612 240 c 0
 577.333 222.667 546.667 201.333 520 176 c 1
 485.333 152 460 136 444 128 c 0
 409.333 110.667 378.667 89.3333 352 64 c 1
 304 32 261.333 7.33333 224 -10 c 1
 185.333 -31.3333 146.667 -40 108 -36 c 1
 108 -10 l 1
 138.667 20.6667 174.667 48 216 72 c 1
 249.333 88 273.333 102 288 114 c 0
 326.667 147.333 367.333 174.667 410 196 c 1
 442 214.667 466 233.333 482 252 c 1
 511.333 272 543.333 290.667 578 308 c 1
 610 326.667 634 345.333 650 364 c 1
 694 392 694 392 720 408 c 1
 760 426.667 792.667 449.333 818 476 c 1
 862 504 862 504 888 520 c 1
 921.333 536 945.333 550 960 562 c 0
 992 591.333 1038 622 1098 654 c 1
 1127.33 674 1152 696.667 1172 722 c 1
 1172 774 l 1
 1142.67 804.667 1106.67 832 1064 856 c 0
 1032 872 1008 886 992 898 c 1
 954.667 931.333 914 958.667 870 980 c 1
 839.333 998.667 815.333 1017.33 798 1036 c 1
 770 1056 738 1074.67 702 1092 c 1
 671.333 1110.67 647.333 1129.33 630 1148 c 1
 602 1166.67 578.667 1181.33 560 1192 c 0
 521.333 1210.67 488.667 1233.33 462 1260 c 1
 434 1278.67 410.667 1293.33 392 1304 c 0
 360 1320 336 1334 320 1346 c 1
 289.333 1375.33 243.333 1406 182 1438 c 1
 154 1458 129.333 1480 108 1504 c 1
 108 1530 l 1
444 1530 m 1
 482.667 1530 540 1510.67 616 1472 c 0
 645.333 1457.33 667.333 1444.67 682 1434 c 1
 714 1403.33 756.667 1374.67 810 1348 c 1
 838 1330.67 860 1313.33 876 1296 c 1
 909.333 1272 943.333 1252 978 1236 c 1
 1006 1218.67 1028 1201.33 1044 1184 c 1
 1080 1160 1105.33 1144 1120 1136 c 0
 1156 1118.67 1186.67 1097.33 1212 1072 c 1
 1248 1048 1273.33 1032 1288 1024 c 0
 1324 1006.67 1355.33 984.667 1382 958 c 1
 1408.67 938 1436.67 921.333 1466 908 c 1
 1500.67 888 1526 870 1542 854 c 2
 1594 802 l 1
 1678 802 l 1
 1678 690 l 1
 1594 690 l 1
 1542 635.333 1480.67 590 1410 554 c 1
 1360 512 l 1
 1325.33 488 1300 472 1284 464 c 0
 1256 449.333 1234 436.667 1218 426 c 1
 1192.67 399.333 1158.67 374.667 1116 352 c 0
 1081.33 334.667 1050.67 313.333 1024 288 c 1
 989.333 264 964 248 948 240 c 0
 913.333 222.667 882.667 201.333 856 176 c 1
 821.333 152 796 136 780 128 c 0
 745.333 110.667 714.667 89.3333 688 64 c 1
 640 32 597.333 7.33333 560 -10 c 1
 521.333 -31.3333 482.667 -40 444 -36 c 1
 444 -10 l 1
 474.667 20.6667 510.667 48 552 72 c 1
 585.333 88 609.333 102 624 114 c 0
 662.667 147.333 703.333 174.667 746 196 c 1
 778 214.667 802 233.333 818 252 c 1
 847.333 272 879.333 290.667 914 308 c 1
 946 326.667 970 345.333 986 364 c 1
 1030 392 1030 392 1056 408 c 1
 1096 426.667 1128.67 449.333 1154 476 c 1
 1198 504 1198 504 1224 520 c 1
 1257.33 536 1281.33 550 1296 562 c 0
 1328 591.333 1374 622 1434 654 c 1
 1463.33 674 1488 696.667 1508 722 c 1
 1508 774 l 1
 1478.67 804.667 1442.67 832 1400 856 c 0
 1368 872 1344 886 1328 898 c 1
 1290.67 931.333 1250 958.667 1206 980 c 1
 1175.33 998.667 1151.33 1017.33 1134 1036 c 1
 1106 1056 1074 1074.67 1038 1092 c 1
 1007.33 1110.67 983.333 1129.33 966 1148 c 1
 938 1166.67 914.667 1181.33 896 1192 c 0
 857.333 1210.67 824.667 1233.33 798 1260 c 1
 770 1278.67 746.667 1293.33 728 1304 c 0
 696 1320 672 1334 656 1346 c 1
 625.333 1375.33 579.333 1406 518 1438 c 1
 490 1458 465.333 1480 444 1504 c 1
 444 1530 l 1
EndSplineSet
EndChar
StartChar: radical
Encoding: 257 8730 258
OldEncoding: 33251
Width: 2048
VWidth: 1024
Flags: HW
Fore
892 1586 m 1
 1790 1582 l 1
 1790 1530 l 1
 950 1530 l 1
 951.333 1490 945.333 1457.33 932 1432 c 1
 600 454 l 1
 480 94 l 2
 457.333 26 446 -36.6667 446 -94 c 1
 388 -94 l 1
 389.333 -55.3333 379.333 -14 358 30 c 1
 246 408 l 1
 230 464 220.667 520.667 218 578 c 1
 166 578 l 1
 166 494 l 1
 78 410 l 1
 52 410 l 1
 52 450 77.3333 518.667 128 616 c 1
 153.333 648 184 682 220 718 c 1
 220 802 l 1
 278 800 l 1
 278 746.667 282.667 706 292 678 c 2
 388 390 l 1
 390 242 l 1
 416 242 l 1
 457.333 283.333 500.667 375.333 546 518 c 1
 880 1500 l 1
 889.333 1517.33 893.333 1546 892 1586 c 1
EndSplineSet
EndChar
StartChar: uni223D
Encoding: 258 8765 259
OldEncoding: 33252
Width: 2048
VWidth: 1024
Flags: HW
Fore
388 1082 m 1
 586 1082 l 1
 670 998 l 1
 670 914 l 1
 602 928.667 544.667 947.333 498 970 c 1
 462 970 426.667 960.667 392 942 c 0
 358.667 924.667 338 915.333 330 914 c 2
 278 912 l 1
 278 874.667 276.667 854 274 850 c 0
 256.667 815.333 240 780 224 744 c 1
 262 666 l 1
 271.333 654 278 624.667 282 578 c 1
 319.333 578 346 573.333 362 564 c 0
 415.333 536 454.667 522 480 522 c 0
 533.333 520.667 577.333 530 612 550 c 1
 696 588.667 752.667 636.667 782 694 c 0
 827.333 786 862.667 848.667 888 882 c 1
 961.333 955.333 1028.67 1008 1090 1040 c 0
 1146 1068 1186.67 1082 1212 1082 c 2
 1342 1082 l 2
 1383.33 1082 1422.67 1071.33 1460 1050 c 1
 1540 1011.33 1594.67 965.333 1624 912 c 1
 1676 808 l 1
 1677.33 784 1678 754.667 1678 720 c 0
 1678 688 1672 666 1660 654 c 1
 1634.67 600.667 1608.67 552.667 1582 510 c 1
 1535.33 479.333 1493.33 455.333 1456 438 c 1
 1420 418 1395.33 408.667 1382 410 c 2
 1200 410 l 1
 1116 494 l 1
 1116 578 l 1
 1189.33 560.667 1246 542 1286 522 c 1
 1322 520.667 1352.67 526.667 1378 540 c 2
 1456 578 l 1
 1508 580 l 1
 1508 616 1518 654 1538 694 c 2
 1564 746 l 1
 1508 862 l 1
 1504 914 l 1
 1468 914 1447.33 915.333 1442 918 c 2
 1364 958 l 1
 1312 970 l 1
 1260 970 1220.67 964 1194 952 c 1
 1068.67 888 960.667 767.333 870 590 c 1
 826 538 l 1
 795.333 507.333 752.667 478.667 698 452 c 2
 620 412 l 1
 412 410 l 1
 358 424 l 1
 256.667 473.333 191.333 526 162 582 c 1
 124 660 l 1
 113.333 677.333 108 708 108 752 c 0
 108 788 112.667 814.667 122 832 c 0
 172.667 933.333 226.667 999.333 284 1030 c 2
 388 1082 l 1
EndSplineSet
EndChar
StartChar: proportional
Encoding: 259 8733 260
OldEncoding: 33253
Width: 2048
VWidth: 1024
Flags: HW
Fore
388 1082 m 1
 558 1082 l 2
 595.333 1082 652 1062.67 728 1024 c 0
 768 1004 807.333 974 846 934 c 1
 978 804 l 1
 1162 986 l 1
 1207.33 1012.67 1248 1035.33 1284 1054 c 2
 1336 1080 l 1
 1594 1082 l 1
 1678 998 l 1
 1678 914 l 1
 1622 926 1572.67 940.667 1530 958 c 1
 1478 970 l 1
 1423.33 970 1390 966.667 1378 960 c 2
 1248 894 l 1
 1217.33 870 1191.33 847.333 1170 826 c 2
 1118 770 l 1
 1118 718 l 1
 1192.67 642 1275.33 582 1366 538 c 1
 1384.67 526 1415.33 520.667 1458 522 c 1
 1495.33 520.667 1530.67 530 1564 550 c 1
 1678 578 l 1
 1678 494 l 1
 1594 410 l 1
 1416 410 l 2
 1364 408.667 1320 418 1284 438 c 1
 1213.33 470 1146 518.667 1082 584 c 1
 976 688 l 1
 852 564 l 2
 806.667 518.667 764 485.333 724 464 c 2
 646 426 l 1
 594 410 l 1
 384 412 l 1
 301.333 450.667 241.333 484 204 512 c 1
 177.333 556 154.667 596.667 136 634 c 0
 117.333 671.333 108 702 108 726 c 0
 108 778 117.333 822 136 858 c 0
 176 940.667 225.333 998 284 1030 c 1
 388 1082 l 1
446 968 m 1
 374 929.333 318.667 910.667 280 912 c 1
 280 868 276 842 268 834 c 1
 224 746 l 1
 262.667 672.667 281.333 617.333 280 580 c 1
 324 580 350 576 358 568 c 1
 446 524 l 1
 498 524 536.667 524.667 562 526 c 1
 670 578 760.667 642 834 718 c 1
 834 770 l 1
 766 843.333 706 892.667 654 918 c 2
 554 968 l 1
 446 968 l 1
EndSplineSet
EndChar
StartChar: uni2235
Encoding: 260 8757 261
OldEncoding: 33254
Width: 2048
VWidth: 1024
Flags: HW
Fore
416 1250 m 1
 530 1250 l 1
 614 1166 l 1
 614 1054 l 1
 530 970 l 1
 416 970 l 1
 332 1054 l 1
 332 1166 l 1
 416 1250 l 1
1200 1250 m 1
 1314 1250 l 1
 1398 1166 l 1
 1398 1054 l 1
 1314 970 l 1
 1200 970 l 1
 1116 1054 l 1
 1116 1166 l 1
 1200 1250 l 1
808 578 m 1
 922 578 l 1
 1006 494 l 1
 1006 382 l 1
 922 298 l 1
 808 298 l 1
 724 382 l 1
 724 494 l 1
 808 578 l 1
EndSplineSet
EndChar
StartChar: integral
Encoding: 261 8747 262
OldEncoding: 33255
Width: 2048
VWidth: 1024
Flags: HW
Fore
1032 1530 m 1
 1202 1530 l 1
 1342 1386 l 1
 1342 1334 l 1
 1258 1250 l 1
 1172 1250 l 1
 1172 1271.33 1173.33 1300.67 1176 1338 c 1
 1228 1390 l 1
 1142 1474 l 1
 1090 1474 l 1
 1056.67 1439.33 1028 1401.33 1004 1360 c 1
 966 1282 l 1
 950 1230 l 1
 950 762 l 2
 950 686 941.333 610.667 924 536 c 2
 840 166 l 1
 830.667 132.667 820.667 107.333 810 90 c 2
 776 40 l 1
 698 -38 l 1
 528 -38 l 1
 388 102 l 1
 389.333 132.667 395.333 154.667 406 168 c 1
 444 246 l 1
 444 298 l 1
 558 298 l 1
 559.333 256.667 548.667 217.333 526 180 c 1
 507.333 137.333 499.333 111.333 502 102 c 1
 588 18 l 1
 640 18 l 1
 685.333 64.6667 726.667 129.333 764 212 c 1
 776 232 781.333 257.333 780 288 c 1
 780 756 l 2
 780 805.333 786 858.667 798 916 c 1
 882 1302 l 1
 908.667 1382 958.667 1458 1032 1530 c 1
EndSplineSet
EndChar
StartChar: uni222C
Encoding: 262 8748 263
OldEncoding: 33256
Width: 2048
VWidth: 1024
Flags: HW
Fore
752 1530 m 1
 922 1530 l 1
 1062 1386 l 1
 1062 1334 l 1
 978 1250 l 1
 892 1250 l 1
 892 1271.33 893.333 1300.67 896 1338 c 1
 948 1390 l 1
 862 1474 l 1
 810 1474 l 1
 776.667 1439.33 748 1401.33 724 1360 c 1
 686 1282 l 1
 670 1230 l 1
 670 762 l 2
 670 686 661.333 610.667 644 536 c 2
 560 166 l 1
 550.667 132.667 540.667 107.333 530 90 c 2
 496 40 l 1
 418 -38 l 1
 248 -38 l 1
 108 102 l 1
 109.333 132.667 115.333 154.667 126 168 c 1
 164 246 l 1
 164 298 l 1
 278 298 l 1
 279.333 256.667 268.667 217.333 246 180 c 1
 227.333 137.333 219.333 111.333 222 102 c 1
 308 18 l 1
 360 18 l 1
 405.333 64.6667 446.667 129.333 484 212 c 1
 500 260 l 1
 500 728 l 1
 500 884 l 1
 506 936 l 1
 610 1326 l 1
 628.667 1379.33 650 1421.33 674 1452 c 1
 752 1530 l 1
1368 1530 m 1
 1538 1530 l 1
 1678 1386 l 1
 1678 1334 l 1
 1594 1250 l 1
 1508 1250 l 1
 1508 1271.33 1509.33 1300.67 1512 1338 c 1
 1564 1390 l 1
 1478 1474 l 1
 1426 1474 l 1
 1392.67 1439.33 1364 1401.33 1340 1360 c 1
 1302 1282 l 1
 1286 1230 l 1
 1286 762 l 2
 1286 686 1277.33 610.667 1260 536 c 2
 1176 166 l 1
 1166.67 132.667 1156.67 107.333 1146 90 c 2
 1112 40 l 1
 1034 -38 l 1
 864 -38 l 1
 724 102 l 1
 725.333 132.667 731.333 154.667 742 168 c 1
 780 246 l 1
 780 298 l 1
 894 298 l 1
 895.333 256.667 884.667 217.333 862 180 c 1
 843.333 137.333 835.333 111.333 838 102 c 1
 924 18 l 1
 976 18 l 1
 1021.33 64.6667 1062.67 129.333 1100 212 c 1
 1116 260 l 1
 1116 728 l 1
 1116 884 l 1
 1122 936 l 1
 1226 1326 l 1
 1244.67 1379.33 1266 1421.33 1290 1452 c 1
 1368 1530 l 1
EndSplineSet
EndChar
StartChar: nounicode-3-2-81e9
Encoding: 263 -1 264
OldEncoding: 33257
Width: 2048
VWidth: 1024
Flags: HW
Fore
2 2 m 0
EndSplineSet
EndChar
StartChar: nounicode-3-2-81ea
Encoding: 264 -1 265
OldEncoding: 33258
Width: 2048
VWidth: 1024
Flags: HW
Fore
2 2 m 0
EndSplineSet
EndChar
StartChar: nounicode-3-2-81eb
Encoding: 265 -1 266
OldEncoding: 33259
Width: 2048
VWidth: 1024
Flags: HW
Fore
2 2 m 0
EndSplineSet
EndChar
StartChar: nounicode-3-2-81ec
Encoding: 266 -1 267
OldEncoding: 33260
Width: 2048
VWidth: 1024
Flags: HW
Fore
2 2 m 0
EndSplineSet
EndChar
StartChar: nounicode-3-2-81ed
Encoding: 267 -1 268
OldEncoding: 33261
Width: 2048
VWidth: 1024
Flags: HW
Fore
2 2 m 0
EndSplineSet
EndChar
StartChar: nounicode-3-2-81ee
Encoding: 268 -1 269
OldEncoding: 33262
Width: 2048
VWidth: 1024
Flags: HW
Fore
2 2 m 0
EndSplineSet
EndChar
StartChar: nounicode-3-2-81ef
Encoding: 269 -1 270
OldEncoding: 33263
Width: 2048
VWidth: 1024
Flags: HW
Fore
2 2 m 0
EndSplineSet
EndChar
StartChar: uni212B
Encoding: 270 8491 271
OldEncoding: 33264
Width: 2048
VWidth: 1024
Flags: HW
Fore
808 1586 m 1
 978 1586 l 1
 1062 1502 l 1
 1062 1334 l 1
 950 1222 l 1
 988 1174 l 1
 1314 524 l 1
 1392 368 l 2
 1414.67 321.333 1446 278 1486 238 c 2
 1538 186 l 1
 1560.67 186 1588.67 184.667 1622 182 c 1
 1622 130 l 1
 1116 134 l 1
 1116 186 l 1
 1200 186 l 1
 1284 270 l 1
 1274 318 l 1
 1184 500 l 1
 1172 552 l 1
 1172 578 l 1
 642 578 l 1
 608.667 544.667 578 502.667 550 452 c 1
 486 322 l 1
 446 270 l 1
 530 186 l 1
 572.667 186 619.333 184.667 670 182 c 1
 670 130 l 1
 164 134 l 1
 164 186 l 1
 304 186 l 1
 338.667 219.333 366.667 256.667 388 298 c 2
 596 714 l 1
 636 796.667 666 870.667 686 936 c 1
 714 1004 742 1064.67 770 1118 c 0
 794 1166 816 1200.67 836 1222 c 1
 724 1334 l 1
 724 1502 l 1
 808 1586 l 1
866 1528 m 1
 788 1450 l 1
 784 1420 l 1
 784 1394 l 1
 862 1312 l 1
 892 1308 l 1
 918 1308 l 1
 998 1386 l 1
 1002 1416 l 1
 1002 1442 l 1
 924 1524 l 1
 885.333 1528 866 1529.33 866 1528 c 1
840 1136 m 1
 841.333 1100 832.667 1065.33 814 1032 c 1
 756.667 905.333 710 774.667 674 640 c 1
 1114 636 l 1
 944 974 l 1
 906 1052 l 2
 895.333 1073.33 890 1101.33 890 1136 c 1
 840 1136 l 1
EndSplineSet
EndChar
StartChar: perthousand
Encoding: 271 8240 272
OldEncoding: 33265
Width: 2048
VWidth: 1024
Flags: HW
Fore
948 1586 m 1
 990.667 1586 1028.67 1584.67 1062 1582 c 1
 1062 1544.67 1057.33 1518 1048 1502 c 1
 514 436 l 1
 332 72 l 1
 294 -6 l 1
 284.667 -20.6667 279.333 -50 278 -94 c 1
 164 -92 l 1
 164 -52 174.667 -12.6667 196 26 c 1
 728 1092 l 1
 898 1430 l 1
 948 1534 l 1
 948 1586 l 1
192 1474 m 1
 362 1474 l 1
 399.333 1435.33 432 1388.67 460 1334 c 2
 500 1256 l 1
 502 1024 l 1
 502 982.667 498.667 958 492 950 c 1
 426 820 l 1
 406 790.667 384.667 766 362 746 c 1
 192 746 l 1
 154.667 784.667 122 832 94 888 c 2
 54 966 l 1
 52 1200 l 1
 52 1236 56.6667 1262.67 66 1280 c 2
 128 1400 l 1
 149.333 1428 170.667 1452.67 192 1474 c 1
250 1416 m 1
 172 1338 l 1
 168 886 l 1
 246 808 l 1
 276 804 l 1
 302 804 l 1
 382 882 l 1
 386 1334 l 1
 308 1412 l 1
 269.333 1416 250 1417.33 250 1416 c 1
864 746 m 1
 1034 746 l 1
 1071.33 707.333 1104 660.667 1132 606 c 2
 1172 528 l 1
 1174 296 l 1
 1174 254.667 1170.67 230 1164 222 c 1
 1098 92 l 1
 1078 62.6667 1056.67 38 1034 18 c 1
 864 18 l 1
 826.667 56.6667 794 104 766 160 c 2
 726 238 l 1
 724 472 l 1
 724 508 728.667 534.667 738 552 c 2
 800 672 l 1
 821.333 700 842.667 724.667 864 746 c 1
1424 746 m 1
 1594 746 l 1
 1631.33 707.333 1664 660.667 1692 606 c 2
 1732 528 l 1
 1734 296 l 1
 1734 254.667 1730.67 230 1724 222 c 1
 1658 92 l 1
 1638 62.6667 1616.67 38 1594 18 c 1
 1424 18 l 1
 1386.67 56.6667 1354 104 1326 160 c 2
 1286 238 l 1
 1284 472 l 1
 1284 508 1288.67 534.667 1298 552 c 2
 1360 672 l 1
 1381.33 700 1402.67 724.667 1424 746 c 1
922 688 m 1
 844 610 l 1
 840 158 l 1
 918 80 l 1
 948 76 l 1
 974 76 l 1
 1054 154 l 1
 1058 606 l 1
 980 684 l 1
 941.333 688 922 689.333 922 688 c 1
1482 688 m 1
 1404 610 l 1
 1400 158 l 1
 1478 80 l 1
 1508 76 l 1
 1534 76 l 1
 1614 154 l 1
 1618 606 l 1
 1540 684 l 1
 1501.33 688 1482 689.333 1482 688 c 1
EndSplineSet
EndChar
StartChar: uni266F
Encoding: 272 9839 273
OldEncoding: 33266
Width: 2048
VWidth: 1024
Flags: HW
Fore
668 1530 m 1
 726 1530 l 1
 726 1082 l 1
 779.333 1080.67 828 1088 872 1104 c 0
 937.333 1125.33 1000 1137.33 1060 1140 c 1
 1060 1530 l 1
 1118 1530 l 1
 1120 1194 l 1
 1228 1222 l 1
 1266.67 1240.67 1306 1250 1346 1250 c 2
 1398 1250 l 1
 1398 1138 l 1
 1284 1136 l 1
 1206 1098 l 1
 1195.33 1088.67 1166 1082 1118 1078 c 1
 1120 634 l 1
 1228 662 l 1
 1266.67 680.667 1306 690 1346 690 c 2
 1398 690 l 1
 1398 578 l 1
 1284 576 l 1
 1206 538 l 1
 1192.67 527.333 1163.33 522 1118 522 c 1
 1118 -38 l 1
 1060 -38 l 1
 1060 466 l 1
 1008 466 959.333 458.667 914 444 c 0
 847.333 420 784.667 408.667 726 410 c 1
 726 -38 l 1
 668 -38 l 1
 668 352 l 1
 560 326 l 1
 521.333 306 481.333 296.667 440 298 c 2
 388 298 l 1
 388 410 l 1
 498 410 l 1
 616 466 l 1
 668 470 l 1
 668 912 l 1
 560 886 l 1
 521.333 866 481.333 856.667 440 858 c 2
 388 858 l 1
 388 970 l 1
 498 970 l 1
 616 1026 l 1
 668 1026 l 1
 668 1530 l 1
976 1024 m 1
 806 968 l 1
 728 968 l 1
 728 526 l 1
 776 523.333 827.333 530.667 882 548 c 0
 946 569.333 1004.67 580 1058 580 c 1
 1058 1022 l 1
 976 1024 l 1
EndSplineSet
EndChar
StartChar: uni266D
Encoding: 273 9837 274
OldEncoding: 33267
Width: 2048
VWidth: 1024
Flags: HW
Fore
556 1530 m 1
 614 1530 l 1
 614 804 l 1
 806 898 l 2
 835.333 912.667 857.333 918 872 914 c 1
 1002 914 l 1
 1064.67 884.667 1126 852.667 1186 818 c 1
 1216.67 770 1240.67 728 1258 692 c 0
 1278 654.667 1287.33 616 1286 576 c 0
 1286 534.667 1282.67 510 1276 502 c 1
 1250.67 448.667 1223.33 397.333 1194 348 c 1
 1128.67 276 1072 224.667 1024 194 c 1
 556 -38 l 1
 556 1530 l 1
894 856 m 1
 764 790 l 1
 736 774 702 746.667 662 708 c 2
 616 662 l 1
 616 78 l 1
 798 168 l 2
 868.667 204 940 260 1012 336 c 1
 1064 388 1104.67 444.667 1134 506 c 2
 1170 580 l 1
 1118 684 l 1
 1114 720 l 1
 1114 798 l 1
 1074 798 1048 802.667 1036 812 c 1
 944 856 l 1
 894 856 l 1
EndSplineSet
EndChar
StartChar: musicalnote
Encoding: 274 9834 275
OldEncoding: 33268
Width: 2048
VWidth: 1024
Flags: HW
Fore
836 1530 m 1
 866 1530 l 1
 988 1408 l 1
 1024 1384 1049.33 1368 1064 1360 c 0
 1093.33 1345.33 1115.33 1332.67 1130 1322 c 1
 1162 1291.33 1204.67 1262.67 1258 1236 c 0
 1291.33 1217.33 1335.33 1153.33 1390 1044 c 2
 1442 940 l 1
 1454 888 l 1
 1454 856 1448 834 1436 822 c 1
 1374 702 l 1
 1332 652 l 1
 1202 522 l 1
 1116 524 l 1
 1118 552 l 1
 1246 682 l 1
 1267.33 712.667 1281.33 737.333 1288 756 c 1
 1306.67 789.333 1323.33 824.667 1338 862 c 1
 1288.67 966 1238 1044 1186 1096 c 0
 1138 1144 1083.33 1183.33 1022 1214 c 1
 990 1238 956 1268.67 920 1306 c 1
 894 1306 l 1
 894 612 l 1
 894 352 l 1
 895.333 316 887.333 282.667 870 252 c 1
 830 166.667 772.667 88.6667 698 18 c 1
 528 18 l 1
 388 162 l 1
 388 214 l 1
 528 354 l 1
 668 354 l 1
 708 332.667 745.333 318.667 780 312 c 1
 836 296 l 1
 836 1530 l 1
EndSplineSet
EndChar
StartChar: dagger
Encoding: 275 8224 276
OldEncoding: 33269
Width: 2048
VWidth: 1024
Flags: HW
Fore
864 1530 m 1
 866 1530 l 1
 1006 1390 l 1
 986 1368.67 966.667 1340 948 1304 c 2
 896 1200 l 1
 894.667 1157.33 894.667 1118 896 1082 c 1
 932 1080.67 954 1082.67 962 1088 c 2
 1092 1154 l 1
 1146 1194 l 1
 1286 1054 l 1
 1144 914 l 1
 1117.33 939.333 1094.67 955.333 1076 962 c 1
 946 1026 l 1
 894 1026 l 1
 894 886 l 1
 1006 774 l 1
 987.333 760.667 970 712.667 954 630 c 1
 902 370 l 1
 896.667 327.333 894 286.667 894 248 c 2
 894 -38 l 1
 874 -38 854.667 -36.6667 836 -34 c 1
 836 252 l 2
 836 301.333 830 354.667 818 412 c 1
 770 652 l 1
 759.333 714.667 744 755.333 724 774 c 1
 836 886 l 1
 836 1026 l 1
 800 1026 742.667 1006 664 966 c 0
 629.333 948.667 602.667 931.333 584 914 c 1
 444 1054 l 1
 588 1192 l 1
 614.667 1165.33 636.667 1150 654 1146 c 1
 784 1082 l 1
 836 1082 l 1
 836 1168 l 1
 838.667 1181.33 828 1212 804 1260 c 2
 764 1338 l 1
 724 1390 l 1
 864 1530 l 1
EndSplineSet
EndChar
StartChar: daggerdbl
Encoding: 276 8225 277
OldEncoding: 33270
Width: 2048
VWidth: 1024
Flags: HW
Fore
864 1530 m 1
 866 1530 l 1
 1006 1390 l 1
 894 1278 l 1
 894 1194 l 1
 1032 1194 l 1
 1146 1306 l 1
 1286 1166 l 1
 1144 1026 l 1
 1032 1138 l 1
 993.333 1138 948 1136.67 896 1134 c 1
 912 1068.67 929.333 1012.67 948 966 c 1
 894 774 l 1
 894 732.667 896.667 706.667 902 696 c 1
 924.667 626.667 940 568 948 520 c 1
 925.333 468 907.333 412.667 894 354 c 1
 1032 354 l 1
 1146 466 l 1
 1286 326 l 1
 1144 186 l 1
 1032 298 l 1
 894 298 l 1
 894 214 l 1
 1006 102 l 1
 864 -38 l 1
 724 102 l 1
 836 214 l 1
 836 298 l 1
 698 298 l 1
 584 186 l 1
 444 326 l 1
 586 466 l 1
 698 354 l 1
 836 354 l 1
 806 470 l 1
 780 522 l 1
 800 598 818.667 665.333 836 724 c 1
 836 757.333 832.667 783.333 826 802 c 1
 780 968 l 1
 800 1009.33 814 1047.33 822 1082 c 1
 838 1138 l 1
 698 1138 l 1
 584 1026 l 1
 444 1166 l 1
 586 1306 l 1
 698 1194 l 1
 836 1194 l 1
 836 1278 l 1
 724 1390 l 1
 864 1530 l 1
EndSplineSet
EndChar
StartChar: paragraph
Encoding: 277 182 278
OldEncoding: 33271
Width: 2048
VWidth: 1024
Flags: HW
Fore
612 1474 m 1
 1230 1474 l 1
 1230 74 l 1
 1116 74 l 1
 1116 1418 l 1
 782 1418 l 1
 782 74 l 1
 668 74 l 1
 668 802 l 1
 628 800.667 559.333 826 462 878 c 1
 431.333 900.667 405.333 923.333 384 946 c 2
 332 998 l 1
 332 1278 l 1
 402.667 1348.67 461.333 1396.67 508 1422 c 2
 612 1474 l 1
EndSplineSet
EndChar
StartChar: nounicode-3-2-81f8
Encoding: 278 -1 279
OldEncoding: 33272
Width: 2048
VWidth: 1024
Flags: HW
Fore
2 2 m 0
EndSplineSet
EndChar
StartChar: nounicode-3-2-81f9
Encoding: 279 -1 280
OldEncoding: 33273
Width: 2048
VWidth: 1024
Flags: HW
Fore
2 2 m 0
EndSplineSet
EndChar
StartChar: nounicode-3-2-81fa
Encoding: 280 -1 281
OldEncoding: 33274
Width: 2048
VWidth: 1024
Flags: HW
Fore
2 2 m 0
EndSplineSet
EndChar
StartChar: nounicode-3-2-81fb
Encoding: 281 -1 282
OldEncoding: 33275
Width: 2048
VWidth: 1024
Flags: HW
Fore
2 2 m 0
EndSplineSet
EndChar
StartChar: uni25EF
Encoding: 282 9711 283
OldEncoding: 33276
Width: 2048
VWidth: 1024
Flags: HW
Fore
750 1586 m 1
 958 1586 l 2
 1014 1586 1080.67 1572 1158 1544 c 1
 1222 1524 1287.33 1498.67 1354 1468 c 1
 1388.67 1448 1454 1390 1550 1294 c 1
 1598 1242 1646 1146.67 1694 1008 c 1
 1734 888 l 1
 1734 682 l 2
 1734 626 1720 559.333 1692 482 c 1
 1642.67 334 1566 210 1462 110 c 0
 1396.67 47.3333 1296.67 -6.66667 1162 -52 c 2
 1036 -94 l 1
 834 -94 l 2
 782 -95.3333 719.333 -83.3333 646 -58 c 1
 448 16 l 1
 406.667 37.3333 341.333 92.6667 252 182 c 1
 209.333 227.333 179.333 268 162 304 c 0
 132.667 369.333 107.333 435.333 86 502 c 0
 64.6667 568.667 53.3333 634.667 52 700 c 1
 52 830 l 2
 52 870 66.6667 932 96 1016 c 0
 145.333 1158.67 219.333 1278.67 318 1376 c 1
 388.667 1442.67 532.667 1512.67 750 1586 c 1
808 1528 m 1
 590.667 1454.67 446.667 1384.67 376 1318 c 1
 286.667 1228.67 221.333 1133.33 180 1032 c 1
 116 840 l 1
 112 800 l 1
 112 670 l 1
 138.667 578 170.667 483.333 208 386 c 1
 238.667 324.667 282 266.667 338 212 c 1
 419.333 129.333 517.333 66.6667 632 24 c 1
 800 -32 l 1
 840 -36 l 1
 978 -36 l 1
 1252 60 l 1
 1314.67 90.6667 1382.67 144 1456 220 c 1
 1514.67 277.333 1559.33 343.333 1590 418 c 1
 1656 610 l 2
 1669.33 648.667 1675.33 691.333 1674 738 c 1
 1676.67 798 1654.67 895.333 1608 1030 c 1
 1565.33 1135.33 1502 1228.67 1418 1310 c 0
 1360.67 1367.33 1302.67 1408.67 1244 1434 c 1
 1052 1502 l 2
 1004 1518 962 1526.67 926 1528 c 2
 808 1528 l 1
EndSplineSet
EndChar
StartChar: nounicode-3-2-8240
Encoding: 283 -1 284
OldEncoding: 33344
Width: 2048
VWidth: 1024
Flags: HW
Fore
2 2 m 0
EndSplineSet
EndChar
StartChar: nounicode-3-2-8241
Encoding: 284 -1 285
OldEncoding: 33345
Width: 2048
VWidth: 1024
Flags: HW
Fore
2 2 m 0
EndSplineSet
EndChar
StartChar: nounicode-3-2-8242
Encoding: 285 -1 286
OldEncoding: 33346
Width: 2048
VWidth: 1024
Flags: HW
Fore
2 2 m 0
EndSplineSet
EndChar
StartChar: nounicode-3-2-8243
Encoding: 286 -1 287
OldEncoding: 33347
Width: 2048
VWidth: 1024
Flags: HW
Fore
2 2 m 0
EndSplineSet
EndChar
StartChar: nounicode-3-2-8244
Encoding: 287 -1 288
OldEncoding: 33348
Width: 2048
VWidth: 1024
Flags: HW
Fore
2 2 m 0
EndSplineSet
EndChar
StartChar: nounicode-3-2-8245
Encoding: 288 -1 289
OldEncoding: 33349
Width: 2048
VWidth: 1024
Flags: HW
Fore
2 2 m 0
EndSplineSet
EndChar
StartChar: nounicode-3-2-8246
Encoding: 289 -1 290
OldEncoding: 33350
Width: 2048
VWidth: 1024
Flags: HW
Fore
2 2 m 0
EndSplineSet
EndChar
StartChar: nounicode-3-2-8247
Encoding: 290 -1 291
OldEncoding: 33351
Width: 2048
VWidth: 1024
Flags: HW
Fore
2 2 m 0
EndSplineSet
EndChar
StartChar: nounicode-3-2-8248
Encoding: 291 -1 292
OldEncoding: 33352
Width: 2048
VWidth: 1024
Flags: HW
Fore
2 2 m 0
EndSplineSet
EndChar
StartChar: nounicode-3-2-8249
Encoding: 292 -1 293
OldEncoding: 33353
Width: 2048
VWidth: 1024
Flags: HW
Fore
2 2 m 0
EndSplineSet
EndChar
StartChar: nounicode-3-2-824a
Encoding: 293 -1 294
OldEncoding: 33354
Width: 2048
VWidth: 1024
Flags: HW
Fore
2 2 m 0
EndSplineSet
EndChar
StartChar: nounicode-3-2-824b
Encoding: 294 -1 295
OldEncoding: 33355
Width: 2048
VWidth: 1024
Flags: HW
Fore
2 2 m 0
EndSplineSet
EndChar
StartChar: nounicode-3-2-824c
Encoding: 295 -1 296
OldEncoding: 33356
Width: 2048
VWidth: 1024
Flags: HW
Fore
2 2 m 0
EndSplineSet
EndChar
StartChar: nounicode-3-2-824d
Encoding: 296 -1 297
OldEncoding: 33357
Width: 2048
VWidth: 1024
Flags: HW
Fore
2 2 m 0
EndSplineSet
EndChar
StartChar: nounicode-3-2-824e
Encoding: 297 -1 298
OldEncoding: 33358
Width: 2048
VWidth: 1024
Flags: HW
Fore
2 2 m 0
EndSplineSet
EndChar
StartChar: uniFF10
Encoding: 298 65296 299
OldEncoding: 33359
Width: 2048
VWidth: 1024
Flags: HW
Fore
986 1442 m 1
 1040.67 1439.33 1098.67 1420 1160 1384 c 1
 1216 1334.67 1261.33 1285.33 1296 1236 c 1
 1324 1192 1354.67 1134 1388 1062 c 1
 1409.33 1007.33 1428.67 944.667 1446 874 c 1
 1463.33 791.333 1471.33 695.333 1470 586 c 1
 1459.33 462 1430.67 338 1384 214 c 1
 1344 127.333 1303.33 56.6667 1262 2 c 1
 1203.33 -62 1146.67 -108.667 1092 -138 c 1
 1062.67 -150 1033.33 -156.667 1004 -158 c 1
 946.667 -154 890 -134 834 -98 c 1
 795.333 -67.3333 761.333 -34 732 2 c 1
 670.667 90 618.667 188.667 576 298 c 1
 548 396.667 530 486.667 522 568 c 1
 522 669.333 529.333 767.333 544 862 c 1
 573.333 976.667 613.333 1084 664 1184 c 1
 722.667 1270.67 784.667 1340.67 850 1394 c 1
 900.667 1420.67 946 1436.67 986 1442 c 1
992 1416 m 1
 966.667 1412 938 1400.67 906 1382 c 1
 868.667 1350 830 1302 790 1238 c 1
 747.333 1147.33 712 1048 684 940 c 1
 660 792 652 636 660 472 c 1
 674.667 369.333 698.667 270.667 732 176 c 1
 769.333 84 815.333 3.33333 870 -66 c 1
 911.333 -100.667 954.667 -122 1000 -130 c 1
 1037.33 -123.333 1070 -109.333 1098 -88 c 1
 1142 -46.6667 1183.33 10.6667 1222 84 c 1
 1260.67 170.667 1292 267.333 1316 374 c 1
 1328 440.667 1336 509.333 1340 580 c 0
 1344 629.333 1344 672.667 1340 710 c 0
 1334.67 791.333 1323.33 875.333 1306 962 c 1
 1283.33 1048.67 1254.67 1128.67 1220 1202 c 0
 1200 1243.33 1174 1285.33 1142 1328 c 1
 1110 1362.67 1072 1390.67 1028 1412 c 1
 992 1416 l 1
EndSplineSet
EndChar
StartChar: uniFF11
Encoding: 299 65297 300
OldEncoding: 33360
Width: 2048
VWidth: 1024
Flags: HW
Fore
1044 1442 m 2
 1048 1442 l 1
 1048 -58 l 1
 1298 -108 l 1
 1298 -132 l 1
 1294 -158 l 1
 696 -158 l 1
 696 -108 l 1
 946 -56 l 1
 946 1244 l 1
 910 1306.67 843.333 1339.33 746 1342 c 1
 746 1368 l 1
 843.333 1380 942.667 1404.67 1044 1442 c 2
EndSplineSet
EndChar
StartChar: uniFF12
Encoding: 300 65298 301
OldEncoding: 33361
Width: 2048
VWidth: 1024
Flags: HW
Fore
968 1442 m 1
 1028 1440.67 1094.67 1432 1168 1416 c 1
 1237.33 1388 1295.33 1357.33 1342 1324 c 1
 1394 1274.67 1432.67 1223.33 1458 1170 c 1
 1470 1115.33 1474.67 1051.33 1472 978 c 1
 1453.33 887.333 1417.33 800 1364 716 c 1
 1316 656 1266 603.333 1214 558 c 1
 914 312 l 1
 840.667 232 777.333 156.667 724 86 c 0
 668 8 668 8 624 -58 c 1
 1246 -54 l 1
 1300.67 -48.6667 1340.67 -36.6667 1366 -18 c 1
 1391.33 3.33333 1410.67 25.3333 1424 48 c 0
 1444 88 1444 88 1472 142 c 1
 1498 142 l 1
 1398 -158 l 1
 546 -158 l 1
 548 -56 l 1
 709.333 140 898 344 1114 556 c 1
 1172.67 618.667 1218 672 1250 716 c 1
 1287.33 773.333 1317.33 833.333 1340 896 c 1
 1357.33 956 1366.67 1024.67 1368 1102 c 1
 1356 1171.33 1324 1236.67 1272 1298 c 1
 1236 1330 1204 1354 1176 1370 c 1
 1117.33 1398 1054.67 1413.33 988 1416 c 1
 934.667 1410.67 871.333 1386 798 1342 c 1
 758 1308.67 728 1273.33 708 1236 c 1
 701.333 1209.33 698 1188.67 698 1174 c 0
 698 1099.33 687.333 1054.67 666 1040 c 1
 635.333 1033.33 612.667 1034 598 1042 c 1
 571.333 1062 559.333 1102 562 1162 c 1
 575.333 1208.67 594.667 1250.67 620 1288 c 1
 673.333 1336 740.667 1378 822 1414 c 1
 867.333 1426 916 1435.33 968 1442 c 1
EndSplineSet
EndChar
StartChar: uniFF13
Encoding: 301 65299 302
OldEncoding: 33362
Width: 2048
VWidth: 1024
Flags: HW
Fore
900 1446 m 1
 1008 1440.67 1099.33 1420.67 1174 1386 c 1
 1234 1347.33 1280 1298 1312 1238 c 1
 1322.67 1203.33 1330 1165.33 1334 1124 c 1
 1332.67 1060 1323.33 1006 1306 962 c 0
 1292.67 930 1271.33 898 1242 866 c 1
 1187.33 818 1130.67 782 1072 758 c 2
 964 716 l 2
 933.333 704 913.333 695.333 904 690 c 1
 1110 642 l 1
 1176.67 615.333 1237.33 586 1292 554 c 1
 1350.67 506 1394 450 1422 386 c 1
 1432.67 330 1436.67 272.667 1434 214 c 1
 1422 148.667 1400 92 1368 44 c 1
 1312 -21.3333 1230 -79.3333 1122 -130 c 1
 1054 -148.667 990 -158 930 -158 c 1
 856.667 -162 789.333 -154 728 -134 c 1
 668 -107.333 608.667 -62.6667 550 0 c 1
 499.333 85.3333 472.667 152 470 200 c 0
 470 234.667 474 260.667 482 278 c 1
 522 330 l 1
 574 342 l 1
 599.333 342 624.667 328.667 650 302 c 1
 670 263.333 670 202.667 650 120 c 1
 650 76 656 39.3333 668 10 c 1
 680 -11.3333 698.667 -34.6667 724 -60 c 1
 772 -90.6667 832.667 -109.333 906 -116 c 1
 1003.33 -108 1097.33 -78.6667 1188 -28 c 1
 1236 10.6667 1274.67 56 1304 108 c 1
 1324 157.333 1336 212 1340 272 c 1
 1332 353.333 1307.33 424 1266 484 c 1
 1204.67 537.333 1136 583.333 1060 622 c 1
 1009.33 639.333 952 655.333 888 670 c 1
 856 672.667 825.333 680 796 692 c 1
 814.667 700 832 705.333 848 708 c 0
 980 738.667 1080 787.333 1148 854 c 1
 1181.33 907.333 1206 967.333 1222 1034 c 1
 1228.67 1088.67 1226.67 1150 1216 1218 c 1
 1192 1274 1154.67 1320 1104 1356 c 1
 1057.33 1377.33 999.333 1391.33 930 1398 c 1
 898 1398 863.333 1396.67 826 1394 c 1
 790 1384.67 759.333 1368.67 734 1346 c 1
 726 1324.67 722 1300 722 1272 c 0
 719.333 1193.33 702.667 1142 672 1118 c 1
 628 1116.67 596 1133.33 576 1168 c 1
 569.333 1209.33 574.667 1252.67 592 1298 c 1
 621.333 1331.33 664 1364 720 1396 c 1
 786.667 1421.33 846.667 1438 900 1446 c 1
EndSplineSet
EndChar
StartChar: uniFF14
Encoding: 302 65300 303
OldEncoding: 33363
Width: 2048
VWidth: 1024
Flags: HW
Fore
1120 1442 m 1
 1148 1442 l 1
 1148 392 l 1
 1448 392 l 1
 1448 342 l 1
 1148 342 l 1
 1152 -60 l 1
 1298 -108 l 1
 1298 -158 l 1
 896 -158 l 1
 896 -108 l 1
 1046 -56 l 1
 1044 342 l 1
 446 342 l 1
 446 390 l 1
 1120 1442 l 1
1044 1234 m 1
 502 394 l 1
 1044 394 l 1
 1044 1234 l 1
EndSplineSet
EndChar
StartChar: uniFF15
Encoding: 303 65301 304
OldEncoding: 33364
Width: 2048
VWidth: 1024
Flags: HW
Fore
596 1442 m 1
 1348 1442 l 1
 1298 1342 l 1
 648 1342 l 1
 650 720 l 1
 739.333 776 823.333 814.667 902 836 c 1
 967.333 838.667 1029.33 836.667 1088 830 c 1
 1153.33 810 1214.67 780 1272 740 c 1
 1301.33 714.667 1322 694 1334 678 c 0
 1370 631.333 1401.33 573.333 1428 504 c 1
 1441.33 446.667 1448 381.333 1448 308 c 1
 1441.33 245.333 1424.67 182.667 1398 120 c 1
 1362 54.6667 1315.33 -4 1258 -56 c 1
 1198 -97.3333 1134.67 -127.333 1068 -146 c 1
 1022.67 -155.333 980 -159.333 940 -158 c 0
 858.667 -156.667 791.333 -146.667 738 -128 c 1
 668.667 -94.6667 608 -44 556 24 c 1
 534.667 66.6667 522 104.667 518 138 c 1
 516.667 174 518.667 199.333 524 214 c 0
 529.333 226 542 238 562 250 c 1
 584.667 252.667 604.667 250 622 242 c 1
 644.667 220.667 654 188.667 650 146 c 0
 647.333 115.333 641.333 93.3333 632 80 c 1
 624 46.6667 631.333 15.3333 654 -14 c 1
 707.333 -51.3333 767.333 -80.6667 834 -102 c 1
 886 -108 l 1
 968.667 -108 1038 -97.3333 1094 -76 c 1
 1148.67 -49.3333 1200.67 -8 1250 48 c 1
 1286 101.333 1314 160.667 1334 226 c 1
 1342 259.333 1346 284.667 1346 302 c 0
 1347.33 406 1329.33 504.667 1292 598 c 1
 1265.33 643.333 1225.33 688 1172 732 c 1
 1120 760 1067.33 779.333 1014 790 c 1
 920.667 790 820.667 764 714 712 c 1
 596 642 l 1
 596 1442 l 1
EndSplineSet
EndChar
StartChar: uniFF16
Encoding: 304 65302 305
OldEncoding: 33365
Width: 2048
VWidth: 1024
Flags: HW
Fore
990 1442 m 1
 1046 1440.67 1110 1422.67 1182 1388 c 0
 1248.67 1356 1300 1317.33 1336 1272 c 1
 1348 1220 l 1
 1348 1193.33 1336.67 1170 1314 1150 c 1
 1287.33 1139.33 1257.33 1147.33 1224 1174 c 1
 1206.67 1198 1194.67 1221.33 1188 1244 c 1
 1173.33 1312 1138 1358.67 1082 1384 c 1
 1046 1390.67 1006 1391.33 962 1386 c 1
 912.667 1364.67 867.333 1330 826 1282 c 1
 779.333 1203.33 742 1127.33 714 1054 c 1
 680.667 918 659.333 750.667 650 552 c 1
 690 617.333 733.333 676 780 728 c 1
 820 760 857.333 786.667 892 808 c 1
 946.667 828 1006.67 838 1072 838 c 1
 1128 830 1184 808 1240 772 c 1
 1288 724 1326.67 671.333 1356 614 c 1
 1377.33 551.333 1390.67 482.667 1396 408 c 1
 1396 298.667 1384 202 1360 118 c 1
 1334.67 52.6667 1298 -4.66667 1250 -54 c 1
 1212.67 -84.6667 1175.33 -108.667 1138 -126 c 0
 1110 -139.333 1070.67 -149.333 1020 -156 c 1
 974 -154 l 1
 912.667 -146 851.333 -122 790 -82 c 1
 707.333 -8.66667 638.667 83.3333 584 194 c 1
 553.333 314 541.333 468 548 656 c 1
 560 790.667 583.333 921.333 618 1048 c 1
 658 1136 700 1211.33 744 1274 c 1
 802.667 1340.67 855.333 1388 902 1416 c 1
 935.333 1429.33 964.667 1438 990 1442 c 1
1016 790 m 0
 976 787.333 935.333 777.333 894 760 c 1
 856.667 737.333 817.333 706.667 776 668 c 1
 741.333 622.667 705.333 568 668 504 c 0
 654.667 478.667 648.667 458 650 442 c 1
 647.333 324.667 656.667 229.333 678 156 c 1
 707.333 94.6667 745.333 38 792 -14 c 1
 828 -47.3333 871.333 -74 922 -94 c 0
 943.333 -100.667 964 -104 984 -104 c 2
 1022 -102 l 1
 1062 -94 1099.33 -78.6667 1134 -56 c 0
 1183.33 -22.6667 1222 24.6667 1250 86 c 1
 1266 131.333 1278.67 187.333 1288 254 c 1
 1294.67 348.667 1294 442.667 1286 536 c 1
 1271.33 600 1246 655.333 1210 702 c 1
 1172.67 735.333 1134 761.333 1094 780 c 1
 1062 786.667 1036 790 1016 790 c 0
EndSplineSet
EndChar
StartChar: uniFF17
Encoding: 305 65303 306
OldEncoding: 33366
Width: 2048
VWidth: 1024
Flags: HW
Fore
646 1442 m 1
 1448 1440 l 1
 1448 1402.67 1442 1377.33 1430 1364 c 1
 1170 948 l 1
 1094 805.333 1025.33 657.333 964 504 c 1
 874 204 l 1
 859.333 125.333 850.667 38.6667 848 -56 c 1
 849.333 -88 847.333 -114.667 842 -136 c 1
 822 -158 l 1
 779.333 -160.667 752 -144 740 -108 c 1
 756 32 788.667 176.667 838 326 c 1
 892.667 467.333 956 611.333 1028 758 c 1
 1110.67 904.667 1192.67 1039.33 1274 1162 c 1
 1396 1342 l 1
 696 1342 l 1
 596 1142 l 1
 570 1142 l 1
 646 1442 l 1
EndSplineSet
EndChar
StartChar: uniFF18
Encoding: 306 65304 307
OldEncoding: 33367
Width: 2048
VWidth: 1024
Flags: HW
Fore
982 1442 m 1
 1084.67 1431.33 1181.33 1400.67 1272 1350 c 1
 1330.67 1300.67 1372 1257.33 1396 1220 c 1
 1413.33 1182.67 1420 1136.67 1416 1082 c 1
 1389.33 1020.67 1338 960 1262 900 c 0
 1208.67 858.667 1158.67 824.667 1112 798 c 1
 1022 742 l 1
 1155.33 655.333 1275.33 568 1382 480 c 1
 1440.67 417.333 1484 358.667 1512 304 c 1
 1521.33 270.667 1524 232 1520 188 c 1
 1504 132 1474 79.3333 1430 30 c 1
 1382 -15.3333 1324 -56.6667 1256 -94 c 1
 1178.67 -128.667 1096 -150 1008 -158 c 1
 904 -151.333 808 -128 720 -88 c 1
 657.333 -53.3333 602 -12 554 36 c 1
 511.333 92 483.333 144 470 192 c 1
 472.667 256 486.667 312 512 360 c 1
 542.667 401.333 583.333 447.333 634 498 c 1
 920 718 l 1
 712 850 l 1
 656 892.667 607.333 937.333 566 984 c 1
 543.333 1020 528.667 1056 522 1092 c 1
 522 1122.67 529.333 1158.67 544 1200 c 1
 574.667 1244 615.333 1288 666 1332 c 1
 714 1364 760.667 1389.33 806 1408 c 1
 864.667 1426.67 923.333 1438 982 1442 c 1
988 1390 m 1
 934.667 1384.67 887.333 1372 846 1352 c 1
 812.667 1332 781.333 1309.33 752 1284 c 1
 697.333 1220 663.333 1156 650 1092 c 1
 652.667 1056 664 1020.67 684 986 c 1
 738.667 928.667 812 874 904 822 c 0
 937.333 802 968 784.667 996 770 c 1
 1049.33 807.333 1093.33 840.667 1128 870 c 0
 1208 942 1261.33 1007.33 1288 1066 c 1
 1294.67 1091.33 1295.33 1124.67 1290 1166 c 1
 1264.67 1223.33 1230.67 1272 1188 1312 c 1
 1145.33 1342.67 1098 1366.67 1046 1384 c 1
 988 1390 l 1
946 688 m 1
 776 550 l 1
 674.667 452.667 608.667 365.333 578 288 c 1
 575.333 256 574 223.333 574 190 c 1
 584.667 155.333 600.667 121.333 622 88 c 1
 668.667 33.3333 720 -12 776 -48 c 1
 853.333 -84 932 -102.667 1012 -104 c 1
 1050.67 -102.667 1102 -88.6667 1166 -62 c 1
 1218 -34 1272 8 1328 64 c 1
 1350.67 93.3333 1369.33 125.333 1384 160 c 1
 1392 189.333 1396 224 1396 264 c 1
 1384 308 1362.67 350.667 1332 392 c 1
 1301.33 428 1262 466.667 1214 508 c 1
 1132.67 566.667 1044 626.667 948 688 c 2
 946 688 l 1
EndSplineSet
EndChar
StartChar: uniFF19
Encoding: 307 65305 308
OldEncoding: 33368
Width: 2048
VWidth: 1024
Flags: HW
Fore
980 1442 m 1
 1017.33 1438 1053.33 1427.33 1088 1410 c 1
 1134.67 1378 1183.33 1331.33 1234 1270 c 1
 1292.67 1178 1336.67 1085.33 1366 992 c 1
 1384.67 909.333 1395.33 820 1398 724 c 1
 1395.33 569.333 1374.67 420 1336 276 c 1
 1293.33 157.333 1241.33 56 1180 -28 c 1
 1125.33 -86.6667 1067.33 -129.333 1006 -156 c 1
 946 -165.333 887.333 -164.667 830 -154 c 1
 764.667 -132.667 712.667 -104 674 -68 c 1
 654 -32 644 7.33333 644 50 c 1
 650.667 74 659.333 88 670 92 c 1
 718 92 745.333 76.6667 752 46 c 0
 772 -31.3333 809.333 -82.6667 864 -108 c 1
 897.333 -113.333 928 -114.667 956 -112 c 0
 998.667 -109.333 1038 -94 1074 -66 c 1
 1111.33 -27.3333 1144 21.3333 1172 80 c 1
 1201.33 158.667 1227.33 244.667 1250 338 c 1
 1270 450 1284 549.333 1292 636 c 1
 1225.33 573.333 1166 520.667 1114 478 c 1
 1076.67 451.333 1041.33 429.333 1008 412 c 1
 966.667 398.667 925.333 392.667 884 394 c 1
 854.667 400.667 830 410.667 810 424 c 0
 779.333 444 742.667 480 700 532 c 1
 653.333 618.667 620 710 600 806 c 1
 596 880.667 598.667 953.333 608 1024 c 1
 629.333 1110.67 663.333 1192.67 710 1270 c 1
 738 1307.33 772 1344 812 1380 c 1
 866.667 1416 922.667 1436.67 980 1442 c 1
974 1390 m 1
 946 1388.67 919.333 1379.33 894 1362 c 0
 880.667 1354 858.667 1333.33 828 1300 c 1
 796 1248 765.333 1187.33 736 1118 c 1
 712 1026 700.667 926 702 818 c 0
 703.333 763.333 710.667 712 724 664 c 0
 740 614.667 760.667 570 786 530 c 1
 815.333 492.667 846 466 878 450 c 1
 906 442 938 442 974 450 c 1
 1019.33 466 1062 490.667 1102 524 c 1
 1160.67 569.333 1224.67 625.333 1294 692 c 1
 1276 946 l 1
 1257.33 1036.67 1226 1126.67 1182 1216 c 1
 1163.33 1244 1141.33 1274 1116 1306 c 0
 1088 1339.33 1053.33 1366 1012 1386 c 1
 974 1390 l 1
EndSplineSet
EndChar
StartChar: nounicode-3-2-8259
Encoding: 308 -1 309
OldEncoding: 33369
Width: 2048
VWidth: 1024
Flags: HW
Fore
2 2 m 0
EndSplineSet
EndChar
StartChar: nounicode-3-2-825a
Encoding: 309 -1 310
OldEncoding: 33370
Width: 2048
VWidth: 1024
Flags: HW
Fore
2 2 m 0
EndSplineSet
EndChar
StartChar: nounicode-3-2-825b
Encoding: 310 -1 311
OldEncoding: 33371
Width: 2048
VWidth: 1024
Flags: HW
Fore
2 2 m 0
EndSplineSet
EndChar
StartChar: nounicode-3-2-825c
Encoding: 311 -1 312
OldEncoding: 33372
Width: 2048
VWidth: 1024
Flags: HW
Fore
2 2 m 0
EndSplineSet
EndChar
StartChar: nounicode-3-2-825d
Encoding: 312 -1 313
OldEncoding: 33373
Width: 2048
VWidth: 1024
Flags: HW
Fore
2 2 m 0
EndSplineSet
EndChar
StartChar: nounicode-3-2-825e
Encoding: 313 -1 314
OldEncoding: 33374
Width: 2048
VWidth: 1024
Flags: HW
Fore
2 2 m 0
EndSplineSet
EndChar
StartChar: nounicode-3-2-825f
Encoding: 314 -1 315
OldEncoding: 33375
Width: 2048
VWidth: 1024
Flags: HW
Fore
2 2 m 0
EndSplineSet
EndChar
StartChar: uniFF21
Encoding: 315 65313 316
OldEncoding: 33376
Width: 2048
VWidth: 1024
Flags: HW
Fore
1044 1442 m 1
 1048 1442 l 1
 1652 -60 l 1
 1798 -108 l 1
 1798 -158 l 1
 1346 -158 l 1
 1346 -108 l 1
 1492 -60 l 1
 1494 -54 l 1
 1318 392 l 1
 610 392 l 1
 402 -60 l 1
 548 -108 l 1
 548 -158 l 1
 196 -158 l 1
 196 -108 l 1
 342 -60 l 1
 996 1418 l 1
 1044 1442 l 1
980 1254 m 1
 630 444 l 1
 1294 444 l 1
 982 1254 l 1
 980 1254 l 1
EndSplineSet
EndChar
StartChar: uniFF22
Encoding: 316 65314 317
OldEncoding: 33377
Width: 2048
VWidth: 1024
Flags: HW
Fore
296 1442 m 1
 996 1442 l 2
 1069.33 1442 1138.67 1439.33 1204 1434 c 1
 1269.33 1418 1327.33 1390 1378 1350 c 1
 1426 1296.67 1459.33 1245.33 1478 1196 c 0
 1490 1161.33 1496.67 1111.33 1498 1046 c 1
 1484.67 991.333 1461.33 944 1428 904 c 1
 1357.33 836 1278.67 782 1192 742 c 1
 1050 692 l 1
 1155.33 664 1250 632.667 1334 598 c 1
 1432.67 548.667 1517.33 489.333 1588 420 c 1
 1612 386.667 1629.33 356 1640 328 c 1
 1646.67 301.333 1648.67 277.333 1646 256 c 0
 1640.67 202.667 1614.67 143.333 1568 78 c 1
 1530.67 32.6667 1476.67 -15.3333 1406 -66 c 1
 1280.67 -127.333 1049.33 -158 712 -158 c 2
 296 -158 l 1
 296 -108 l 1
 496 -56 l 1
 496 1342 l 1
 296 1392 l 1
 296 1442 l 1
650 1390 m 1
 650 720 l 1
 811.333 718.667 950 728.667 1066 750 c 1
 1128.67 770 1186.67 802 1240 846 c 1
 1273.33 884.667 1300.67 924 1322 964 c 1
 1336.67 998.667 1344 1038 1344 1082 c 0
 1342.67 1135.33 1329.33 1190.67 1304 1248 c 1
 1265.33 1305.33 1214.67 1346 1152 1370 c 1
 1113.33 1378 1067.33 1384 1014 1388 c 1
 650 1390 l 1
650 666 m 1
 650 -106 l 1
 1120 -100 l 1
 1188 -93.3333 1250.67 -76.6667 1308 -50 c 1
 1369.33 -3.33333 1417.33 48.6667 1452 106 c 1
 1480 164.667 1494 228 1494 296 c 1
 1478 357.333 1451.33 410 1414 454 c 1
 1374 494 1330 529.333 1282 560 c 1
 1168.67 610.667 1034.67 645.333 880 664 c 1
 650 666 l 1
EndSplineSet
EndChar
StartChar: uniFF23
Encoding: 317 65315 318
OldEncoding: 33378
Width: 2048
VWidth: 1024
Flags: HW
Fore
932 1444 m 1
 1026.67 1437.33 1131.33 1403.33 1246 1342 c 1
 1348 1442 l 1
 1448 1118 l 1
 1396 1092 l 1
 1316 1178.67 1235.33 1256 1154 1324 c 1
 1091.33 1364 1026 1386.67 958 1392 c 1
 904.667 1378.67 854.667 1353.33 808 1316 c 1
 760 1264 715.333 1203.33 674 1134 c 1
 646 1071.33 619.333 1003.33 594 930 c 1
 579.333 866 566 798.667 554 728 c 1
 550 629.333 552 532.667 560 438 c 1
 608 244 l 1
 637.333 174.667 668.667 115.333 702 66 c 0
 724.667 35.3333 744.667 12 762 -4 c 1
 820.667 -52 883.333 -85.3333 950 -104 c 1
 995.333 -105.333 1035.33 -103.333 1070 -98 c 1
 1123.33 -86 1179.33 -62.6667 1238 -28 c 1
 1290 10.6667 1334.67 55.3333 1372 106 c 1
 1416 176.667 1457.33 255.333 1496 342 c 1
 1548 342 l 1
 1514.67 256.667 1472.67 170 1422 82 c 1
 1380.67 26 1334.67 -21.3333 1284 -60 c 1
 1236 -92 1180.67 -118.667 1118 -140 c 1
 1048.67 -154.667 982 -158 918 -150 c 1
 856.667 -136.667 790.667 -108 720 -64 c 1
 661.333 -16 612 33.3333 572 84 c 1
 536 134.667 503.333 193.333 474 260 c 1
 439.333 346.667 415.333 433.333 402 520 c 1
 396.667 625.333 401.333 727.333 416 826 c 1
 430.667 887.333 447.333 943.333 466 994 c 0
 475.333 1023.33 485.333 1046.67 496 1064 c 0
 537.333 1142.67 581.333 1211.33 628 1270 c 1
 700 1339.33 768 1389.33 832 1420 c 1
 862.667 1430.67 896 1438.67 932 1444 c 1
EndSplineSet
EndChar
StartChar: uniFF24
Encoding: 318 65316 319
OldEncoding: 33379
Width: 2048
VWidth: 1024
Flags: HW
Fore
346 1442 m 1
 1038 1438 l 1
 1100.67 1434 1162 1425.33 1222 1412 c 1
 1312.67 1372 1392.67 1320 1462 1256 c 1
 1526 1178.67 1582.67 1087.33 1632 982 c 1
 1664 886 1684.67 796 1694 712 c 1
 1696.67 646.667 1694.67 577.333 1688 504 c 1
 1670.67 404 1643.33 310.667 1606 224 c 1
 1554 128 1490.67 44 1416 -28 c 1
 1366.67 -68 1311.33 -100 1250 -124 c 1
 1190 -140 1131.33 -149.333 1074 -152 c 1
 346 -158 l 1
 346 -108 l 1
 546 -56 l 1
 546 1342 l 1
 346 1392 l 1
 346 1442 l 1
700 1390 m 1
 700 -106 l 1
 1006 -104 l 1
 1111.33 -80 1204.67 -40.6667 1286 14 c 1
 1363.33 88.6667 1424.67 176 1470 276 c 1
 1494 337.333 1513.33 402.667 1528 472 c 1
 1540 568 1543.33 671.333 1538 782 c 1
 1520.67 890 1495.33 987.333 1462 1074 c 1
 1431.33 1135.33 1396.67 1191.33 1358 1242 c 1
 1298 1299.33 1230 1342 1154 1370 c 1
 1090 1380.67 1022 1387.33 950 1390 c 1
 700 1390 l 1
EndSplineSet
EndChar
StartChar: uniFF25
Encoding: 319 65317 320
OldEncoding: 33380
Width: 2048
VWidth: 1024
Flags: HW
Fore
246 1442 m 1
 1348 1442 l 1
 1472 1218 l 1
 1422 1192 l 1
 1375.33 1230.67 1330 1266 1286 1298 c 1
 1212.67 1342 1143.33 1370.67 1078 1384 c 1
 598 1392 l 1
 598 692 l 1
 1046 692 l 1
 1096 892 l 1
 1148 892 l 1
 1148 492 l 1
 1096 492 l 1
 1048 638 l 1
 1014 642 l 1
 598 642 l 1
 598 -108 l 1
 1038 -102 l 1
 1108.67 -95.3333 1188 -82 1276 -62 c 1
 1344 -40.6667 1400 -6.66667 1444 40 c 1
 1477.33 88 1511.33 147.333 1546 218 c 1
 1598 192 l 1
 1448 -158 l 1
 246 -158 l 1
 246 -108 l 1
 446 -30 l 1
 446 1342 l 1
 246 1392 l 1
 246 1442 l 1
EndSplineSet
EndChar
StartChar: uniFF26
Encoding: 320 65318 321
OldEncoding: 33381
Width: 2048
VWidth: 1024
Flags: HW
Fore
246 1442 m 1
 1348 1442 l 1
 1472 1218 l 1
 1422 1192 l 1
 1375.33 1230.67 1330 1266 1286 1298 c 1
 1212.67 1342 1143.33 1370.67 1078 1384 c 1
 598 1392 l 1
 598 692 l 1
 1046 692 l 1
 1096 892 l 1
 1148 892 l 1
 1148 492 l 1
 1096 492 l 1
 1048 638 l 1
 1014 642 l 1
 598 642 l 1
 600 -32 l 1
 798 -108 l 1
 798 -158 l 1
 246 -158 l 1
 246 -108 l 1
 446 -30 l 1
 446 1342 l 1
 246 1392 l 1
 246 1442 l 1
EndSplineSet
EndChar
StartChar: uniFF27
Encoding: 321 65319 322
OldEncoding: 33382
Width: 2048
VWidth: 1024
Flags: HW
Fore
932 1444 m 1
 1026.67 1437.33 1131.33 1403.33 1246 1342 c 1
 1348 1442 l 1
 1448 1118 l 1
 1396 1092 l 1
 1318.67 1176 1238.67 1253.33 1156 1324 c 1
 1109.33 1352 1069.33 1372 1036 1384 c 1
 1001.33 1389.33 962 1388 918 1380 c 1
 863.333 1353.33 811.333 1312 762 1256 c 1
 710 1178.67 662 1088 618 984 c 1
 576.667 834.667 552.667 690 546 550 c 1
 550 450 566 349.333 594 248 c 1
 606 216 620.667 182.667 638 148 c 1
 675.333 88 725.333 30.6667 788 -24 c 1
 841.333 -58.6667 896.667 -84 954 -100 c 1
 991.333 -105.333 1040.67 -109.333 1102 -112 c 1
 1160.67 -109.333 1214.67 -98.6667 1264 -80 c 0
 1297.33 -68 1326.67 -50.6667 1352 -28 c 1
 1388 13.3333 1402.67 92.6667 1396 210 c 1
 1397.33 262 1396 306.667 1392 344 c 1
 1246 392 l 1
 1246 442 l 1
 1698 442 l 1
 1698 392 l 1
 1548 340 l 1
 1548 -58 l 1
 1474.67 -60.6667 1388 -78.6667 1288 -112 c 1
 1184 -141.333 1081.33 -156 980 -156 c 1
 918.667 -146.667 853.333 -125.333 784 -92 c 1
 720 -49.3333 657.333 4.66667 596 70 c 1
 554.667 124.667 515.333 187.333 478 258 c 1
 440.667 354 414.667 448.667 400 542 c 1
 397.333 642 404 743.333 420 846 c 1
 444 930 468.667 1000.67 494 1058 c 1
 532.667 1132.67 578 1203.33 630 1270 c 1
 706 1342 775.333 1393.33 838 1424 c 1
 866 1430.67 897.333 1437.33 932 1444 c 1
EndSplineSet
EndChar
StartChar: uniFF28
Encoding: 322 65320 323
OldEncoding: 33383
Width: 2048
VWidth: 1024
Flags: HW
Fore
196 1442 m 1
 648 1442 l 1
 648 1392 l 1
 498 1340 l 1
 498 668 l 1
 1496 668 l 1
 1492 1344 l 1
 1346 1392 l 1
 1346 1442 l 1
 1798 1442 l 1
 1798 1392 l 1
 1648 1340 l 1
 1652 -60 l 1
 1798 -108 l 1
 1798 -158 l 1
 1346 -158 l 1
 1346 -108 l 1
 1496 -56 l 1
 1496 618 l 1
 498 618 l 1
 502 -60 l 1
 648 -108 l 1
 648 -158 l 1
 196 -158 l 1
 196 -108 l 1
 346 -56 l 1
 342 1344 l 1
 196 1392 l 1
 196 1442 l 1
EndSplineSet
EndChar
StartChar: uniFF29
Encoding: 323 65321 324
OldEncoding: 33384
Width: 2048
VWidth: 1024
Flags: HW
Fore
770 1442 m 1
 1222 1442 l 1
 1222 1392 l 1
 1072 1340 l 1
 1076 -60 l 1
 1222 -108 l 1
 1222 -158 l 1
 770 -158 l 1
 770 -108 l 1
 920 -56 l 1
 916 1344 l 1
 770 1392 l 1
 770 1442 l 1
EndSplineSet
EndChar
StartChar: uniFF2A
Encoding: 324 65322 325
OldEncoding: 33385
Width: 2048
VWidth: 1024
Flags: HW
Fore
770 1442 m 1
 1222 1442 l 1
 1222 1392 l 1
 1076 1344 l 1
 1072 1338 l 1
 1072 272 l 1
 1072 -40 l 1
 1068 -110.667 1056.67 -174 1038 -230 c 1
 1020.67 -262 999.333 -287.333 974 -306 c 1
 923.333 -332.667 863.333 -348.667 794 -354 c 0
 734 -358 670 -356.667 602 -350 c 1
 552.667 -339.333 516 -326.667 492 -312 c 1
 474.667 -285.333 471.333 -255.333 482 -222 c 1
 495.333 -199.333 512.667 -177.333 534 -156 c 1
 552.667 -144 570.667 -136 588 -132 c 1
 614.667 -136 646.667 -160.667 684 -206 c 1
 718.667 -243.333 753.333 -260.667 788 -258 c 1
 825.333 -246 856 -224.667 880 -194 c 1
 898.667 -162 910.667 -127.333 916 -90 c 1
 920 976 l 1
 916 1344 l 1
 770 1392 l 1
 770 1442 l 1
EndSplineSet
EndChar
StartChar: uniFF2B
Encoding: 325 65323 326
OldEncoding: 33386
Width: 2048
VWidth: 1024
Flags: HW
Fore
296 1442 m 1
 748 1442 l 1
 748 1392 l 1
 598 1340 l 1
 600 546 l 1
 1394 1344 l 1
 1270 1392 l 1
 1270 1442 l 1
 1748 1442 l 1
 1748 1392 l 1
 1528 1352 l 1
 1470 1340 l 1
 898 768 l 1
 1482 78 l 2
 1548 0 1548 0 1602 -60 c 1
 1798 -108 l 1
 1798 -158 l 1
 1346 -158 l 1
 1346 -108 l 1
 1444 -82 l 1
 798 666 l 1
 598 490 l 1
 602 -60 l 1
 748 -108 l 1
 748 -158 l 1
 296 -158 l 1
 296 -108 l 1
 446 -56 l 1
 442 1344 l 1
 296 1392 l 1
 296 1442 l 1
EndSplineSet
EndChar
StartChar: uniFF2C
Encoding: 326 65324 327
OldEncoding: 33387
Width: 2048
VWidth: 1024
Flags: HW
Fore
346 1442 m 1
 798 1442 l 1
 798 1392 l 1
 648 1340 l 1
 648 -108 l 1
 1104 -108 l 1
 1192 -112 1269.33 -109.333 1336 -100 c 1
 1384 -89.3333 1426.67 -69.3333 1464 -40 c 1
 1505.33 -1.33333 1540 37.3333 1568 76 c 0
 1592 109.333 1618 148 1646 192 c 1
 1672 192 l 1
 1624 -36 l 1
 1616 -86.6667 1606 -127.333 1594 -158 c 1
 320 -158 l 1
 320 -108 l 1
 496 -56 l 1
 492 1344 l 1
 346 1392 l 1
 346 1442 l 1
EndSplineSet
EndChar
StartChar: uniFF2D
Encoding: 327 65325 328
OldEncoding: 33388
Width: 2048
VWidth: 1024
Flags: HW
Fore
96 1442 m 1
 448 1442 l 1
 1018 48 l 1
 1024 48 l 1
 1546 1442 l 1
 1898 1442 l 1
 1898 1392 l 1
 1748 1340 l 1
 1752 -60 l 1
 1898 -108 l 1
 1898 -158 l 1
 1446 -158 l 1
 1446 -108 l 1
 1592 -60 l 1
 1594 1380 l 1
 998 -158 l 1
 946 -158 l 1
 298 1384 l 1
 302 -60 l 1
 448 -108 l 1
 448 -158 l 1
 96 -158 l 1
 96 -108 l 1
 246 -56 l 1
 242 1344 l 1
 96 1392 l 1
 96 1442 l 1
EndSplineSet
EndChar
StartChar: uniFF2E
Encoding: 328 65326 329
OldEncoding: 33389
Width: 2048
VWidth: 1024
Flags: HW
Fore
296 1442 m 1
 622 1442 l 1
 1446 98 l 1
 1442 1344 l 1
 1296 1392 l 1
 1296 1442 l 1
 1648 1442 l 1
 1648 1392 l 1
 1498 1340 l 1
 1498 -158 l 1
 1472 -158 l 1
 1444 -154 l 1
 498 1386 l 1
 502 -60 l 1
 648 -108 l 1
 648 -158 l 1
 270 -158 l 1
 270 -108 l 1
 446 -56 l 1
 442 1344 l 1
 296 1392 l 1
 296 1442 l 1
EndSplineSet
EndChar
StartChar: uniFF2F
Encoding: 329 65327 330
OldEncoding: 33390
Width: 2048
VWidth: 1024
Flags: HW
Fore
982 1442 m 1
 1042 1438 1103.33 1427.33 1166 1410 c 1
 1256.67 1362 1336.67 1304 1406 1236 c 1
 1478 1149.33 1536.67 1057.33 1582 960 c 1
 1606 896 1625.33 828.667 1640 758 c 1
 1648 650 1642.67 548 1624 452 c 1
 1601.33 369.333 1567.33 287.333 1522 206 c 1
 1467.33 119.333 1398.67 38.6667 1316 -36 c 1
 1254.67 -78.6667 1192 -112 1128 -136 c 1
 1081.33 -149.333 1042 -156.667 1010 -158 c 1
 919.333 -152.667 828 -125.333 736 -76 c 1
 669.333 -30.6667 596.667 38.6667 518 132 c 1
 480.667 189.333 444.667 254 410 326 c 1
 390 380.667 372 443.333 356 514 c 1
 348 612.667 350.667 710 364 806 c 1
 393.333 907.333 430 999.333 474 1082 c 1
 502 1128.67 539.333 1180 586 1236 c 1
 668.667 1310.67 752.667 1369.33 838 1412 c 1
 887.333 1426.67 935.333 1436.67 982 1442 c 1
988 1416 m 1
 934.667 1409.33 873.333 1384.67 804 1342 c 1
 745.333 1287.33 698.667 1235.33 664 1186 c 1
 634.667 1136.67 603.333 1076.67 570 1006 c 1
 540.667 910 518 811.333 502 710 c 1
 500.667 602 509.333 501.333 528 408 c 1
 561.333 298.667 606.667 194.667 664 96 c 1
 704 44 740.667 1.33333 774 -32 c 1
 847.333 -86.6667 923.333 -119.333 1002 -130 c 1
 1059.33 -123.333 1115.33 -103.333 1170 -70 c 1
 1224.67 -27.3333 1275.33 24.6667 1322 86 c 1
 1384.67 190 1430 290 1458 386 c 1
 1471.33 443.333 1482.67 508.667 1492 582 c 1
 1492 680.667 1483.33 776 1466 868 c 1
 1443.33 950.667 1414.67 1028.67 1380 1102 c 1
 1340 1172.67 1293.33 1237.33 1240 1296 c 1
 1197.33 1334.67 1148 1368 1092 1396 c 1
 1068 1405.33 1033.33 1412 988 1416 c 1
EndSplineSet
EndChar
StartChar: uniFF30
Encoding: 330 65328 331
OldEncoding: 33391
Width: 2048
VWidth: 1024
Flags: HW
Fore
296 1442 m 1
 988 1442 l 2
 1126.67 1442 1226 1431.33 1286 1410 c 1
 1324.67 1391.33 1361.33 1365.33 1396 1332 c 1
 1442.67 1268 1474.67 1200.67 1492 1130 c 1
 1498.67 1064.67 1492.67 998 1474 930 c 1
 1443.33 863.333 1407.33 810 1366 770 c 0
 1323.33 731.333 1274.67 702 1220 682 c 1
 1156 671.333 1078 666.667 986 668 c 2
 648 668 l 1
 652 -60 l 1
 848 -108 l 1
 848 -158 l 1
 296 -158 l 1
 296 -108 l 1
 496 -56 l 1
 496 1342 l 1
 296 1392 l 1
 296 1442 l 1
650 1390 m 1
 650 720 l 1
 1118 724 l 1
 1182 734.667 1237.33 768.667 1284 826 c 1
 1314.67 887.333 1334 954.667 1342 1028 c 1
 1342 1093.33 1334 1152.67 1318 1206 c 1
 1302 1248.67 1276.67 1288.67 1242 1326 c 1
 1187.33 1356.67 1133.33 1375.33 1080 1382 c 1
 650 1390 l 1
EndSplineSet
EndChar
StartChar: uniFF31
Encoding: 331 65329 332
OldEncoding: 33392
Width: 2048
VWidth: 1024
Flags: HW
Fore
982 1442 m 1
 1051.33 1436.67 1113.33 1422.67 1168 1400 c 1
 1253.33 1352 1338.67 1281.33 1424 1188 c 1
 1485.33 1106.67 1538.67 1015.33 1584 914 c 1
 1618.67 819.333 1640 725.333 1648 632 c 1
 1645.33 509.333 1623.33 398.667 1582 300 c 1
 1552.67 240 1519.33 186 1482 138 c 1
 1300 -60 l 1
 1422.67 -105.333 1563.33 -104.667 1722 -58 c 1
 1642 -120.667 1566.67 -167.333 1496 -198 c 1
 1469.33 -204.667 1444.67 -207.333 1422 -206 c 1
 1398 -208.667 1366.67 -200.667 1328 -182 c 1
 1286.67 -156.667 1250.67 -132 1220 -108 c 1
 1121.33 -144 1032.67 -158.667 954 -152 c 1
 894 -144 830 -122.667 762 -88 c 1
 679.333 -36 598 36 518 128 c 1
 463.333 209.333 416.667 301.333 378 404 c 1
 363.333 464 352.667 531.333 346 606 c 1
 350 706 366.667 808 396 912 c 1
 430.667 996 471.333 1074 518 1146 c 1
 552.667 1192.67 598 1244 654 1300 c 1
 690 1328 731.333 1356.67 778 1386 c 1
 851.333 1418 919.333 1436.67 982 1442 c 1
992 1416 m 1
 934.667 1404 878 1379.33 822 1342 c 1
 767.333 1288.67 718 1229.33 674 1164 c 1
 624.667 1077.33 582.667 985.333 548 888 c 1
 525.333 801.333 509.333 714 500 626 c 1
 501.333 516.667 518 414.667 550 320 c 1
 590 234.667 634 158 682 90 c 2
 744 0 l 1
 749.333 65.3333 761.333 116 780 152 c 1
 828 188 l 1
 862.667 196 885.333 198.667 896 196 c 1
 949.333 193.333 998.667 180.667 1044 158 c 0
 1070.67 143.333 1090.67 129.333 1104 116 c 0
 1153.33 70.6667 1192 30.6667 1220 -4 c 1
 1306.67 86.6667 1374 171.333 1422 250 c 1
 1462 343.333 1486.67 434 1496 522 c 1
 1496 623.333 1485.33 722 1464 818 c 1
 1430.67 928.667 1387.33 1035.33 1334 1138 c 1
 1299.33 1195.33 1262.67 1246 1224 1290 c 1
 1188 1327.33 1151.33 1358.67 1114 1384 c 1
 1071.33 1401.33 1030.67 1412 992 1416 c 1
922 126 m 1
 882 106 850.667 72 828 24 c 1
 825.333 -1.33333 824.667 -21.3333 826 -36 c 1
 842 -64 869.333 -84 908 -96 c 1
 981.333 -108 1058 -96 1138 -60 c 1
 1138 -50.6667 1126 -32 1102 -4 c 0
 1052.67 54.6667 1008.67 96 970 120 c 1
 943.333 124 927.333 126 922 126 c 1
EndSplineSet
EndChar
StartChar: uniFF32
Encoding: 332 65330 333
OldEncoding: 33393
Width: 2048
VWidth: 1024
Flags: HW
Fore
296 1442 m 1
 982 1442 l 2
 1052.67 1442 1122 1439.33 1190 1434 c 1
 1260.67 1418 1322 1392 1374 1356 c 1
 1423.33 1305.33 1458.67 1254 1480 1202 c 1
 1493.33 1155.33 1498.67 1112 1496 1072 c 0
 1492 1026.67 1475.33 976 1446 920 c 1
 1406 864 1358.67 818 1304 782 c 1
 1260 762 1192 748 1100 740 c 1
 1546 -82 l 1
 1698 -108 l 1
 1698 -158 l 1
 1420 -158 l 1
 922 742 l 1
 648 742 l 1
 652 -60 l 1
 848 -108 l 1
 848 -158 l 1
 296 -158 l 1
 296 -108 l 1
 496 -56 l 1
 496 1342 l 1
 296 1392 l 1
 296 1442 l 1
650 1390 m 1
 650 794 l 1
 1118 792 l 1
 1164.67 798.667 1200.67 809.333 1226 824 c 1
 1256.67 845.333 1282.67 875.333 1304 914 c 1
 1325.33 962 1338 1017.33 1342 1080 c 1
 1342 1134.67 1330 1189.33 1306 1244 c 1
 1283.33 1281.33 1250.67 1316 1208 1348 c 1
 1153.33 1368 1095.33 1381.33 1034 1388 c 1
 650 1390 l 1
EndSplineSet
EndChar
StartChar: uniFF33
Encoding: 333 65331 334
OldEncoding: 33394
Width: 2048
VWidth: 1024
Flags: HW
Fore
862 1468 m 1
 923.333 1462.67 980 1452 1032 1436 c 0
 1134.67 1404 1222 1391.33 1294 1398 c 1
 1344.67 1407.33 1396 1422 1448 1442 c 1
 1548 1142 l 1
 1498 1118 l 1
 1427.33 1172.67 1348 1230.67 1260 1292 c 1
 1190.67 1329.33 1127.33 1357.33 1070 1376 c 1
 1006 1388 938.667 1390 868 1382 c 1
 809.333 1367.33 750.667 1342 692 1306 c 1
 669.333 1288.67 641.333 1262 608 1226 c 1
 585.333 1190 567.333 1154 554 1118 c 1
 551.333 1079.33 551.333 1044 554 1012 c 1
 559.333 981.333 567.333 955.333 578 934 c 1
 616.667 874 660.667 826.667 710 792 c 1
 770 762.667 835.333 742 906 730 c 1
 1146 698 l 1
 1251.33 676.667 1351.33 640.667 1446 590 c 1
 1490 562 1539.33 522 1594 470 c 1
 1644.67 406 1678 345.333 1694 288 c 1
 1695.33 221.333 1681.33 161.333 1652 108 c 1
 1617.33 57.3333 1567.33 6 1502 -46 c 1
 1446 -83.3333 1384 -114.667 1316 -140 c 1
 1265.33 -154.667 1214 -163.333 1162 -166 c 0
 1115.33 -168.667 1066 -166.667 1014 -160 c 1
 950 -146.667 892 -130.667 840 -112 c 1
 762.667 -90.6667 699.333 -78.6667 650 -76 c 1
 591.333 -77.3333 514.667 -104.667 420 -158 c 1
 346 192 l 1
 396 218 l 1
 500 138 500 138 592 72 c 0
 658.667 26.6667 737.333 -17.3333 828 -60 c 1
 896 -85.3333 961.333 -102 1024 -110 c 1
 1090.67 -115.333 1157.33 -112 1224 -100 c 0
 1272 -89.3333 1314 -74.6667 1350 -56 c 0
 1390 -33.3333 1425.33 -5.33333 1456 28 c 0
 1488 65.3333 1513.33 106 1532 150 c 1
 1544 200.667 1542.67 256 1528 316 c 1
 1498.67 373.333 1457.33 424.667 1404 470 c 1
 1326.67 518 1236.67 553.333 1134 576 c 1
 874 608 l 1
 820.667 612 756.667 627.333 682 654 c 1
 614 686 555.333 727.333 506 778 c 1
 474 819.333 448 858.667 428 896 c 1
 410.667 938.667 400 991.333 396 1054 c 1
 401.333 1098 412.667 1140 430 1180 c 1
 475.333 1246.67 532.667 1308.67 602 1366 c 1
 660.667 1406 723.333 1437.33 790 1460 c 1
 862 1468 l 1
EndSplineSet
EndChar
StartChar: uniFF34
Encoding: 334 65332 335
OldEncoding: 33395
Width: 2048
VWidth: 1024
Flags: HW
Fore
396 1442 m 1
 1598 1442 l 1
 1748 1142 l 1
 1696 1118 l 1
 1652 1175.33 1600 1235.33 1540 1298 c 1
 1461.33 1359.33 1357.33 1390.67 1228 1392 c 2
 1072 1392 l 1
 1076 -60 l 1
 1222 -108 l 1
 1222 -158 l 1
 770 -158 l 1
 770 -108 l 1
 920 -56 l 1
 920 1392 l 1
 622 1388 l 1
 587.333 1381.33 562.667 1373.33 548 1364 c 0
 508 1341.33 471.333 1314.67 438 1284 c 1
 380.667 1218.67 334 1163.33 298 1118 c 1
 246 1142 l 1
 396 1442 l 1
EndSplineSet
EndChar
StartChar: uniFF35
Encoding: 335 65333 336
OldEncoding: 33396
Width: 2048
VWidth: 1024
Flags: HW
Fore
296 1442 m 1
 748 1442 l 1
 748 1392 l 1
 598 1340 l 1
 600 280 l 1
 608 228 630 169.333 666 104 c 1
 711.333 48 760 2 812 -34 c 1
 861.333 -62 903.333 -81.3333 938 -92 c 1
 992.667 -104 1050.67 -106.667 1112 -100 c 0
 1157.33 -93.3333 1198 -80 1234 -60 c 0
 1294 -26.6667 1350 18 1402 74 c 1
 1440.67 126 1470 184 1490 248 c 1
 1496 1314 l 1
 1492 1344 l 1
 1346 1392 l 1
 1346 1442 l 1
 1698 1442 l 1
 1698 1392 l 1
 1552 1344 l 1
 1548 296 l 1
 1540 226.667 1517.33 161.333 1480 100 c 1
 1445.33 50.6667 1396.67 2 1334 -46 c 0
 1296.67 -72.6667 1243.33 -100.667 1174 -130 c 1
 1119.33 -144.667 1062.67 -154 1004 -158 c 1
 944 -156.667 878 -144.667 806 -122 c 1
 750 -102 694 -72 638 -32 c 1
 602 -1.33333 570 29.3333 542 60 c 1
 514 102.667 490 144 470 184 c 1
 455.333 237.333 447.333 302 446 378 c 1
 442 1344 l 1
 296 1392 l 1
 296 1442 l 1
EndSplineSet
EndChar
StartChar: uniFF36
Encoding: 336 65334 337
OldEncoding: 33397
Width: 2048
VWidth: 1024
Flags: HW
Fore
296 1442 m 1
 748 1442 l 1
 748 1392 l 1
 598 1340 l 1
 1044 100 l 1
 1050 100 l 1
 1492 1344 l 1
 1346 1392 l 1
 1346 1442 l 1
 1698 1442 l 1
 1698 1392 l 1
 1552 1344 l 1
 996 -158 l 1
 664 750 l 1
 482 1246 l 1
 458 1312 l 2
 443.333 1353.33 430 1366.67 418 1352 c 1
 296 1392 l 1
 296 1442 l 1
EndSplineSet
EndChar
StartChar: uniFF37
Encoding: 337 65335 338
OldEncoding: 33398
Width: 2048
VWidth: 1024
Flags: HW
Fore
96 1442 m 1
 548 1442 l 1
 548 1392 l 1
 398 1340 l 1
 622 278 l 1
 916 1344 l 1
 770 1392 l 1
 770 1442 l 1
 1222 1442 l 1
 1222 1392 l 1
 1072 1340 l 1
 1420 226 l 1
 1642 1344 l 1
 1496 1392 l 1
 1496 1442 l 1
 1848 1442 l 1
 1848 1418 l 1
 1844 1390 l 1
 1700 1342 l 1
 1396 -158 l 1
 946 1258 l 1
 546 -158 l 1
 242 1344 l 1
 96 1392 l 1
 96 1442 l 1
EndSplineSet
EndChar
StartChar: uniFF38
Encoding: 338 65336 339
OldEncoding: 33399
Width: 2048
VWidth: 1024
Flags: HW
Fore
246 1442 m 1
 698 1442 l 1
 698 1392 l 1
 550 1342 l 1
 1022 720 l 1
 1544 1344 l 1
 1396 1392 l 1
 1396 1442 l 1
 1748 1442 l 1
 1748 1418 l 1
 1744 1390 l 1
 1598 1342 l 1
 1048 668 l 1
 1528 86 l 1
 1644 -54 l 1
 1676 -68 l 1
 1798 -108 l 1
 1798 -158 l 1
 1346 -158 l 1
 1320 -108 l 1
 1494 -60 l 1
 970 590 l 1
 400 -60 l 1
 548 -108 l 1
 548 -158 l 1
 196 -158 l 1
 196 -108 l 1
 314 -68 l 1
 334 -65.3333 363.333 -40.6667 402 6 c 1
 946 618 l 1
 494 1214 l 1
 400 1338 l 1
 368 1352 l 1
 246 1392 l 1
 246 1442 l 1
EndSplineSet
EndChar
StartChar: uniFF39
Encoding: 339 65337 340
OldEncoding: 33400
Width: 2048
VWidth: 1024
Flags: HW
Fore
246 1442 m 1
 698 1442 l 1
 698 1392 l 1
 550 1342 l 1
 1022 720 l 1
 1544 1344 l 1
 1396 1392 l 1
 1396 1442 l 1
 1748 1442 l 1
 1748 1392 l 1
 1604 1344 l 1
 1072 718 l 1
 1076 -60 l 1
 1222 -108 l 1
 1222 -158 l 1
 770 -158 l 1
 770 -108 l 1
 920 -56 l 1
 920 666 l 1
 520 1182 l 1
 400 1338 l 1
 368 1352 l 1
 246 1392 l 1
 246 1442 l 1
EndSplineSet
EndChar
StartChar: uniFF3A
Encoding: 340 65338 341
OldEncoding: 33401
Width: 2048
VWidth: 1024
Flags: HW
Fore
496 1442 m 1
 1648 1442 l 1
 524 -104 l 1
 526 -108 l 1
 1228 -106 l 1
 1310.67 -102 1382.67 -86.6667 1444 -60 c 1
 1492 -28 1534 9.33333 1570 52 c 1
 1600.67 85.3333 1626 115.333 1646 142 c 1
 1698 142 l 1
 1594 -158 l 1
 346 -158 l 1
 1444 1392 l 1
 750 1388 l 1
 703.333 1382.67 662.667 1372.67 628 1358 c 1
 588 1334 l 1
 552 1306 516.667 1270.67 482 1228 c 1
 422 1142 l 1
 396 1142 l 1
 496 1442 l 1
EndSplineSet
EndChar
StartChar: nounicode-3-2-827a
Encoding: 341 -1 342
OldEncoding: 33402
Width: 2048
VWidth: 1024
Flags: HW
Fore
2 2 m 0
EndSplineSet
EndChar
StartChar: nounicode-3-2-827b
Encoding: 342 -1 343
OldEncoding: 33403
Width: 2048
VWidth: 1024
Flags: HW
Fore
2 2 m 0
EndSplineSet
EndChar
StartChar: nounicode-3-2-827c
Encoding: 343 -1 344
OldEncoding: 33404
Width: 2048
VWidth: 1024
Flags: HW
Fore
2 2 m 0
EndSplineSet
EndChar
StartChar: nounicode-3-2-827d
Encoding: 344 -1 345
OldEncoding: 33405
Width: 2048
VWidth: 1024
Flags: HW
Fore
2 2 m 0
EndSplineSet
EndChar
StartChar: nounicode-3-2-827e
Encoding: 345 -1 346
OldEncoding: 33406
Width: 2048
VWidth: 1024
Flags: HW
Fore
2 2 m 0
EndSplineSet
EndChar
StartChar: nounicode-3-2-8280
Encoding: 346 -1 347
OldEncoding: 33408
Width: 2048
VWidth: 1024
Flags: HW
Fore
2 2 m 0
EndSplineSet
EndChar
StartChar: uniFF41
Encoding: 347 65345 348
OldEncoding: 33409
Width: 2048
VWidth: 1024
Flags: HW
Fore
982 992 m 1
 1074 986.667 1166.67 971.333 1260 946 c 1
 1309.33 918 1342.67 894.667 1360 876 c 1
 1386.67 838.667 1399.33 740 1398 580 c 1
 1400 58 l 1
 1409.33 -15.3333 1458.67 -54 1548 -58 c 1
 1516 -91.3333 1488 -117.333 1464 -136 c 0
 1449.33 -145.333 1426 -152.667 1394 -158 c 1
 1362 -152.667 1338.67 -144.667 1324 -134 c 1
 1301.33 -114 1280.67 -86.6667 1262 -52 c 2
 1242 -14 l 1
 1172.67 -79.3333 1108.67 -125.333 1050 -152 c 1
 1004.67 -160 964.667 -162 930 -158 c 0
 895.333 -155.333 856.667 -147.333 814 -134 c 1
 766 -112.667 723.333 -89.3333 686 -64 c 1
 647.333 -28 619.333 8 602 44 c 1
 595.333 85.3333 598.667 126 612 166 c 1
 636 206 666 244.667 702 282 c 1
 755.333 328.667 826.667 378.667 916 432 c 1
 996 466.667 1070 494.667 1138 516 c 1
 1246 544 l 1
 1246 740 l 2
 1246 797.333 1222 848.667 1174 894 c 1
 1148.67 910 1116 926 1076 942 c 1
 1024 944 l 1
 961.333 941.333 889.333 883.333 808 770 c 1
 770.667 730 734.667 704 700 692 c 1
 668 692 648 693.333 640 696 c 1
 633.333 713.333 634 742.667 642 784 c 1
 670 845.333 704 894 744 930 c 1
 788 956 l 1
 838.667 974.667 903.333 986.667 982 992 c 1
1238 488 m 1
 1068 438 l 1
 996 404.667 932 366 876 322 c 1
 828 272.667 790 225.333 762 180 c 1
 752.667 153.333 748.667 122 750 86 c 0
 752.667 52.6667 776.667 16 822 -24 c 1
 872.667 -52 921.333 -68.6667 968 -74 c 1
 1040 -78 1113.33 -54.6667 1188 -4 c 1
 1244 42 l 1
 1244 484 l 1
 1238 488 l 1
EndSplineSet
EndChar
StartChar: uniFF42
Encoding: 348 65346 349
OldEncoding: 33410
Width: 2048
VWidth: 1024
Flags: HW
Fore
740 1442 m 1
 748 1442 l 1
 750 748 l 1
 836 850 l 1
 902.667 914 961.333 958.667 1012 984 c 1
 1066 990 l 1
 1103.33 990 1142.67 980 1184 960 c 1
 1222.67 933.333 1257.33 901.333 1288 864 c 1
 1325.33 813.333 1360 754 1392 686 c 1
 1422.67 596.667 1441.33 498 1448 390 c 1
 1438.67 286 1414 187.333 1374 94 c 1
 1334 23.3333 1288 -37.3333 1236 -88 c 1
 1204 -114.667 1167.33 -135.333 1126 -150 c 1
 1064.67 -158 1004 -148.667 944 -122 c 1
 885.333 -83.3333 822 -30.6667 754 36 c 1
 744 36 l 1
 596 -158 l 1
 596 1292 l 1
 396 1342 l 1
 396 1392 l 1
 740 1442 l 1
1044 940 m 1
 989.333 922.667 918 867.333 830 774 c 1
 750 666 l 1
 750 146 l 1
 794 90 829.333 48 856 20 c 2
 894 -20 l 1
 954 -70.6667 1008.67 -99.3333 1058 -106 c 1
 1087.33 -102 1116.67 -86.6667 1146 -60 c 1
 1180.67 -20 1212.67 35.3333 1242 106 c 1
 1266 179.333 1282 262.667 1290 356 c 1
 1292.67 433.333 1289.33 506.667 1280 576 c 0
 1272 625.333 1260 672.667 1244 718 c 0
 1229.33 763.333 1204 813.333 1168 868 c 1
 1128 909.333 1086.67 933.333 1044 940 c 1
EndSplineSet
EndChar
StartChar: uniFF43
Encoding: 349 65347 350
OldEncoding: 33411
Width: 2048
VWidth: 1024
Flags: HW
Fore
1060 1002 m 1
 1138.67 998 1218 978 1298 942 c 1
 1348.67 914 1387.33 884.667 1414 854 c 1
 1422 839.333 1424.67 819.333 1422 794 c 1
 1407.33 771.333 1382 754 1346 742 c 1
 1324 748 l 1
 1300 778.667 1282 811.333 1270 846 c 1
 1243.33 899.333 1198.67 936.667 1136 958 c 1
 1062.67 956.667 997.333 943.333 940 918 c 1
 896 892.667 857.333 862 824 826 c 0
 796 794 778.667 770 772 754 c 0
 746.667 698 726 636 710 568 c 1
 700.667 468 701.333 367.333 712 266 c 1
 736 166 768.667 78 810 2 c 1
 859.333 -58 912.667 -100.667 970 -126 c 1
 1022 -132 l 1
 1066 -133.333 1109.33 -127.333 1152 -114 c 0
 1214.67 -91.3333 1280 -53.3333 1348 0 c 1
 1446 92 l 1
 1498 92 l 1
 1460.67 44 1410.67 -9.33333 1348 -68 c 1
 1301.33 -108 1242.67 -140.667 1172 -166 c 1
 1112 -180.667 1045.33 -184.667 972 -178 c 1
 909.333 -162 850.667 -134.667 796 -96 c 1
 748 -58.6667 702.667 -10.6667 660 48 c 1
 626.667 101.333 598 159.333 574 222 c 1
 560.667 270 551.333 337.333 546 424 c 1
 552.667 490.667 564.667 550 582 602 c 1
 603.333 654 630.667 705.333 664 756 c 1
 714.667 817.333 768 870 824 914 c 1
 904 959.333 982.667 988.667 1060 1002 c 1
EndSplineSet
EndChar
StartChar: uniFF44
Encoding: 350 65348 351
OldEncoding: 33412
Width: 2048
VWidth: 1024
Flags: HW
Fore
1490 1442 m 1
 1498 1442 l 1
 1502 -60 l 1
 1698 -108 l 1
 1698 -158 l 1
 1346 -158 l 1
 1344 -12 l 1
 1302.67 -65.3333 1257.33 -108 1208 -140 c 1
 1169.33 -158.667 1129.33 -171.333 1088 -178 c 1
 1024 -182 954.667 -172 880 -148 c 1
 793.333 -98.6667 715.333 -30.6667 646 56 c 1
 600.667 136 568.667 226 550 326 c 1
 547.333 386 551.333 454 562 530 c 1
 580.667 594 604.667 658 634 722 c 1
 662 768.667 691.333 811.333 722 850 c 0
 732.667 863.333 759.333 888.667 802 926 c 1
 839.333 952.667 885.333 975.333 940 994 c 1
 981.333 994 1020 992.667 1056 990 c 1
 1102.67 972.667 1142 950 1174 922 c 1
 1227.33 870 1271.33 809.333 1306 740 c 1
 1346 650 l 1
 1346 1292 l 1
 1146 1342 l 1
 1146 1392 l 1
 1490 1442 l 1
976 940 m 1
 941.333 928 907.333 908 874 880 c 1
 844.667 845.333 819.333 810.667 798 776 c 1
 768.667 714.667 743.333 647.333 722 574 c 1
 707.333 475.333 702 380 706 288 c 1
 712.667 240 727.333 185.333 750 124 c 1
 780.667 57.3333 822.667 -3.33333 876 -58 c 1
 930.667 -96.6667 985.333 -120 1040 -128 c 1
 1114 -126 l 1
 1171.33 -118 1227.33 -90.6667 1282 -44 c 0
 1326 -5.33333 1346.67 24.6667 1344 46 c 1
 1344 514 l 1
 1345.33 566 1338.67 606.667 1324 636 c 0
 1284 721.333 1243.33 788 1202 836 c 1
 1160.67 877.333 1114 910.667 1062 936 c 1
 1035.33 938.667 1006.67 940 976 940 c 1
EndSplineSet
EndChar
StartChar: uniFF45
Encoding: 351 65349 352
OldEncoding: 33413
Width: 2048
VWidth: 1024
Flags: HW
Fore
990 992 m 1
 1084.67 986.667 1170.67 964.667 1248 926 c 1
 1306.67 883.333 1360 826.667 1408 756 c 1
 1440 684 1463.33 612.667 1478 542 c 2
 1498 442 l 1
 698 442 l 1
 698 260.667 722.667 122 772 26 c 1
 817.333 -32.6667 874.667 -80.6667 944 -118 c 1
 989.333 -131.333 1042 -135.333 1102 -130 c 1
 1164.67 -112.667 1222.67 -87.3333 1276 -54 c 1
 1326.67 -18 1383.33 30.6667 1446 92 c 1
 1498 92 l 1
 1460.67 44 1410.67 -9.33333 1348 -68 c 0
 1313.33 -100 1258 -132 1182 -164 c 1
 1114 -178.667 1048.67 -184 986 -180 c 1
 936.667 -169.333 896 -156.667 864 -142 c 1
 817.333 -112.667 765.333 -71.3333 708 -18 c 1
 662.667 42 626.667 100.667 600 158 c 1
 581.333 204.667 567.333 246.667 558 284 c 1
 552.667 326.667 549.333 368 548 408 c 0
 548 454.667 551.333 495.333 558 530 c 1
 578 607.333 603.333 676.667 634 738 c 1
 676.667 800.667 720.667 852.667 766 894 c 1
 799.333 922 848 950 912 978 c 1
 990 992 l 1
990 940 m 1
 947.333 932 902.667 912.667 856 882 c 1
 805.333 832.667 767.333 780.667 742 726 c 1
 724.667 662 712.667 602 706 546 c 2
 700 494 l 1
 1344 494 l 1
 1333.33 602 1316 687.333 1292 750 c 1
 1260 804.667 1218 852.667 1166 894 c 1
 1111.33 920.667 1052.67 936 990 940 c 1
EndSplineSet
EndChar
StartChar: uniFF46
Encoding: 352 65350 353
OldEncoding: 33414
Width: 2048
VWidth: 1024
Flags: HW
Fore
1140 1468 m 1
 1196 1464 1240 1456 1272 1444 c 0
 1298.67 1432 1320.67 1416 1338 1396 c 1
 1350 1372 1349.33 1346.67 1336 1320 c 1
 1305.33 1293.33 1268.67 1292 1226 1316 c 1
 1182 1356 1148 1381.33 1124 1392 c 1
 1105.33 1381.33 1089.33 1348.67 1076 1294 c 1
 1072 992 l 1
 1298 992 l 1
 1298 942 l 1
 1072 942 l 1
 1076 -60 l 1
 1126.67 -73.3333 1184 -89.3333 1248 -108 c 1
 1248 -158 l 1
 770 -158 l 1
 770 -108 l 1
 920 -56 l 1
 920 942 l 1
 696 942 l 1
 696 992 l 1
 920 994 l 1
 920 1191.33 939.333 1322 978 1386 c 1
 1027.33 1430 1081.33 1457.33 1140 1468 c 1
EndSplineSet
EndChar
StartChar: uniFF47
Encoding: 353 65351 354
OldEncoding: 33415
Width: 2048
VWidth: 1024
Flags: HW
Fore
980 992 m 1
 1042.67 982.667 1115.33 950 1198 894 c 1
 1246 944.667 1291.33 976.667 1334 990 c 1
 1380.67 990 1418.67 980.667 1448 962 c 1
 1465.33 939.333 1472.67 918 1470 898 c 1
 1454 846 l 1
 1444 842 l 1
 1422.67 846 1396 862.667 1364 892 c 1
 1322 918 l 1
 1300 914 l 1
 1281.33 892.667 1264 868.667 1248 842 c 1
 1317.33 775.333 1362.67 724 1384 688 c 1
 1394.67 660 1398 629.333 1394 596 c 0
 1391.33 569.333 1384 545.333 1372 524 c 0
 1354.67 492 1336 466 1316 446 c 0
 1254.67 388.667 1190.67 344 1124 312 c 1
 1092 301.333 1066.67 296 1048 296 c 0
 985.333 293.333 918.667 308.667 848 342 c 1
 792 312 792 312 744 286 c 1
 700 246 l 1
 698 226 l 1
 702 218 l 1
 747.333 195.333 806 178 878 166 c 2
 1158 116 l 1
 1354 62 l 1
 1400.67 42 1436.67 22.6667 1462 4 c 1
 1490 -28 1500 -58.6667 1492 -88 c 1
 1477.33 -118.667 1461.33 -140 1444 -152 c 1
 1396 -190.667 1333.33 -226 1256 -258 c 1
 1200 -276.667 1137.33 -291.333 1068 -302 c 1
 969.333 -307.333 872.667 -301.333 778 -284 c 1
 734 -273.333 685.333 -256.667 632 -234 c 1
 578.667 -208.667 536 -180 504 -148 c 1
 484 -124 472.667 -100 470 -76 c 1
 472.667 -50.6667 491.333 -20.6667 526 14 c 1
 582 50 636.667 80 690 104 c 1
 766 144 l 1
 731.333 152 697.333 162.667 664 176 c 1
 632 184 601.333 196.667 572 214 c 1
 546 242 l 1
 552 262 l 1
 577.333 280.667 615.333 301.333 666 324 c 1
 794 366 l 1
 788.667 372.667 778 382.667 762 396 c 1
 696.667 458.667 650 511.333 622 554 c 1
 610 575.333 602 607.333 598 650 c 1
 606 711.333 636 776.667 688 846 c 1
 750.667 903.333 812.667 946 874 974 c 1
 907.333 983.333 942.667 989.333 980 992 c 1
992 940 m 1
 945.333 933.333 902.667 915.333 864 886 c 1
 838.667 859.333 814.667 830 792 798 c 1
 770 746 l 1
 760.667 712.667 754.667 672 752 624 c 1
 758.667 569.333 776 516.667 804 466 c 1
 852 411.333 900.667 372.667 950 350 c 1
 976.667 347.333 992.667 345.333 998 344 c 1
 1056.67 354.667 1109.33 382 1156 426 c 1
 1188 464.667 1211.33 503.333 1226 542 c 1
 1238 580.667 1242.67 628.667 1240 686 c 1
 1225.33 743.333 1202 795.333 1170 842 c 1
 1116.67 895.333 1057.33 928 992 940 c 1
822 140 m 1
 694 48 l 1
 666 20 644.667 -6.66667 630 -32 c 1
 626 -57.3333 626.667 -80 632 -100 c 1
 648 -126.667 668 -149.333 692 -168 c 1
 733.333 -194.667 778.667 -216.667 828 -234 c 1
 910.667 -251.333 985.333 -256.667 1052 -250 c 1
 1092 -243.333 1119.33 -235.333 1134 -226 c 1
 1190 -206 1237.33 -180 1276 -148 c 0
 1306.67 -124 1328.67 -96 1342 -64 c 1
 1344.67 -49.3333 1341.33 -31.3333 1332 -10 c 1
 1313.33 10 1290.67 26 1264 38 c 0
 1217.33 56.6667 1169.33 72 1120 84 c 1
 822 140 l 1
EndSplineSet
EndChar
StartChar: uniFF48
Encoding: 354 65352 355
OldEncoding: 33416
Width: 2048
VWidth: 1024
Flags: HW
Fore
690 1442 m 1
 698 1442 l 1
 700 746 l 1
 754.667 800.667 807.333 848 858 888 c 1
 924.667 921.333 992.667 940.667 1062 946 c 1
 1128.67 940.667 1196 925.333 1264 900 c 1
 1306.67 880 1344.67 854.667 1378 824 c 1
 1424.67 769.333 1448 692.667 1448 594 c 1
 1452 -60 l 1
 1598 -108 l 1
 1598 -158 l 1
 1146 -158 l 1
 1146 -108 l 1
 1296 -56 l 1
 1296 638 l 2
 1296 708.667 1262.67 774 1196 834 c 1
 1120 872.667 1042.67 890.667 964 888 c 1
 918.667 874.667 876 855.333 836 830 c 1
 788 787.333 742 741.333 698 692 c 1
 702 -60 l 1
 848 -108 l 1
 848 -158 l 1
 396 -158 l 1
 396 -108 l 1
 546 -56 l 1
 546 1292 l 1
 346 1342 l 1
 346 1392 l 1
 690 1442 l 1
EndSplineSet
EndChar
StartChar: uniFF49
Encoding: 355 65353 356
OldEncoding: 33417
Width: 2048
VWidth: 1024
Flags: HW
Fore
992 1442 m 1
 1028 1436.67 1058.67 1418.67 1084 1388 c 1
 1096 1356 1094.67 1323.33 1080 1290 c 1
 1058.67 1264.67 1032 1248.67 1000 1242 c 1
 958.667 1250 926 1273.33 902 1312 c 1
 898 1338.67 898.667 1360 904 1376 c 1
 921.333 1405.33 934 1421.33 942 1424 c 2
 992 1442 l 1
1064 942 m 1
 1072 942 l 1
 1076 -60 l 1
 1222 -108 l 1
 1222 -158 l 1
 770 -158 l 1
 770 -108 l 1
 920 -56 l 1
 916 794 l 1
 866.667 806 810 822 746 842 c 1
 746 892 l 1
 1064 942 l 1
EndSplineSet
EndChar
StartChar: uniFF4A
Encoding: 356 65354 357
OldEncoding: 33418
Width: 2048
VWidth: 1024
Flags: HW
Fore
992 1442 m 1
 1028 1436.67 1058.67 1418.67 1084 1388 c 1
 1096 1356 1094.67 1323.33 1080 1290 c 1
 1058.67 1264.67 1032 1248.67 1000 1242 c 1
 958.667 1250 926 1273.33 902 1312 c 1
 898 1338.67 898.667 1360 904 1376 c 1
 921.333 1405.33 934 1421.33 942 1424 c 2
 992 1442 l 1
1064 942 m 1
 1072 942 l 1
 1070 -120 l 1
 1066 -152 1054 -186.667 1034 -224 c 1
 995.333 -270.667 958 -302 922 -318 c 0
 895.333 -328.667 844.667 -332.667 770 -330 c 1
 728.667 -323.333 691.333 -310 658 -290 c 1
 632.667 -267.333 620.667 -237.333 622 -200 c 1
 635.333 -173.333 648 -156 660 -148 c 0
 680 -136 703.333 -133.333 730 -140 c 1
 758 -158.667 776.667 -176.667 786 -194 c 1
 822 -240.667 850 -270 870 -282 c 1
 882 -278 891.333 -266.667 898 -248 c 1
 914 -177.333 921.333 -82.6667 920 36 c 1
 916 794 l 1
 866.667 806 810 822 746 842 c 1
 746 892 l 1
 1064 942 l 1
EndSplineSet
EndChar
StartChar: uniFF4B
Encoding: 357 65355 358
OldEncoding: 33419
Width: 2048
VWidth: 1024
Flags: HW
Fore
740 1442 m 1
 748 1442 l 1
 750 296 l 1
 1320 892 l 1
 1146 892 l 1
 1146 942 l 1
 1548 942 l 1
 1548 892 l 1
 1372 892 l 1
 1002 464 l 1
 1472 14 l 1
 1552 -60 l 1
 1698 -108 l 1
 1698 -158 l 1
 1196 -158 l 1
 1196 -108 l 1
 1344 -60 l 1
 1136 142 1136 142 898 366 c 1
 748 242 l 1
 752 -60 l 1
 898 -108 l 1
 898 -158 l 1
 446 -158 l 1
 446 -108 l 1
 596 -56 l 1
 596 1318 l 1
 396 1342 l 1
 396 1392 l 1
 740 1442 l 1
EndSplineSet
EndChar
StartChar: uniFF4C
Encoding: 358 65356 359
OldEncoding: 33420
Width: 2048
VWidth: 1024
Flags: HW
Fore
1064 1442 m 1
 1072 1442 l 1
 1076 -60 l 1
 1222 -108 l 1
 1222 -158 l 1
 770 -158 l 1
 770 -108 l 1
 920 -56 l 1
 920 1292 l 1
 720 1342 l 1
 720 1392 l 1
 1064 1442 l 1
EndSplineSet
EndChar
StartChar: uniFF4D
Encoding: 359 65357 360
OldEncoding: 33421
Width: 2048
VWidth: 1024
Flags: HW
Fore
696 952 m 1
 754.667 952 813.333 944 872 928 c 1
 942.667 894.667 994 859.333 1026 822 c 1
 1047.33 791.333 1062.67 765.333 1072 744 c 1
 1180 838 l 1
 1216 863.333 1252.67 887.333 1290 910 c 1
 1352.67 934 1420.67 942 1494 934 c 1
 1556.67 915.333 1614.67 884 1668 840 c 1
 1721.33 776 1748 692.667 1748 590 c 2
 1748 -34 l 1
 1898 -108 l 1
 1898 -158 l 1
 1446 -158 l 1
 1446 -108 l 1
 1592 -60 l 1
 1596 -54 l 1
 1596 648 l 2
 1596 694.667 1584 742.667 1560 792 c 1
 1530.67 830.667 1500.67 860 1470 880 c 1
 1424.67 900 1371.33 902.667 1310 888 c 1
 1243.33 852 1164 795.333 1072 718 c 1
 1076 -60 l 1
 1222 -108 l 1
 1222 -158 l 1
 770 -158 l 1
 770 -108 l 1
 920 -56 l 1
 920 638 l 2
 920 684.667 910.667 727.333 892 766 c 1
 856 807.333 819.333 838 782 858 c 1
 728.667 880.667 672.667 890 614 886 c 1
 559.333 868.667 488 814 400 722 c 1
 402 -60 l 1
 548 -108 l 1
 548 -158 l 1
 96 -158 l 1
 96 -108 l 1
 246 -56 l 1
 242 794 l 1
 96 842 l 1
 96 892 l 1
 398 942 l 1
 400 748 l 1
 468 824 528.667 880 582 916 c 1
 624.667 933.333 662.667 945.333 696 952 c 1
EndSplineSet
EndChar
StartChar: uniFF4E
Encoding: 360 65358 361
OldEncoding: 33422
Width: 2048
VWidth: 1024
Flags: HW
Fore
1050 946 m 1
 1114 942 1176.67 930.667 1238 912 c 1
 1304.67 881.333 1363.33 838.667 1414 784 c 1
 1436.67 744 1448 663.333 1448 542 c 1
 1452 -60 l 1
 1598 -108 l 1
 1598 -158 l 1
 1146 -158 l 1
 1146 -108 l 1
 1296 -56 l 1
 1296 638 l 2
 1296 688.667 1282 735.333 1254 778 c 1
 1220.67 811.333 1184 838.667 1144 860 c 1
 1104 877.333 1055.33 888 998 892 c 1
 950 888 898 870.667 842 840 c 1
 794 804 746 763.333 698 718 c 1
 702 -60 l 1
 848 -108 l 1
 848 -158 l 1
 396 -158 l 1
 396 -108 l 1
 546 -56 l 1
 542 794 l 1
 396 842 l 1
 396 892 l 1
 698 942 l 1
 700 746 l 1
 781.333 826 856 884.667 924 922 c 1
 964 935.333 1006 943.333 1050 946 c 1
EndSplineSet
EndChar
StartChar: uniFF4F
Encoding: 361 65359 362
OldEncoding: 33423
Width: 2048
VWidth: 1024
Flags: HW
Fore
986 942 m 1
 1043.33 939.333 1102.67 926.667 1164 904 c 1
 1224 870.667 1280.67 828.667 1334 778 c 1
 1383.33 720.667 1423.33 659.333 1454 594 c 1
 1476.67 534 1490.67 474 1496 414 c 1
 1496 364.667 1490.67 315.333 1480 266 c 1
 1461.33 204.667 1434 144.667 1398 86 c 1
 1359.33 32.6667 1315.33 -14.6667 1266 -56 c 1
 1203.33 -98.6667 1138.67 -130 1072 -150 c 1
 1046.67 -154 1024 -156.667 1004 -158 c 1
 913.333 -148.667 825.333 -118 740 -66 c 1
 657.333 8.66667 588.667 96.6667 534 198 c 1
 512.667 267.333 500 333.333 496 396 c 1
 504 472 520.667 544 546 612 c 1
 575.333 666.667 609.333 718 648 766 c 1
 694.667 812.667 740.667 850.667 786 880 c 1
 856.667 913.333 923.333 934 986 942 c 1
984 890 m 0
 954.667 887.333 918.667 874.667 876 852 c 1
 828 814.667 785.333 771.333 748 722 c 1
 697.333 620.667 666 524 654 432 c 1
 652.667 386.667 654 341.333 658 296 c 1
 668.667 242.667 685.333 189.333 708 136 c 1
 740 80 769.333 35.3333 796 2 c 1
 841.333 -43.3333 888.667 -76 938 -96 c 1
 964.667 -104 987.333 -106.667 1006 -104 c 0
 1039.33 -101.333 1072 -91.3333 1104 -74 c 1
 1142.67 -50 1176.67 -20.6667 1206 14 c 0
 1242 56.6667 1274.67 112.667 1304 182 c 1
 1324 247.333 1336 304.667 1340 354 c 1
 1341.33 435.333 1330.67 514 1308 590 c 1
 1278.67 659.333 1248 715.333 1216 758 c 1
 1176 804 l 1
 1137.33 838.667 1092 865.333 1040 884 c 1
 1016 888 997.333 890 984 890 c 0
EndSplineSet
EndChar
StartChar: uniFF50
Encoding: 362 65360 363
OldEncoding: 33424
Width: 2048
VWidth: 1024
Flags: HW
Fore
1036 968 m 1
 1110.67 960 1174.67 940 1228 908 c 1
 1278.67 868 1325.33 818 1368 758 c 1
 1400 700.667 1427.33 638 1450 570 c 1
 1463.33 508.667 1470.67 439.333 1472 362 c 1
 1468 304.667 1456 242 1436 174 c 1
 1412 111.333 1382 56 1346 8 c 1
 1314 -30.6667 1277.33 -66 1236 -98 c 1
 1162.67 -139.333 1082 -157.333 994 -152 c 1
 922 -130.667 856.667 -91.3333 798 -34 c 1
 772 4 772 4 748 38 c 1
 752 -260 l 1
 898 -308 l 1
 898 -358 l 1
 446 -358 l 1
 446 -308 l 1
 596 -256 l 1
 596 818 l 1
 446 842 l 1
 446 892 l 1
 748 942 l 1
 748 800 l 1
 754 802 l 1
 818 876.667 882 927.333 946 954 c 1
 978 960.667 1008 965.333 1036 968 c 1
954 894 m 1
 895.333 876.667 843.333 846.667 798 804 c 1
 778 778 778 778 750 740 c 1
 750 92 l 1
 807.333 26.6667 860 -22.6667 908 -56 c 1
 953.333 -81.3333 994 -96.6667 1030 -102 c 1
 1072 -102 l 1
 1094.67 -99.3333 1114 -92 1130 -80 c 1
 1171.33 -44 1209.33 12.6667 1244 90 c 1
 1268 171.333 1284.67 261.333 1294 360 c 1
 1291.33 498.667 1279.33 602 1258 670 c 1
 1235.33 734 1199.33 791.333 1150 842 c 1
 1123.33 858 1099.33 870.667 1078 880 c 1
 1026 890 l 1
 954 894 l 1
EndSplineSet
EndChar
StartChar: uniFF51
Encoding: 363 65361 364
OldEncoding: 33425
Width: 2048
VWidth: 1024
Flags: HW
Fore
936 968 m 1
 1005.33 961.333 1060.67 948.667 1102 930 c 1
 1136.67 907.333 1175.33 874 1218 830 c 1
 1230 814 1239.33 802 1246 794 c 1
 1246 942 l 1
 1548 892 l 1
 1548 842 l 1
 1398 818 l 1
 1402 -260 l 1
 1548 -308 l 1
 1548 -358 l 1
 1096 -358 l 1
 1096 -308 l 1
 1242 -260 l 1
 1246 -226 l 1
 1246 34 l 1
 1240 32 l 1
 1196 -34.6667 1147.33 -84.6667 1094 -118 c 1
 1040.67 -143.333 984 -156 924 -156 c 1
 861.333 -148 802.667 -126.667 748 -92 c 1
 686.667 -37.3333 638 19.3333 602 78 c 1
 570 139.333 545.333 206.667 528 280 c 1
 522.667 344 521.333 405.333 524 464 c 1
 534.667 537.333 554.667 610 584 682 c 1
 626.667 760.667 678 829.333 738 888 c 1
 800.667 929.333 866.667 956 936 968 c 1
1016 894 m 1
 950.667 890 892 872 840 840 c 1
 801.333 800 766 744 734 672 c 1
 718 606.667 707.333 541.333 702 476 c 1
 700.667 364 706.667 270 720 194 c 1
 740 112.667 767.333 42 802 -18 c 1
 819.333 -43.3333 841.333 -65.3333 868 -84 c 1
 920 -100 l 1
 940 -104 964 -103.333 992 -98 c 1
 1053.33 -75.3333 1111.33 -39.3333 1166 10 c 0
 1200.67 42 1226.67 70 1244 94 c 1
 1244 742 l 1
 1198.67 800.667 1165.33 836.667 1144 850 c 0
 1118.67 866 1087.33 879.333 1050 890 c 1
 1016 894 l 1
EndSplineSet
EndChar
StartChar: uniFF52
Encoding: 364 65362 365
OldEncoding: 33426
Width: 2048
VWidth: 1024
Flags: HW
Fore
892 942 m 1
 898 940 l 1
 898 654 l 1
 904 656 l 1
 944 721.333 984.667 777.333 1026 824 c 1
 1070 854.667 1107.33 874.667 1138 884 c 1
 1203.33 890.667 1264 887.333 1320 874 c 1
 1348 860.667 1365.33 843.333 1372 822 c 1
 1354 776 l 1
 1320.67 738.667 1272.67 722.667 1210 728 c 1
 1106 741.333 1032 732 988 700 c 1
 956 666.667 926 630.667 898 592 c 1
 902 -60 l 1
 1048 -108 l 1
 1048 -158 l 1
 596 -158 l 1
 596 -108 l 1
 746 -56 l 1
 742 794 l 1
 596 842 l 1
 596 892 l 1
 892 942 l 1
EndSplineSet
EndChar
StartChar: uniFF53
Encoding: 365 65363 366
OldEncoding: 33427
Width: 2048
VWidth: 1024
Flags: HW
Fore
934 942 m 1
 978 942 1014 938.667 1042 932 c 0
 1090 918.667 1142 922 1198 942 c 1
 1322 718 l 1
 1270 692 l 1
 1235.33 738.667 1186.67 792 1124 852 c 1
 1078.67 878.667 1037.33 892 1000 892 c 1
 942.667 876 886.667 842 832 790 c 1
 814.667 768.667 801.333 749.333 792 732 c 0
 781.333 708 774.667 683.333 772 658 c 1
 780 606 811.333 554 866 502 c 1
 928.667 459.333 1006.67 412.667 1100 362 c 0
 1169.33 326 1238 286 1306 242 c 1
 1360.67 195.333 1391.33 146.667 1398 96 c 1
 1388.67 48 1352.67 -6 1290 -66 c 1
 1228.67 -107.333 1166 -137.333 1102 -156 c 1
 1032.67 -160 964 -150 896 -126 c 0
 853.333 -111.333 812 -105.333 772 -108 c 1
 744 -124 718.667 -140.667 696 -158 c 1
 570 118 l 1
 622 142 l 1
 660.667 92.6667 708 42 764 -10 c 1
 820 -51.3333 878.667 -75.3333 940 -82 c 1
 1009.33 -76.6667 1073.33 -58.6667 1132 -28 c 0
 1172 -5.33333 1202.67 19.3333 1224 46 c 1
 1244 82 1246.67 116.667 1232 150 c 1
 1200 186 1157.33 221.333 1104 256 c 1
 816 422 l 1
 789.333 440.667 763.333 460 738 480 c 1
 707.333 509.333 684 537.333 668 564 c 0
 654.667 589.333 647.333 624 646 668 c 1
 660 720 l 1
 676 754.667 700 790.667 732 828 c 1
 801.333 885.333 868.667 923.333 934 942 c 1
EndSplineSet
EndChar
StartChar: uniFF54
Encoding: 366 65364 367
OldEncoding: 33428
Width: 2048
VWidth: 1024
Flags: HW
Fore
946 1342 m 1
 998 1342 l 1
 998 942 l 1
 1298 942 l 1
 1298 892 l 1
 998 892 l 1
 998 200 l 1
 998 -8 l 1
 1010 -38.6667 1031.33 -63.3333 1062 -82 c 1
 1111.33 -102 1168 -108 1232 -100 c 1
 1276 -86.6667 1314.67 -66 1348 -38 c 1
 1422 18 l 1
 1448 -8 l 1
 1410.67 -38.6667 1365.33 -71.3333 1312 -106 c 1
 1264 -130 1223.33 -145.333 1190 -152 c 0
 1155.33 -157.333 1112 -157.333 1060 -152 c 0
 1016 -148 972.667 -135.333 930 -114 c 1
 900.667 -96.6667 879.333 -78.6667 866 -60 c 1
 852.667 -32 846 -9.33333 846 8 c 2
 846 892 l 1
 696 892 l 1
 696 968 l 1
 797.333 982.667 865.333 1009.33 900 1048 c 1
 926.667 1101.33 940.667 1164.67 942 1238 c 1
 946 1342 l 1
EndSplineSet
EndChar
StartChar: uniFF55
Encoding: 367 65365 368
OldEncoding: 33429
Width: 2048
VWidth: 1024
Flags: HW
Fore
692 942 m 1
 698 942 l 1
 698 252 l 2
 698 126.667 710 41.3333 734 -4 c 1
 767.333 -48 800 -79.3333 832 -98 c 0
 857.333 -112.667 890 -122 930 -126 c 1
 1002 -119.333 1088 -87.3333 1188 -30 c 1
 1296 40 l 1
 1292 794 l 1
 1146 842 l 1
 1146 892 l 1
 1448 942 l 1
 1452 -60 l 1
 1598 -108 l 1
 1598 -158 l 1
 1296 -158 l 1
 1294 -10 l 1
 1202 -67.3333 1113.33 -112 1028 -144 c 1
 981.333 -154.667 938 -159.333 898 -158 c 0
 852.667 -158 809.333 -150.667 768 -136 c 0
 722.667 -117.333 686.667 -99.3333 660 -82 c 1
 618.667 -46 588.667 -12.6667 570 18 c 0
 554 47.3333 546 157.333 546 348 c 1
 542 794 l 1
 396 842 l 1
 396 892 l 1
 692 942 l 1
EndSplineSet
EndChar
StartChar: uniFF56
Encoding: 368 65366 369
OldEncoding: 33430
Width: 2048
VWidth: 1024
Flags: HW
Fore
396 892 m 1
 848 892 l 1
 848 842 l 1
 698 790 l 1
 1044 48 l 1
 1050 48 l 1
 1392 794 l 1
 1246 842 l 1
 1246 892 l 1
 1598 892 l 1
 1598 842 l 1
 1452 794 l 1
 996 -158 l 1
 542 794 l 1
 396 842 l 1
 396 892 l 1
EndSplineSet
EndChar
StartChar: uniFF57
Encoding: 369 65367 370
OldEncoding: 33431
Width: 2048
VWidth: 1024
Flags: HW
Fore
196 942 m 1
 648 942 l 1
 648 892 l 1
 498 840 l 1
 672 148 l 1
 992 844 l 1
 942.667 856 885.333 872 820 892 c 1
 820 942 l 1
 1248 942 l 1
 1248 892 l 1
 1098 840 l 1
 1420 124 l 1
 1592 844 l 1
 1542.67 856 1485.33 872 1420 892 c 1
 1420 942 l 1
 1798 942 l 1
 1798 892 l 1
 1648 840 l 1
 1396 -158 l 1
 1000 712 l 1
 994 712 l 1
 596 -158 l 1
 348 838 l 1
 318 852 l 1
 196 892 l 1
 196 942 l 1
EndSplineSet
EndChar
StartChar: uniFF58
Encoding: 370 65368 371
OldEncoding: 33432
Width: 2048
VWidth: 1024
Flags: HW
Fore
546 942 m 1
 998 942 l 1
 998 892 l 1
 850 844 l 1
 1048 472 l 1
 1294 838 l 1
 1294 844 l 1
 1146 892 l 1
 1146 942 l 1
 1498 942 l 1
 1498 918 l 1
 1494 890 l 1
 1346 840 l 1
 1072 442 l 1
 1396 -58 l 1
 1548 -108 l 1
 1548 -158 l 1
 1096 -158 l 1
 1096 -108 l 1
 1192 -76 l 1
 1244 -56 l 1
 1084 200 l 1
 1020 304 l 1
 994 336 l 1
 700 -54 l 1
 700 -60 l 1
 848 -108 l 1
 848 -158 l 1
 496 -158 l 1
 496 -134 l 1
 500 -106 l 1
 646 -58 l 1
 970 368 l 1
 698 842 l 1
 546 892 l 1
 546 942 l 1
EndSplineSet
EndChar
